<svg width="16" height="16" viewBox="0 0 16 16" fill="none" xmlns="http://www.w3.org/2000/svg">
<path fill-rule="evenodd" clip-rule="evenodd" d="M9.51182 14.3233C9.0267 14.4388 8.5205 14.5 8 14.5C4.41015 14.5 1.5 11.5899 1.5 8C1.5 4.41015 4.41015 1.5 8 1.5C11.5899 1.5 14.5 4.41015 14.5 8C14.5 8.5205 14.4388 9.0267 14.3233 9.51182C14.8162 9.81324 15.2288 10.2332 15.5213 10.7321C15.8311 9.8796 16 8.95953 16 8C16 3.58172 12.4183 0 8 0C3.58172 0 0 3.58172 0 8C0 12.4183 3.58172 16 8 16C8.95953 16 9.8796 15.8311 10.7321 15.5213C10.2332 15.2288 9.81324 14.8162 9.51182 14.3233Z" fill="white"/>
<path fill-rule="evenodd" clip-rule="evenodd" d="M9.51182 14.3233C9.0267 14.4388 8.5205 14.5 8 14.5C4.41015 14.5 1.5 11.5899 1.5 8C1.5 4.41015 4.41015 1.5 8 1.5C11.5899 1.5 14.5 4.41015 14.5 8C14.5 8.5205 14.4388 9.0267 14.3233 9.51182C14.8162 9.81324 15.2288 10.2332 15.5213 10.7321C15.8311 9.8796 16 8.95953 16 8C16 3.58172 12.4183 0 8 0C3.58172 0 0 3.58172 0 8C0 12.4183 3.58172 16 8 16C8.95953 16 9.8796 15.8311 10.7321 15.5213C10.2332 15.2288 9.81324 14.8162 9.51182 14.3233Z" fill="#4E5D78"/>
<path fill-rule="evenodd" clip-rule="evenodd" d="M12.5 14.5C13.6046 14.5 14.5 13.6046 14.5 12.5C14.5 11.3954 13.6046 10.5 12.5 10.5C11.3954 10.5 10.5 11.3954 10.5 12.5C10.5 13.6046 11.3954 14.5 12.5 14.5ZM12.5 16C14.433 16 16 14.433 16 12.5C16 10.567 14.433 9 12.5 9C10.567 9 9 10.567 9 12.5C9 14.433 10.567 16 12.5 16Z" fill="white"/>
<path fill-rule="evenodd" clip-rule="evenodd" d="M12.5 14.5C13.6046 14.5 14.5 13.6046 14.5 12.5C14.5 11.3954 13.6046 10.5 12.5 10.5C11.3954 10.5 10.5 11.3954 10.5 12.5C10.5 13.6046 11.3954 14.5 12.5 14.5ZM12.5 16C14.433 16 16 14.433 16 12.5C16 10.567 14.433 9 12.5 9C10.567 9 9 10.567 9 12.5C9 14.433 10.567 16 12.5 16Z" fill="#4E5D78"/>
</svg>
