<svg width="16" height="16" viewBox="0 0 16 16" fill="none" xmlns="http://www.w3.org/2000/svg">
<path d="M16 4.78351C16 4.64948 15.9466 4.53093 15.8397 4.42784L15.0381 3.65464C14.9312 3.55155 14.8083 3.5 14.6693 3.5C14.5304 3.5 14.4075 3.55155 14.3006 3.65464L8 9.73196L1.6994 3.65464C1.59252 3.55155 1.46961 3.5 1.33066 3.5C1.19172 3.5 1.0688 3.55155 0.961924 3.65464L0.160321 4.42784C0.0534402 4.53093 0 4.64948 0 4.78351C0 4.91753 0.0534402 5.03608 0.160321 5.13918L7.63126 12.3454C7.73814 12.4485 7.86106 12.5 8 12.5C8.13894 12.5 8.26186 12.4485 8.36874 12.3454L15.8397 5.13918C15.9466 5.03608 16 4.91753 16 4.78351Z" fill="white"/>
<path d="M16 4.78351C16 4.64948 15.9466 4.53093 15.8397 4.42784L15.0381 3.65464C14.9312 3.55155 14.8083 3.5 14.6693 3.5C14.5304 3.5 14.4075 3.55155 14.3006 3.65464L8 9.73196L1.6994 3.65464C1.59252 3.55155 1.46961 3.5 1.33066 3.5C1.19172 3.5 1.0688 3.55155 0.961924 3.65464L0.160321 4.42784C0.0534402 4.53093 0 4.64948 0 4.78351C0 4.91753 0.0534402 5.03608 0.160321 5.13918L7.63126 12.3454C7.73814 12.4485 7.86106 12.5 8 12.5C8.13894 12.5 8.26186 12.4485 8.36874 12.3454L15.8397 5.13918C15.9466 5.03608 16 4.91753 16 4.78351Z" fill="#4E5D78"/>
</svg>
