<svg width="16" height="16" viewBox="0 0 16 16" fill="none" xmlns="http://www.w3.org/2000/svg">
<path d="M3.29647 1.95098C2.85886 1.50467 2.9262 0.781048 3.36381 0.334735C3.80141 -0.111578 4.5109 -0.111578 4.9485 0.334735L11.6718 7.19187C12.096 7.62454 12.1109 8.3212 11.7055 8.77225L4.9485 15.6294C4.53032 16.0947 3.82 16.1261 3.36381 15.6996C2.90761 15.2731 2.87829 14.5502 3.29647 14.0849L9.32845 8.03437L3.29647 1.95098Z" fill="white"/>
<path d="M3.29647 1.95098C2.85886 1.50467 2.9262 0.781048 3.36381 0.334735C3.80141 -0.111578 4.5109 -0.111578 4.9485 0.334735L11.6718 7.19187C12.096 7.62454 12.1109 8.3212 11.7055 8.77225L4.9485 15.6294C4.53032 16.0947 3.82 16.1261 3.36381 15.6996C2.90761 15.2731 2.87829 14.5502 3.29647 14.0849L9.32845 8.03437L3.29647 1.95098Z" fill="#4E5D78"/>
</svg>
