<svg width="16" height="16" viewBox="0 0 16 16" fill="none" xmlns="http://www.w3.org/2000/svg">
<path d="M16 11.2165C16 11.3505 15.9466 11.4691 15.8397 11.5722L15.0381 12.3454C14.9312 12.4485 14.8083 12.5 14.6693 12.5C14.5304 12.5 14.4075 12.4485 14.3006 12.3454L8 6.26804L1.6994 12.3454C1.59252 12.4485 1.46961 12.5 1.33066 12.5C1.19172 12.5 1.0688 12.4485 0.961924 12.3454L0.160321 11.5722C0.0534402 11.4691 0 11.3505 0 11.2165C0 11.0825 0.0534402 10.9639 0.160321 10.8608L7.63126 3.65464C7.73814 3.55155 7.86106 3.5 8 3.5C8.13894 3.5 8.26186 3.55155 8.36874 3.65464L15.8397 10.8608C15.9466 10.9639 16 11.0825 16 11.2165Z" fill="white"/>
<path d="M16 11.2165C16 11.3505 15.9466 11.4691 15.8397 11.5722L15.0381 12.3454C14.9312 12.4485 14.8083 12.5 14.6693 12.5C14.5304 12.5 14.4075 12.4485 14.3006 12.3454L8 6.26804L1.6994 12.3454C1.59252 12.4485 1.46961 12.5 1.33066 12.5C1.19172 12.5 1.0688 12.4485 0.961924 12.3454L0.160321 11.5722C0.0534402 11.4691 0 11.3505 0 11.2165C0 11.0825 0.0534402 10.9639 0.160321 10.8608L7.63126 3.65464C7.73814 3.55155 7.86106 3.5 8 3.5C8.13894 3.5 8.26186 3.55155 8.36874 3.65464L15.8397 10.8608C15.9466 10.9639 16 11.0825 16 11.2165Z" fill="#4E5D78"/>
</svg>
