<svg width="16" height="16" viewBox="0 0 16 16" fill="none" xmlns="http://www.w3.org/2000/svg">
<path d="M12.8915 11.326C12.8915 11.6967 12.8915 12.0657 12.8915 12.4364C12.8915 13.019 12.8915 13.6033 12.8915 14.186C12.8915 14.3349 12.9024 14.4887 12.8868 14.6376C12.8946 14.5728 12.904 14.5081 12.9118 14.4434C12.9024 14.5081 12.8868 14.5696 12.8649 14.6295C12.8883 14.5712 12.9118 14.513 12.9353 14.4563C12.9103 14.5146 12.8805 14.568 12.8445 14.6198C12.8805 14.5712 12.9181 14.5211 12.9541 14.4725C12.9165 14.5227 12.8743 14.5664 12.8257 14.6052C12.8727 14.568 12.9212 14.5291 12.9682 14.4919C12.9196 14.5308 12.8664 14.5615 12.8101 14.5858C12.8664 14.5615 12.9228 14.5372 12.9776 14.513C12.9197 14.5372 12.8586 14.5534 12.7976 14.5615C12.8602 14.5534 12.9228 14.5437 12.9854 14.5356C12.8758 14.5486 12.7616 14.5405 12.652 14.5405C12.4172 14.5405 12.1824 14.5405 11.9476 14.5405C11.1634 14.5405 10.3776 14.5405 9.59339 14.5405C8.64638 14.5405 7.69937 14.5405 6.75393 14.5405C5.93372 14.5405 5.1135 14.5405 4.29328 14.5405C3.90509 14.5405 3.51689 14.5421 3.1287 14.5405C3.09583 14.5405 3.06295 14.5389 3.03165 14.5356C3.09426 14.5437 3.15687 14.5534 3.21948 14.5615C3.15687 14.5518 3.09739 14.5356 3.03948 14.513C3.09583 14.5372 3.15218 14.5615 3.20696 14.5858C3.15061 14.5599 3.09896 14.5291 3.04887 14.4919C3.09583 14.5291 3.14435 14.568 3.19131 14.6052C3.14279 14.5664 3.10052 14.5227 3.06295 14.4725C3.09896 14.5211 3.13652 14.5712 3.17253 14.6198C3.13496 14.5696 3.10522 14.5146 3.08174 14.4563C3.10522 14.5146 3.1287 14.5728 3.15218 14.6295C3.1287 14.5696 3.11304 14.5065 3.10522 14.4434C3.11304 14.5081 3.12244 14.5728 3.13026 14.6376C3.11774 14.5146 3.12557 14.3851 3.12557 14.2621C3.12557 14.008 3.12557 13.7539 3.12557 13.4997C3.12557 12.9106 3.12557 12.3214 3.12557 11.7307C3.12557 11.5947 3.12557 11.4588 3.12557 11.3228C2.72485 11.4944 2.32413 11.6659 1.92342 11.8375C2.21613 12.0819 2.52449 12.2696 2.89077 12.3765C3.23044 12.4752 3.5842 12.4946 3.9317 12.4461C4.55625 12.3587 5.16046 12.0398 5.55961 11.5267C5.22777 11.5267 4.89592 11.5267 4.56408 11.5267C4.73783 11.7501 4.95853 11.9395 5.19333 12.0884C5.42656 12.2373 5.69579 12.3522 5.96659 12.4105C6.59114 12.5432 7.23291 12.4574 7.79329 12.1369C8.06096 11.9848 8.31297 11.7728 8.50394 11.5267C8.17209 11.5267 7.84025 11.5267 7.50841 11.5267C7.68216 11.7501 7.90286 11.9395 8.13766 12.0884C8.37089 12.2373 8.64168 12.3522 8.91092 12.4105C9.53547 12.5432 10.1772 12.4574 10.7376 12.1385C11.0053 11.9864 11.2573 11.7744 11.4483 11.5284C11.1164 11.5284 10.7846 11.5284 10.4527 11.5284C11.2792 12.5934 12.9118 12.7876 13.9559 11.9557C14.0373 11.9103 14.1046 11.8472 14.1531 11.7679C14.2157 11.6983 14.258 11.6158 14.2799 11.5203C14.3269 11.3455 14.3049 11.114 14.2095 10.9586C14.1124 10.8032 13.9684 10.6657 13.7884 10.6236C13.6178 10.5831 13.3924 10.5799 13.2452 10.6964C13.1059 10.8081 12.9557 10.8987 12.7944 10.97C12.8508 10.9457 12.9071 10.9214 12.9619 10.8971C12.8132 10.9602 12.6582 11.0039 12.4986 11.0282C12.5612 11.0201 12.6238 11.0104 12.6864 11.0023C12.5174 11.025 12.3467 11.0266 12.1777 11.0039C12.2403 11.012 12.3029 11.0217 12.3655 11.0298C12.198 11.0056 12.0353 10.9602 11.8787 10.8923C11.9351 10.9165 11.9914 10.9408 12.0462 10.9651C11.9006 10.9004 11.766 10.8194 11.6392 10.7207C11.6862 10.7579 11.7347 10.7968 11.7817 10.834C11.658 10.7353 11.5469 10.622 11.4483 10.4957C11.3465 10.3646 11.107 10.2756 10.9505 10.2821C10.7752 10.2902 10.567 10.3484 10.4527 10.4957C10.3541 10.622 10.2446 10.7336 10.1193 10.834C10.1663 10.7968 10.2148 10.7579 10.2618 10.7207C10.1365 10.8194 10.0004 10.9004 9.85636 10.9651C9.91271 10.9408 9.96906 10.9165 10.0238 10.8923C9.86731 10.9602 9.70609 11.0056 9.53704 11.0298C9.59965 11.0217 9.66226 11.012 9.72487 11.0039C9.56052 11.025 9.39459 11.025 9.22867 11.0039C9.29128 11.012 9.3539 11.0217 9.41651 11.0298C9.24902 11.0056 9.08623 10.9602 8.9297 10.8923C8.98605 10.9165 9.0424 10.9408 9.09719 10.9651C8.95318 10.9004 8.817 10.8194 8.69177 10.7207C8.73873 10.7579 8.78726 10.7968 8.83422 10.834C8.71056 10.7353 8.59942 10.622 8.50237 10.4957C8.40063 10.3646 8.16114 10.2756 8.00461 10.2821C7.82929 10.2902 7.62111 10.3484 7.50684 10.4957C7.40823 10.622 7.29866 10.7353 7.175 10.834C7.22196 10.7968 7.27048 10.7579 7.31744 10.7207C7.19222 10.8194 7.05604 10.9004 6.91203 10.9651C6.96838 10.9408 7.02473 10.9165 7.07952 10.8923C6.92299 10.9602 6.76176 11.0056 6.59271 11.0298C6.65532 11.0217 6.71793 11.012 6.78054 11.0039C6.61619 11.025 6.45026 11.025 6.28434 11.0039C6.34695 11.012 6.40957 11.0217 6.47218 11.0298C6.30469 11.0056 6.1419 10.9602 5.98694 10.8923C6.04329 10.9165 6.09964 10.9408 6.15442 10.9651C6.01042 10.9004 5.87423 10.8194 5.74901 10.7207C5.79597 10.7579 5.84449 10.7968 5.89145 10.834C5.76779 10.7353 5.65666 10.622 5.55961 10.4957C5.45786 10.3646 5.21837 10.2756 5.06184 10.2821C4.88653 10.2902 4.67834 10.3484 4.56408 10.4957C4.46546 10.622 4.35589 10.7353 4.23223 10.834C4.27919 10.7968 4.32772 10.7579 4.37468 10.7207C4.24945 10.8194 4.11484 10.9004 3.96926 10.9651C4.02561 10.9408 4.08197 10.9165 4.13675 10.8923C3.98022 10.9602 3.819 11.0056 3.65151 11.0298C3.71412 11.0217 3.77673 11.012 3.83934 11.0039C3.67029 11.0266 3.49967 11.025 3.32906 11.0023C3.39167 11.0104 3.45428 11.0201 3.51689 11.0282C3.35723 11.0039 3.2007 10.9602 3.052 10.8971C3.10835 10.9214 3.1647 10.9457 3.21948 10.97C3.07548 10.9068 2.94086 10.8259 2.81564 10.7272C2.8626 10.7644 2.91112 10.8032 2.95808 10.8405C2.94556 10.8308 2.93303 10.8194 2.92051 10.8097C2.82503 10.7304 2.72955 10.656 2.60902 10.622C2.45562 10.5783 2.29439 10.5961 2.15038 10.6592C1.89524 10.7709 1.7168 11.0331 1.7168 11.3244C1.7168 11.9298 1.7168 12.5335 1.7168 13.1388C1.7168 13.5078 1.7168 13.8785 1.7168 14.2475C1.7168 14.6344 1.72306 15.0244 1.95785 15.3562C2.1003 15.5585 2.27091 15.7398 2.49632 15.845C2.70294 15.9405 2.88921 15.9956 3.11931 15.9988C3.14122 15.9988 3.1647 15.9988 3.18661 15.9988C3.32749 15.9988 3.4668 15.9988 3.60768 15.9988C4.17745 15.9988 4.74878 15.9988 5.31855 15.9988C6.11372 15.9988 6.9089 15.9988 7.70407 15.9988C8.52429 15.9988 9.34294 15.9988 10.1632 15.9988C10.8065 15.9988 11.4514 15.9988 12.0947 15.9988C12.364 15.9988 12.6316 16.002 12.9009 15.9988C13.1357 15.9956 13.3329 15.9373 13.5426 15.8369C13.7649 15.7301 13.9371 15.544 14.0748 15.34C14.2361 15.1037 14.3018 14.8043 14.3034 14.5178C14.3034 14.2572 14.3034 13.9983 14.3034 13.7377C14.3034 12.9834 14.3034 12.2308 14.3034 11.4766C14.3034 11.4264 14.3034 11.3762 14.3034 11.326C14.3034 11.1399 14.2251 10.9424 14.0968 10.8113C13.9747 10.6851 13.7743 10.5896 13.599 10.5977C13.4174 10.6058 13.228 10.6673 13.1012 10.8113C12.9713 10.9521 12.8915 11.1286 12.8915 11.326Z" fill="white"/>
<path d="M12.8915 11.326C12.8915 11.6967 12.8915 12.0657 12.8915 12.4364C12.8915 13.019 12.8915 13.6033 12.8915 14.186C12.8915 14.3349 12.9024 14.4887 12.8868 14.6376C12.8946 14.5728 12.904 14.5081 12.9118 14.4434C12.9024 14.5081 12.8868 14.5696 12.8649 14.6295C12.8883 14.5712 12.9118 14.513 12.9353 14.4563C12.9103 14.5146 12.8805 14.568 12.8445 14.6198C12.8805 14.5712 12.9181 14.5211 12.9541 14.4725C12.9165 14.5227 12.8743 14.5664 12.8257 14.6052C12.8727 14.568 12.9212 14.5291 12.9682 14.4919C12.9196 14.5308 12.8664 14.5615 12.8101 14.5858C12.8664 14.5615 12.9228 14.5372 12.9776 14.513C12.9197 14.5372 12.8586 14.5534 12.7976 14.5615C12.8602 14.5534 12.9228 14.5437 12.9854 14.5356C12.8758 14.5486 12.7616 14.5405 12.652 14.5405C12.4172 14.5405 12.1824 14.5405 11.9476 14.5405C11.1634 14.5405 10.3776 14.5405 9.59339 14.5405C8.64638 14.5405 7.69937 14.5405 6.75393 14.5405C5.93372 14.5405 5.1135 14.5405 4.29328 14.5405C3.90509 14.5405 3.51689 14.5421 3.1287 14.5405C3.09583 14.5405 3.06295 14.5389 3.03165 14.5356C3.09426 14.5437 3.15687 14.5534 3.21948 14.5615C3.15687 14.5518 3.09739 14.5356 3.03948 14.513C3.09583 14.5372 3.15218 14.5615 3.20696 14.5858C3.15061 14.5599 3.09896 14.5291 3.04887 14.4919C3.09583 14.5291 3.14435 14.568 3.19131 14.6052C3.14279 14.5664 3.10052 14.5227 3.06295 14.4725C3.09896 14.5211 3.13652 14.5712 3.17253 14.6198C3.13496 14.5696 3.10522 14.5146 3.08174 14.4563C3.10522 14.5146 3.1287 14.5728 3.15218 14.6295C3.1287 14.5696 3.11304 14.5065 3.10522 14.4434C3.11304 14.5081 3.12244 14.5728 3.13026 14.6376C3.11774 14.5146 3.12557 14.3851 3.12557 14.2621C3.12557 14.008 3.12557 13.7539 3.12557 13.4997C3.12557 12.9106 3.12557 12.3214 3.12557 11.7307C3.12557 11.5947 3.12557 11.4588 3.12557 11.3228C2.72485 11.4944 2.32413 11.6659 1.92342 11.8375C2.21613 12.0819 2.52449 12.2696 2.89077 12.3765C3.23044 12.4752 3.5842 12.4946 3.9317 12.4461C4.55625 12.3587 5.16046 12.0398 5.55961 11.5267C5.22777 11.5267 4.89592 11.5267 4.56408 11.5267C4.73783 11.7501 4.95853 11.9395 5.19333 12.0884C5.42656 12.2373 5.69579 12.3522 5.96659 12.4105C6.59114 12.5432 7.23291 12.4574 7.79329 12.1369C8.06096 11.9848 8.31297 11.7728 8.50394 11.5267C8.17209 11.5267 7.84025 11.5267 7.50841 11.5267C7.68216 11.7501 7.90286 11.9395 8.13766 12.0884C8.37089 12.2373 8.64168 12.3522 8.91092 12.4105C9.53547 12.5432 10.1772 12.4574 10.7376 12.1385C11.0053 11.9864 11.2573 11.7744 11.4483 11.5284C11.1164 11.5284 10.7846 11.5284 10.4527 11.5284C11.2792 12.5934 12.9118 12.7876 13.9559 11.9557C14.0373 11.9103 14.1046 11.8472 14.1531 11.7679C14.2157 11.6983 14.258 11.6158 14.2799 11.5203C14.3269 11.3455 14.3049 11.114 14.2095 10.9586C14.1124 10.8032 13.9684 10.6657 13.7884 10.6236C13.6178 10.5831 13.3924 10.5799 13.2452 10.6964C13.1059 10.8081 12.9557 10.8987 12.7944 10.97C12.8508 10.9457 12.9071 10.9214 12.9619 10.8971C12.8132 10.9602 12.6582 11.0039 12.4986 11.0282C12.5612 11.0201 12.6238 11.0104 12.6864 11.0023C12.5174 11.025 12.3467 11.0266 12.1777 11.0039C12.2403 11.012 12.3029 11.0217 12.3655 11.0298C12.198 11.0056 12.0353 10.9602 11.8787 10.8923C11.9351 10.9165 11.9914 10.9408 12.0462 10.9651C11.9006 10.9004 11.766 10.8194 11.6392 10.7207C11.6862 10.7579 11.7347 10.7968 11.7817 10.834C11.658 10.7353 11.5469 10.622 11.4483 10.4957C11.3465 10.3646 11.107 10.2756 10.9505 10.2821C10.7752 10.2902 10.567 10.3484 10.4527 10.4957C10.3541 10.622 10.2446 10.7336 10.1193 10.834C10.1663 10.7968 10.2148 10.7579 10.2618 10.7207C10.1365 10.8194 10.0004 10.9004 9.85636 10.9651C9.91271 10.9408 9.96906 10.9165 10.0238 10.8923C9.86731 10.9602 9.70609 11.0056 9.53704 11.0298C9.59965 11.0217 9.66226 11.012 9.72487 11.0039C9.56052 11.025 9.39459 11.025 9.22867 11.0039C9.29128 11.012 9.3539 11.0217 9.41651 11.0298C9.24902 11.0056 9.08623 10.9602 8.9297 10.8923C8.98605 10.9165 9.0424 10.9408 9.09719 10.9651C8.95318 10.9004 8.817 10.8194 8.69177 10.7207C8.73873 10.7579 8.78726 10.7968 8.83422 10.834C8.71056 10.7353 8.59942 10.622 8.50237 10.4957C8.40063 10.3646 8.16114 10.2756 8.00461 10.2821C7.82929 10.2902 7.62111 10.3484 7.50684 10.4957C7.40823 10.622 7.29866 10.7353 7.175 10.834C7.22196 10.7968 7.27048 10.7579 7.31744 10.7207C7.19222 10.8194 7.05604 10.9004 6.91203 10.9651C6.96838 10.9408 7.02473 10.9165 7.07952 10.8923C6.92299 10.9602 6.76176 11.0056 6.59271 11.0298C6.65532 11.0217 6.71793 11.012 6.78054 11.0039C6.61619 11.025 6.45026 11.025 6.28434 11.0039C6.34695 11.012 6.40957 11.0217 6.47218 11.0298C6.30469 11.0056 6.1419 10.9602 5.98694 10.8923C6.04329 10.9165 6.09964 10.9408 6.15442 10.9651C6.01042 10.9004 5.87423 10.8194 5.74901 10.7207C5.79597 10.7579 5.84449 10.7968 5.89145 10.834C5.76779 10.7353 5.65666 10.622 5.55961 10.4957C5.45786 10.3646 5.21837 10.2756 5.06184 10.2821C4.88653 10.2902 4.67834 10.3484 4.56408 10.4957C4.46546 10.622 4.35589 10.7353 4.23223 10.834C4.27919 10.7968 4.32772 10.7579 4.37468 10.7207C4.24945 10.8194 4.11484 10.9004 3.96926 10.9651C4.02561 10.9408 4.08197 10.9165 4.13675 10.8923C3.98022 10.9602 3.819 11.0056 3.65151 11.0298C3.71412 11.0217 3.77673 11.012 3.83934 11.0039C3.67029 11.0266 3.49967 11.025 3.32906 11.0023C3.39167 11.0104 3.45428 11.0201 3.51689 11.0282C3.35723 11.0039 3.2007 10.9602 3.052 10.8971C3.10835 10.9214 3.1647 10.9457 3.21948 10.97C3.07548 10.9068 2.94086 10.8259 2.81564 10.7272C2.8626 10.7644 2.91112 10.8032 2.95808 10.8405C2.94556 10.8308 2.93303 10.8194 2.92051 10.8097C2.82503 10.7304 2.72955 10.656 2.60902 10.622C2.45562 10.5783 2.29439 10.5961 2.15038 10.6592C1.89524 10.7709 1.7168 11.0331 1.7168 11.3244C1.7168 11.9298 1.7168 12.5335 1.7168 13.1388C1.7168 13.5078 1.7168 13.8785 1.7168 14.2475C1.7168 14.6344 1.72306 15.0244 1.95785 15.3562C2.1003 15.5585 2.27091 15.7398 2.49632 15.845C2.70294 15.9405 2.88921 15.9956 3.11931 15.9988C3.14122 15.9988 3.1647 15.9988 3.18661 15.9988C3.32749 15.9988 3.4668 15.9988 3.60768 15.9988C4.17745 15.9988 4.74878 15.9988 5.31855 15.9988C6.11372 15.9988 6.9089 15.9988 7.70407 15.9988C8.52429 15.9988 9.34294 15.9988 10.1632 15.9988C10.8065 15.9988 11.4514 15.9988 12.0947 15.9988C12.364 15.9988 12.6316 16.002 12.9009 15.9988C13.1357 15.9956 13.3329 15.9373 13.5426 15.8369C13.7649 15.7301 13.9371 15.544 14.0748 15.34C14.2361 15.1037 14.3018 14.8043 14.3034 14.5178C14.3034 14.2572 14.3034 13.9983 14.3034 13.7377C14.3034 12.9834 14.3034 12.2308 14.3034 11.4766C14.3034 11.4264 14.3034 11.3762 14.3034 11.326C14.3034 11.1399 14.2251 10.9424 14.0968 10.8113C13.9747 10.6851 13.7743 10.5896 13.599 10.5977C13.4174 10.6058 13.228 10.6673 13.1012 10.8113C12.9713 10.9521 12.8915 11.1286 12.8915 11.326Z" fill="#4E5D78"/>
<path d="M13.5912 9.80928C13.5912 9.89506 13.5849 9.97923 13.5756 10.065C13.5834 10.0003 13.5928 9.93553 13.6006 9.87078C13.5771 10.044 13.5333 10.2107 13.4691 10.3709C13.4926 10.3126 13.5161 10.2544 13.5396 10.1977C13.4738 10.3531 13.3908 10.5004 13.2907 10.6347C13.3267 10.5862 13.3642 10.536 13.4002 10.4875C13.3032 10.6137 13.1936 10.727 13.0715 10.8273C13.1185 10.7901 13.167 10.7513 13.214 10.7141C13.0825 10.8193 12.94 10.905 12.7866 10.973C12.843 10.9487 12.8993 10.9245 12.9541 10.9002C12.8054 10.9633 12.6505 11.007 12.4908 11.0313C12.5534 11.0232 12.616 11.0135 12.6786 11.0054C12.5096 11.028 12.339 11.0297 12.1699 11.007C12.2325 11.0151 12.2951 11.0248 12.3578 11.0329C12.1903 11.0086 12.0275 10.9633 11.8709 10.8953C11.9273 10.9196 11.9836 10.9439 12.0384 10.9682C11.8944 10.9034 11.7582 10.8225 11.633 10.7238C11.68 10.761 11.7285 10.7998 11.7755 10.8371C11.6518 10.7383 11.5407 10.625 11.4436 10.4988C11.3419 10.3677 11.1024 10.2787 10.9459 10.2851C10.7705 10.2932 10.5624 10.3515 10.4481 10.4988C10.3495 10.625 10.2399 10.7367 10.1147 10.8371C10.1616 10.7998 10.2102 10.761 10.2571 10.7238C10.1319 10.8225 9.99571 10.9034 9.85171 10.9682C9.90806 10.9439 9.96441 10.9196 10.0192 10.8953C9.86266 10.9633 9.70144 11.0086 9.53238 11.0329C9.595 11.0248 9.65761 11.0151 9.72022 11.007C9.55586 11.028 9.38994 11.028 9.22402 11.007C9.28663 11.0151 9.34924 11.0248 9.41186 11.0329C9.24437 11.0086 9.08158 10.9633 8.92505 10.8953C8.9814 10.9196 9.03775 10.9439 9.09254 10.9682C8.94853 10.9034 8.81235 10.8225 8.68712 10.7238C8.73408 10.761 8.78261 10.7998 8.82957 10.8371C8.70591 10.7383 8.59477 10.625 8.49616 10.4988C8.39441 10.3677 8.15492 10.2787 7.99839 10.2851C7.82308 10.2932 7.61489 10.3515 7.50062 10.4988C7.40201 10.625 7.29244 10.7383 7.16878 10.8371C7.21574 10.7998 7.26426 10.761 7.31122 10.7238C7.186 10.8225 7.04982 10.9034 6.90581 10.9682C6.96216 10.9439 7.01851 10.9196 7.0733 10.8953C6.91677 10.9633 6.75554 11.0086 6.58649 11.0329C6.6491 11.0248 6.71171 11.0151 6.77433 11.007C6.60997 11.028 6.44405 11.028 6.27813 11.007C6.34074 11.0151 6.40335 11.0248 6.46596 11.0329C6.29847 11.0086 6.13568 10.9633 5.97915 10.8953C6.0355 10.9196 6.09185 10.9439 6.14664 10.9682C6.00263 10.9034 5.86645 10.8225 5.74123 10.7238C5.78819 10.761 5.83671 10.7998 5.88367 10.8371C5.76001 10.7383 5.64887 10.625 5.55183 10.4988C5.45008 10.3677 5.21059 10.2787 5.05406 10.2851C4.87875 10.2932 4.67056 10.3515 4.5563 10.4988C4.45768 10.625 4.34811 10.7383 4.22445 10.8371C4.27141 10.7998 4.31993 10.761 4.36689 10.7238C4.24167 10.8225 4.10549 10.9034 3.96148 10.9682C4.01783 10.9439 4.07418 10.9196 4.12897 10.8953C3.97244 10.9633 3.80965 11.0086 3.64216 11.0329C3.70477 11.0248 3.76738 11.0151 3.83 11.007C3.66094 11.0297 3.49033 11.028 3.32127 11.0054C3.38389 11.0135 3.4465 11.0232 3.50911 11.0313C3.34945 11.007 3.19448 10.9633 3.04578 10.9002C3.10213 10.9245 3.15848 10.9487 3.21327 10.973C3.05987 10.905 2.91743 10.8193 2.78594 10.7141C2.8329 10.7513 2.88142 10.7901 2.92838 10.8273C2.80629 10.727 2.69515 10.6137 2.59967 10.4875C2.63567 10.536 2.67324 10.5862 2.70924 10.6347C2.60906 10.5004 2.5261 10.3547 2.46036 10.1977C2.48384 10.256 2.50732 10.3143 2.5308 10.3709C2.46662 10.2107 2.42279 10.0424 2.39931 9.87078C2.40714 9.93553 2.41653 10.0003 2.42436 10.065C2.40401 9.89021 2.40401 9.7154 2.42592 9.5406C2.4181 9.60534 2.4087 9.67009 2.40088 9.73483C2.42436 9.56812 2.46662 9.40788 2.52923 9.2525C2.50575 9.31077 2.48227 9.36903 2.45879 9.42568C2.52297 9.26868 2.6075 9.1214 2.70768 8.98544C2.67167 9.03399 2.63411 9.08417 2.5981 9.13273C2.69515 9.00486 2.80629 8.88994 2.92995 8.78959C2.88299 8.82682 2.83447 8.86567 2.78751 8.90289C2.91899 8.7993 3.06143 8.7119 3.21327 8.64554C3.15692 8.66982 3.10057 8.6941 3.04578 8.71838C3.19605 8.65363 3.35101 8.60993 3.51224 8.58566C3.44963 8.59375 3.38702 8.60346 3.3244 8.61155C3.49189 8.58889 3.66251 8.59375 3.83156 8.59375C4.05227 8.59375 4.27298 8.59375 4.49525 8.59375C5.20589 8.59375 5.91811 8.59537 6.62875 8.59537C8.1831 8.59699 9.73744 8.5986 11.2933 8.5986C11.5641 8.5986 11.8365 8.5986 12.1073 8.5986C12.2967 8.5986 12.4892 8.59213 12.6786 8.61641C12.616 8.60832 12.5534 8.5986 12.4908 8.59051C12.652 8.61479 12.807 8.65849 12.9573 8.72161C12.9009 8.69734 12.8446 8.67306 12.7898 8.64878C12.9416 8.71514 13.084 8.80092 13.2155 8.90451C13.1686 8.86728 13.1201 8.82844 13.0731 8.79121C13.1968 8.89156 13.3079 9.00648 13.4049 9.13273C13.3689 9.08417 13.3314 9.03399 13.2954 8.98544C13.3955 9.1214 13.4801 9.26707 13.5442 9.42407C13.5208 9.3658 13.4973 9.30753 13.4738 9.25088C13.5364 9.40626 13.5787 9.5665 13.6022 9.73159C13.5943 9.66685 13.5849 9.60211 13.5771 9.53736C13.5849 9.62962 13.5912 9.71864 13.5912 9.80928C13.5928 9.99703 13.6695 10.1913 13.7978 10.324C13.9199 10.4502 14.1203 10.5457 14.2956 10.5376C14.4772 10.5295 14.6666 10.468 14.7934 10.324C14.9201 10.1815 15.0015 10.0051 15 9.80928C14.9968 9.36903 14.892 8.94659 14.6963 8.55652C14.51 8.18264 14.2299 7.88482 13.9074 7.63719C13.6303 7.42192 13.2891 7.26816 12.9479 7.20341C12.699 7.15648 12.4564 7.14515 12.2044 7.14515C10.7674 7.14353 9.33046 7.14353 7.89352 7.14191C6.50196 7.14029 5.11041 7.13867 3.72042 7.13867C3.4465 7.13867 3.17257 7.15809 2.90647 7.23093C2.50888 7.34099 2.15356 7.55464 1.84676 7.83303C1.2723 8.3542 0.938887 9.19909 1.00933 9.98732C1.05002 10.4502 1.17681 10.9067 1.43822 11.2903C1.69493 11.6674 2.02677 11.9992 2.43375 12.1966C2.86421 12.4054 3.34162 12.522 3.81904 12.4621C4.04914 12.4346 4.26828 12.3957 4.48273 12.3067C4.69561 12.2177 4.8944 12.1222 5.07911 11.9798C5.25442 11.8438 5.41721 11.7046 5.55496 11.5282C5.22311 11.5282 4.89127 11.5282 4.55943 11.5282C4.73317 11.7515 4.95388 11.9409 5.18868 12.0898C5.42191 12.2387 5.6927 12.3536 5.96194 12.4119C6.58649 12.5446 7.22826 12.4588 7.78864 12.1384C8.05631 11.9862 8.30832 11.7742 8.49929 11.5282C8.16744 11.5282 7.8356 11.5282 7.50376 11.5282C7.6775 11.7515 7.89821 11.9409 8.13301 12.0898C8.3678 12.2387 8.63703 12.3536 8.90626 12.4119C9.53082 12.5446 10.1726 12.4588 10.733 12.14C11.0006 11.9878 11.2527 11.7758 11.4436 11.5298C11.1118 11.5298 10.7799 11.5298 10.4481 11.5298C10.9365 12.1578 11.7598 12.5268 12.5362 12.4767C12.9713 12.4491 13.4018 12.3245 13.7743 12.0833C14.1265 11.8535 14.4255 11.5427 14.64 11.1737C14.8763 10.7658 14.9968 10.2868 15 9.81252C15.0015 9.62638 14.9201 9.42892 14.7934 9.29782C14.6713 9.17157 14.4709 9.07608 14.2956 9.08417C13.9121 9.09874 13.5943 9.40141 13.5912 9.80928Z" fill="white"/>
<path d="M13.5912 9.80928C13.5912 9.89506 13.5849 9.97923 13.5756 10.065C13.5834 10.0003 13.5928 9.93553 13.6006 9.87078C13.5771 10.044 13.5333 10.2107 13.4691 10.3709C13.4926 10.3126 13.5161 10.2544 13.5396 10.1977C13.4738 10.3531 13.3908 10.5004 13.2907 10.6347C13.3267 10.5862 13.3642 10.536 13.4002 10.4875C13.3032 10.6137 13.1936 10.727 13.0715 10.8273C13.1185 10.7901 13.167 10.7513 13.214 10.7141C13.0825 10.8193 12.94 10.905 12.7866 10.973C12.843 10.9487 12.8993 10.9245 12.9541 10.9002C12.8054 10.9633 12.6505 11.007 12.4908 11.0313C12.5534 11.0232 12.616 11.0135 12.6786 11.0054C12.5096 11.028 12.339 11.0297 12.1699 11.007C12.2325 11.0151 12.2951 11.0248 12.3578 11.0329C12.1903 11.0086 12.0275 10.9633 11.8709 10.8953C11.9273 10.9196 11.9836 10.9439 12.0384 10.9682C11.8944 10.9034 11.7582 10.8225 11.633 10.7238C11.68 10.761 11.7285 10.7998 11.7755 10.8371C11.6518 10.7383 11.5407 10.625 11.4436 10.4988C11.3419 10.3677 11.1024 10.2787 10.9459 10.2851C10.7705 10.2932 10.5624 10.3515 10.4481 10.4988C10.3495 10.625 10.2399 10.7367 10.1147 10.8371C10.1616 10.7998 10.2102 10.761 10.2571 10.7238C10.1319 10.8225 9.99571 10.9034 9.85171 10.9682C9.90806 10.9439 9.96441 10.9196 10.0192 10.8953C9.86266 10.9633 9.70144 11.0086 9.53238 11.0329C9.595 11.0248 9.65761 11.0151 9.72022 11.007C9.55586 11.028 9.38994 11.028 9.22402 11.007C9.28663 11.0151 9.34924 11.0248 9.41186 11.0329C9.24437 11.0086 9.08158 10.9633 8.92505 10.8953C8.9814 10.9196 9.03775 10.9439 9.09254 10.9682C8.94853 10.9034 8.81235 10.8225 8.68712 10.7238C8.73408 10.761 8.78261 10.7998 8.82957 10.8371C8.70591 10.7383 8.59477 10.625 8.49616 10.4988C8.39441 10.3677 8.15492 10.2787 7.99839 10.2851C7.82308 10.2932 7.61489 10.3515 7.50062 10.4988C7.40201 10.625 7.29244 10.7383 7.16878 10.8371C7.21574 10.7998 7.26426 10.761 7.31122 10.7238C7.186 10.8225 7.04982 10.9034 6.90581 10.9682C6.96216 10.9439 7.01851 10.9196 7.0733 10.8953C6.91677 10.9633 6.75554 11.0086 6.58649 11.0329C6.6491 11.0248 6.71171 11.0151 6.77433 11.007C6.60997 11.028 6.44405 11.028 6.27813 11.007C6.34074 11.0151 6.40335 11.0248 6.46596 11.0329C6.29847 11.0086 6.13568 10.9633 5.97915 10.8953C6.0355 10.9196 6.09185 10.9439 6.14664 10.9682C6.00263 10.9034 5.86645 10.8225 5.74123 10.7238C5.78819 10.761 5.83671 10.7998 5.88367 10.8371C5.76001 10.7383 5.64887 10.625 5.55183 10.4988C5.45008 10.3677 5.21059 10.2787 5.05406 10.2851C4.87875 10.2932 4.67056 10.3515 4.5563 10.4988C4.45768 10.625 4.34811 10.7383 4.22445 10.8371C4.27141 10.7998 4.31993 10.761 4.36689 10.7238C4.24167 10.8225 4.10549 10.9034 3.96148 10.9682C4.01783 10.9439 4.07418 10.9196 4.12897 10.8953C3.97244 10.9633 3.80965 11.0086 3.64216 11.0329C3.70477 11.0248 3.76738 11.0151 3.83 11.007C3.66094 11.0297 3.49033 11.028 3.32127 11.0054C3.38389 11.0135 3.4465 11.0232 3.50911 11.0313C3.34945 11.007 3.19448 10.9633 3.04578 10.9002C3.10213 10.9245 3.15848 10.9487 3.21327 10.973C3.05987 10.905 2.91743 10.8193 2.78594 10.7141C2.8329 10.7513 2.88142 10.7901 2.92838 10.8273C2.80629 10.727 2.69515 10.6137 2.59967 10.4875C2.63567 10.536 2.67324 10.5862 2.70924 10.6347C2.60906 10.5004 2.5261 10.3547 2.46036 10.1977C2.48384 10.256 2.50732 10.3143 2.5308 10.3709C2.46662 10.2107 2.42279 10.0424 2.39931 9.87078C2.40714 9.93553 2.41653 10.0003 2.42436 10.065C2.40401 9.89021 2.40401 9.7154 2.42592 9.5406C2.4181 9.60534 2.4087 9.67009 2.40088 9.73483C2.42436 9.56812 2.46662 9.40788 2.52923 9.2525C2.50575 9.31077 2.48227 9.36903 2.45879 9.42568C2.52297 9.26868 2.6075 9.1214 2.70768 8.98544C2.67167 9.03399 2.63411 9.08417 2.5981 9.13273C2.69515 9.00486 2.80629 8.88994 2.92995 8.78959C2.88299 8.82682 2.83447 8.86567 2.78751 8.90289C2.91899 8.7993 3.06143 8.7119 3.21327 8.64554C3.15692 8.66982 3.10057 8.6941 3.04578 8.71838C3.19605 8.65363 3.35101 8.60993 3.51224 8.58566C3.44963 8.59375 3.38702 8.60346 3.3244 8.61155C3.49189 8.58889 3.66251 8.59375 3.83156 8.59375C4.05227 8.59375 4.27298 8.59375 4.49525 8.59375C5.20589 8.59375 5.91811 8.59537 6.62875 8.59537C8.1831 8.59699 9.73744 8.5986 11.2933 8.5986C11.5641 8.5986 11.8365 8.5986 12.1073 8.5986C12.2967 8.5986 12.4892 8.59213 12.6786 8.61641C12.616 8.60832 12.5534 8.5986 12.4908 8.59051C12.652 8.61479 12.807 8.65849 12.9573 8.72161C12.9009 8.69734 12.8446 8.67306 12.7898 8.64878C12.9416 8.71514 13.084 8.80092 13.2155 8.90451C13.1686 8.86728 13.1201 8.82844 13.0731 8.79121C13.1968 8.89156 13.3079 9.00648 13.4049 9.13273C13.3689 9.08417 13.3314 9.03399 13.2954 8.98544C13.3955 9.1214 13.4801 9.26707 13.5442 9.42407C13.5208 9.3658 13.4973 9.30753 13.4738 9.25088C13.5364 9.40626 13.5787 9.5665 13.6022 9.73159C13.5943 9.66685 13.5849 9.60211 13.5771 9.53736C13.5849 9.62962 13.5912 9.71864 13.5912 9.80928C13.5928 9.99703 13.6695 10.1913 13.7978 10.324C13.9199 10.4502 14.1203 10.5457 14.2956 10.5376C14.4772 10.5295 14.6666 10.468 14.7934 10.324C14.9201 10.1815 15.0015 10.0051 15 9.80928C14.9968 9.36903 14.892 8.94659 14.6963 8.55652C14.51 8.18264 14.2299 7.88482 13.9074 7.63719C13.6303 7.42192 13.2891 7.26816 12.9479 7.20341C12.699 7.15648 12.4564 7.14515 12.2044 7.14515C10.7674 7.14353 9.33046 7.14353 7.89352 7.14191C6.50196 7.14029 5.11041 7.13867 3.72042 7.13867C3.4465 7.13867 3.17257 7.15809 2.90647 7.23093C2.50888 7.34099 2.15356 7.55464 1.84676 7.83303C1.2723 8.3542 0.938887 9.19909 1.00933 9.98732C1.05002 10.4502 1.17681 10.9067 1.43822 11.2903C1.69493 11.6674 2.02677 11.9992 2.43375 12.1966C2.86421 12.4054 3.34162 12.522 3.81904 12.4621C4.04914 12.4346 4.26828 12.3957 4.48273 12.3067C4.69561 12.2177 4.8944 12.1222 5.07911 11.9798C5.25442 11.8438 5.41721 11.7046 5.55496 11.5282C5.22311 11.5282 4.89127 11.5282 4.55943 11.5282C4.73317 11.7515 4.95388 11.9409 5.18868 12.0898C5.42191 12.2387 5.6927 12.3536 5.96194 12.4119C6.58649 12.5446 7.22826 12.4588 7.78864 12.1384C8.05631 11.9862 8.30832 11.7742 8.49929 11.5282C8.16744 11.5282 7.8356 11.5282 7.50376 11.5282C7.6775 11.7515 7.89821 11.9409 8.13301 12.0898C8.3678 12.2387 8.63703 12.3536 8.90626 12.4119C9.53082 12.5446 10.1726 12.4588 10.733 12.14C11.0006 11.9878 11.2527 11.7758 11.4436 11.5298C11.1118 11.5298 10.7799 11.5298 10.4481 11.5298C10.9365 12.1578 11.7598 12.5268 12.5362 12.4767C12.9713 12.4491 13.4018 12.3245 13.7743 12.0833C14.1265 11.8535 14.4255 11.5427 14.64 11.1737C14.8763 10.7658 14.9968 10.2868 15 9.81252C15.0015 9.62638 14.9201 9.42892 14.7934 9.29782C14.6713 9.17157 14.4709 9.07608 14.2956 9.08417C13.9121 9.09874 13.5943 9.40141 13.5912 9.80928Z" fill="#4E5D78"/>
<path d="M8.33642 5.65423C8.33642 6.30165 8.33642 6.95069 8.33642 7.59811C8.33642 7.68874 8.33642 7.77938 8.33642 7.8684C8.57122 7.62562 8.80601 7.38284 9.04081 7.14006C8.35208 7.14006 7.66334 7.13844 6.97461 7.13844C7.20941 7.38122 7.4442 7.624 7.679 7.86679C7.679 7.21613 7.679 6.56547 7.679 5.9132C7.679 5.81284 7.67274 5.70926 7.68213 5.60891C7.6743 5.67365 7.66491 5.73839 7.65708 5.80313C7.66178 5.774 7.66804 5.74648 7.67743 5.71897C7.65395 5.77724 7.63047 5.8355 7.60699 5.89215C7.62108 5.85816 7.63673 5.82903 7.65708 5.7999C7.62108 5.84845 7.58351 5.89863 7.54751 5.94718C7.56473 5.92614 7.58351 5.90672 7.60543 5.8873C7.55847 5.92453 7.50994 5.96337 7.46299 6.0006C7.49116 5.97956 7.51934 5.96175 7.55221 5.9488C7.49586 5.97308 7.43951 5.99736 7.38472 6.02164C7.41133 6.01193 7.43794 6.00545 7.46612 6.0006C7.4035 6.00869 7.34089 6.0184 7.27828 6.02649C7.44264 6.01031 7.61482 6.02326 7.77918 6.02326C8.03275 6.02326 8.28633 6.02326 8.53835 6.02326C8.60565 6.02326 8.67453 6.02002 8.74184 6.02649C8.67922 6.0184 8.61661 6.00869 8.554 6.0006C8.58217 6.00545 8.60879 6.01193 8.6354 6.02164C8.57904 5.99736 8.52269 5.97308 8.46791 5.9488C8.50078 5.96337 8.52895 5.97956 8.55713 6.0006C8.51017 5.96337 8.46165 5.92453 8.41469 5.8873C8.43504 5.9051 8.45382 5.92452 8.4726 5.94718C8.4366 5.89863 8.39903 5.84845 8.36303 5.7999C8.38338 5.82903 8.4006 5.85816 8.41312 5.89215C8.38964 5.83389 8.36616 5.77562 8.34268 5.71897C8.35208 5.74648 8.35834 5.774 8.36303 5.80313C8.35521 5.73839 8.34581 5.67365 8.33799 5.60891C8.33486 5.62347 8.33642 5.63804 8.33642 5.65423C8.34268 5.84522 8.41156 6.03297 8.54304 6.16893C8.66514 6.29517 8.86549 6.39067 9.04081 6.38257C9.22238 6.37448 9.41178 6.31298 9.53857 6.16893C9.66223 6.02973 9.75145 5.84845 9.74519 5.65423C9.73424 5.27387 9.55892 4.94045 9.24899 4.73327C9.08307 4.62159 8.87958 4.57142 8.68392 4.5698C8.55556 4.56818 8.42565 4.5698 8.29729 4.5698C7.97484 4.5698 7.65239 4.56656 7.32994 4.5698C6.74451 4.57627 6.28588 5.05051 6.27023 5.65423C6.26866 5.72382 6.27023 5.79342 6.27023 5.8614C6.27023 6.24014 6.27023 6.6205 6.27023 6.99924C6.27023 7.28734 6.27023 7.57706 6.27023 7.86517C6.27023 8.25847 6.59268 8.59352 6.97461 8.59352C7.66334 8.59352 8.35208 8.59513 9.04081 8.59513C9.42118 8.59513 9.74519 8.26171 9.74519 7.86679C9.74519 7.21937 9.74519 6.57033 9.74519 5.92291C9.74519 5.83227 9.74519 5.74163 9.74519 5.65261C9.74519 5.46648 9.66693 5.26901 9.53857 5.13791C9.41648 5.01166 9.21612 4.91617 9.04081 4.92426C8.85923 4.93235 8.66983 4.99386 8.54304 5.13791C8.41625 5.28196 8.33642 5.45676 8.33642 5.65423Z" fill="white"/>
<path d="M8.33642 5.65423C8.33642 6.30165 8.33642 6.95069 8.33642 7.59811C8.33642 7.68874 8.33642 7.77938 8.33642 7.8684C8.57122 7.62562 8.80601 7.38284 9.04081 7.14006C8.35208 7.14006 7.66334 7.13844 6.97461 7.13844C7.20941 7.38122 7.4442 7.624 7.679 7.86679C7.679 7.21613 7.679 6.56547 7.679 5.9132C7.679 5.81284 7.67274 5.70926 7.68213 5.60891C7.6743 5.67365 7.66491 5.73839 7.65708 5.80313C7.66178 5.774 7.66804 5.74648 7.67743 5.71897C7.65395 5.77724 7.63047 5.8355 7.60699 5.89215C7.62108 5.85816 7.63673 5.82903 7.65708 5.7999C7.62108 5.84845 7.58351 5.89863 7.54751 5.94718C7.56473 5.92614 7.58351 5.90672 7.60543 5.8873C7.55847 5.92453 7.50994 5.96337 7.46299 6.0006C7.49116 5.97956 7.51934 5.96175 7.55221 5.9488C7.49586 5.97308 7.43951 5.99736 7.38472 6.02164C7.41133 6.01193 7.43794 6.00545 7.46612 6.0006C7.4035 6.00869 7.34089 6.0184 7.27828 6.02649C7.44264 6.01031 7.61482 6.02326 7.77918 6.02326C8.03275 6.02326 8.28633 6.02326 8.53835 6.02326C8.60565 6.02326 8.67453 6.02002 8.74184 6.02649C8.67922 6.0184 8.61661 6.00869 8.554 6.0006C8.58217 6.00545 8.60879 6.01193 8.6354 6.02164C8.57904 5.99736 8.52269 5.97308 8.46791 5.9488C8.50078 5.96337 8.52895 5.97956 8.55713 6.0006C8.51017 5.96337 8.46165 5.92453 8.41469 5.8873C8.43504 5.9051 8.45382 5.92452 8.4726 5.94718C8.4366 5.89863 8.39903 5.84845 8.36303 5.7999C8.38338 5.82903 8.4006 5.85816 8.41312 5.89215C8.38964 5.83389 8.36616 5.77562 8.34268 5.71897C8.35208 5.74648 8.35834 5.774 8.36303 5.80313C8.35521 5.73839 8.34581 5.67365 8.33799 5.60891C8.33486 5.62347 8.33642 5.63804 8.33642 5.65423C8.34268 5.84522 8.41156 6.03297 8.54304 6.16893C8.66514 6.29517 8.86549 6.39067 9.04081 6.38257C9.22238 6.37448 9.41178 6.31298 9.53857 6.16893C9.66223 6.02973 9.75145 5.84845 9.74519 5.65423C9.73424 5.27387 9.55892 4.94045 9.24899 4.73327C9.08307 4.62159 8.87958 4.57142 8.68392 4.5698C8.55556 4.56818 8.42565 4.5698 8.29729 4.5698C7.97484 4.5698 7.65239 4.56656 7.32994 4.5698C6.74451 4.57627 6.28588 5.05051 6.27023 5.65423C6.26866 5.72382 6.27023 5.79342 6.27023 5.8614C6.27023 6.24014 6.27023 6.6205 6.27023 6.99924C6.27023 7.28734 6.27023 7.57706 6.27023 7.86517C6.27023 8.25847 6.59268 8.59352 6.97461 8.59352C7.66334 8.59352 8.35208 8.59513 9.04081 8.59513C9.42118 8.59513 9.74519 8.26171 9.74519 7.86679C9.74519 7.21937 9.74519 6.57033 9.74519 5.92291C9.74519 5.83227 9.74519 5.74163 9.74519 5.65261C9.74519 5.46648 9.66693 5.26901 9.53857 5.13791C9.41648 5.01166 9.21612 4.91617 9.04081 4.92426C8.85923 4.93235 8.66983 4.99386 8.54304 5.13791C8.41625 5.28196 8.33642 5.45676 8.33642 5.65423Z" fill="#4E5D78"/>
<path d="M8.33773 2.49985C8.33773 2.54517 8.3346 2.59049 8.3299 2.63419C8.33773 2.56945 8.34712 2.50471 8.35494 2.43997C8.34242 2.53384 8.31894 2.6261 8.28607 2.7135C8.30955 2.65523 8.33303 2.59696 8.35651 2.54031C8.32207 2.6261 8.27668 2.70541 8.22346 2.77986C8.25946 2.7313 8.29703 2.68113 8.33303 2.63257C8.27355 2.71188 8.20624 2.78148 8.13111 2.84137C8.17807 2.80414 8.22659 2.76529 8.27355 2.72807C8.20155 2.7831 8.12485 2.82842 8.04189 2.86564C8.09824 2.84137 8.15459 2.81709 8.20937 2.79281C8.12328 2.82842 8.03562 2.8527 7.94484 2.86403C8.00745 2.85593 8.07006 2.84622 8.13267 2.83813C8.04502 2.84784 7.95892 2.84784 7.87127 2.83813C7.93388 2.84622 7.99649 2.85593 8.0591 2.86403C7.96832 2.85108 7.87909 2.8268 7.79457 2.79281C7.85092 2.81709 7.90727 2.84137 7.96206 2.86564C7.87909 2.83004 7.80239 2.7831 7.73039 2.72807C7.77735 2.76529 7.82587 2.80414 7.87283 2.84137C7.79613 2.77986 7.72883 2.71026 7.67091 2.63257C7.70691 2.68113 7.74448 2.7313 7.78048 2.77986C7.72726 2.70541 7.68343 2.6261 7.64743 2.54031C7.67091 2.59858 7.69439 2.65685 7.71787 2.7135C7.68343 2.62448 7.65995 2.53384 7.649 2.43997C7.65682 2.50471 7.66621 2.56945 7.67404 2.63419C7.66621 2.56459 7.66308 2.495 7.67091 2.42378C7.66308 2.48852 7.65369 2.55326 7.64586 2.61801C7.65995 2.52089 7.68969 2.42702 7.72569 2.33476C7.70222 2.39303 7.67874 2.45129 7.65526 2.50794C7.793 2.1729 8.00275 1.87024 8.21563 1.58213C8.17963 1.63069 8.14206 1.68086 8.10606 1.72942C8.23129 1.56109 8.36277 1.396 8.50052 1.23738C8.16867 1.23738 7.83683 1.23738 7.50499 1.23738C7.6443 1.39438 7.77422 1.56109 7.89944 1.72942C7.86344 1.68086 7.82587 1.63069 7.78987 1.58213C8.00275 1.86862 8.21407 2.17129 8.35025 2.50794C8.32677 2.44968 8.30329 2.39141 8.27981 2.33476C8.31581 2.4254 8.34712 2.51927 8.35964 2.61801C8.35182 2.55326 8.34242 2.48852 8.3346 2.42378C8.3346 2.44968 8.33616 2.47395 8.33773 2.49985C8.33929 2.6876 8.41443 2.88183 8.54435 3.01455C8.66644 3.1408 8.8668 3.23629 9.04211 3.2282C9.22369 3.22011 9.41309 3.1586 9.53988 3.01455C9.6651 2.87374 9.74806 2.6957 9.7465 2.49985C9.7418 2.06122 9.53205 1.64526 9.30665 1.28594C9.10472 0.965466 8.87462 0.662796 8.6367 0.371457C8.59287 0.316427 8.54748 0.263014 8.50052 0.211221C8.2532 -0.0704069 7.7523 -0.0704069 7.50499 0.211221C7.36568 0.36822 7.23576 0.534931 7.11053 0.70326C6.81469 1.09819 6.54702 1.49149 6.36545 1.95764C6.28718 2.15996 6.24336 2.38493 6.26214 2.60344C6.27779 2.775 6.29971 2.94333 6.36075 3.10357C6.44528 3.32531 6.53763 3.48717 6.68164 3.6733C6.88356 3.93551 7.17471 4.11355 7.47994 4.22199C7.63178 4.2754 7.80083 4.29806 7.96049 4.30453C8.12954 4.31101 8.30642 4.28673 8.46765 4.24141C9.21899 4.02776 9.74024 3.30265 9.74806 2.50147C9.74963 2.31534 9.66823 2.11787 9.54144 1.98677C9.41935 1.86052 9.21899 1.76503 9.04368 1.77312C8.65705 1.78931 8.34086 2.09036 8.33773 2.49985Z" fill="white"/>
<path d="M8.33773 2.49985C8.33773 2.54517 8.3346 2.59049 8.3299 2.63419C8.33773 2.56945 8.34712 2.50471 8.35494 2.43997C8.34242 2.53384 8.31894 2.6261 8.28607 2.7135C8.30955 2.65523 8.33303 2.59696 8.35651 2.54031C8.32207 2.6261 8.27668 2.70541 8.22346 2.77986C8.25946 2.7313 8.29703 2.68113 8.33303 2.63257C8.27355 2.71188 8.20624 2.78148 8.13111 2.84137C8.17807 2.80414 8.22659 2.76529 8.27355 2.72807C8.20155 2.7831 8.12485 2.82842 8.04189 2.86564C8.09824 2.84137 8.15459 2.81709 8.20937 2.79281C8.12328 2.82842 8.03562 2.8527 7.94484 2.86403C8.00745 2.85593 8.07006 2.84622 8.13267 2.83813C8.04502 2.84784 7.95892 2.84784 7.87127 2.83813C7.93388 2.84622 7.99649 2.85593 8.0591 2.86403C7.96832 2.85108 7.87909 2.8268 7.79457 2.79281C7.85092 2.81709 7.90727 2.84137 7.96206 2.86564C7.87909 2.83004 7.80239 2.7831 7.73039 2.72807C7.77735 2.76529 7.82587 2.80414 7.87283 2.84137C7.79613 2.77986 7.72883 2.71026 7.67091 2.63257C7.70691 2.68113 7.74448 2.7313 7.78048 2.77986C7.72726 2.70541 7.68343 2.6261 7.64743 2.54031C7.67091 2.59858 7.69439 2.65685 7.71787 2.7135C7.68343 2.62448 7.65995 2.53384 7.649 2.43997C7.65682 2.50471 7.66621 2.56945 7.67404 2.63419C7.66621 2.56459 7.66308 2.495 7.67091 2.42378C7.66308 2.48852 7.65369 2.55326 7.64586 2.61801C7.65995 2.52089 7.68969 2.42702 7.72569 2.33476C7.70222 2.39303 7.67874 2.45129 7.65526 2.50794C7.793 2.1729 8.00275 1.87024 8.21563 1.58213C8.17963 1.63069 8.14206 1.68086 8.10606 1.72942C8.23129 1.56109 8.36277 1.396 8.50052 1.23738C8.16867 1.23738 7.83683 1.23738 7.50499 1.23738C7.6443 1.39438 7.77422 1.56109 7.89944 1.72942C7.86344 1.68086 7.82587 1.63069 7.78987 1.58213C8.00275 1.86862 8.21407 2.17129 8.35025 2.50794C8.32677 2.44968 8.30329 2.39141 8.27981 2.33476C8.31581 2.4254 8.34712 2.51927 8.35964 2.61801C8.35182 2.55326 8.34242 2.48852 8.3346 2.42378C8.3346 2.44968 8.33616 2.47395 8.33773 2.49985C8.33929 2.6876 8.41443 2.88183 8.54435 3.01455C8.66644 3.1408 8.8668 3.23629 9.04211 3.2282C9.22369 3.22011 9.41309 3.1586 9.53988 3.01455C9.6651 2.87374 9.74806 2.6957 9.7465 2.49985C9.7418 2.06122 9.53205 1.64526 9.30665 1.28594C9.10472 0.965466 8.87462 0.662796 8.6367 0.371457C8.59287 0.316427 8.54748 0.263014 8.50052 0.211221C8.2532 -0.0704069 7.7523 -0.0704069 7.50499 0.211221C7.36568 0.36822 7.23576 0.534931 7.11053 0.70326C6.81469 1.09819 6.54702 1.49149 6.36545 1.95764C6.28718 2.15996 6.24336 2.38493 6.26214 2.60344C6.27779 2.775 6.29971 2.94333 6.36075 3.10357C6.44528 3.32531 6.53763 3.48717 6.68164 3.6733C6.88356 3.93551 7.17471 4.11355 7.47994 4.22199C7.63178 4.2754 7.80083 4.29806 7.96049 4.30453C8.12954 4.31101 8.30642 4.28673 8.46765 4.24141C9.21899 4.02776 9.74024 3.30265 9.74806 2.50147C9.74963 2.31534 9.66823 2.11787 9.54144 1.98677C9.41935 1.86052 9.21899 1.76503 9.04368 1.77312C8.65705 1.78931 8.34086 2.09036 8.33773 2.49985Z" fill="#4E5D78"/>
</svg>
