<svg width="14" height="16" viewBox="0 0 14 16" fill="none" xmlns="http://www.w3.org/2000/svg">
<path d="M14 9.6527C14 10.1438 13.7531 10.6018 13.3231 10.9089C13.0022 11.1389 12.6134 11.2602 12.1999 11.2602C11.6485 11.2602 11.1342 11.0377 10.7885 10.6496L10.4676 10.2854L10.1446 10.6496C9.80103 11.0377 9.2867 11.2584 8.73328 11.2584C8.17987 11.2584 7.66554 11.0359 7.32197 10.6478L7.00103 10.2854L6.67803 10.6496C6.33446 11.0377 5.82013 11.2602 5.26672 11.2602C4.7133 11.2602 4.19897 11.0377 3.8554 10.6496L3.53446 10.2854L3.21146 10.6496C2.86789 11.0377 2.35356 11.2602 1.80015 11.2602C1.38663 11.2602 0.997796 11.1389 0.676855 10.9089C0.246877 10.6018 0 10.1438 0 9.6527C0 8.76616 0.806466 8.04332 1.80015 8.04332C1.98942 8.04332 2.7856 8.04332 3.85951 8.04516L5.48273 8.047V4.9294C5.48273 4.67926 5.71109 4.4751 5.99089 4.4751H8.02351C8.30331 4.4751 8.53167 4.67926 8.53167 4.9294V8.047C10.3688 8.04884 11.9221 8.04884 12.1999 8.04884C13.1935 8.04884 14 8.768 14 9.6527Z" fill="white"/>
<path d="M14 9.6527C14 10.1438 13.7531 10.6018 13.3231 10.9089C13.0022 11.1389 12.6134 11.2602 12.1999 11.2602C11.6485 11.2602 11.1342 11.0377 10.7885 10.6496L10.4676 10.2854L10.1446 10.6496C9.80103 11.0377 9.2867 11.2584 8.73328 11.2584C8.17987 11.2584 7.66554 11.0359 7.32197 10.6478L7.00103 10.2854L6.67803 10.6496C6.33446 11.0377 5.82013 11.2602 5.26672 11.2602C4.7133 11.2602 4.19897 11.0377 3.8554 10.6496L3.53446 10.2854L3.21146 10.6496C2.86789 11.0377 2.35356 11.2602 1.80015 11.2602C1.38663 11.2602 0.997796 11.1389 0.676855 10.9089C0.246877 10.6018 0 10.1438 0 9.6527C0 8.76616 0.806466 8.04332 1.80015 8.04332C1.98942 8.04332 2.7856 8.04332 3.85951 8.04516L5.48273 8.047V4.9294C5.48273 4.67926 5.71109 4.4751 5.99089 4.4751H8.02351C8.30331 4.4751 8.53167 4.67926 8.53167 4.9294V8.047C10.3688 8.04884 11.9221 8.04884 12.1999 8.04884C13.1935 8.04884 14 8.768 14 9.6527Z" fill="#4E5D78"/>
<path d="M13.897 11.4404V15.4133C13.897 15.737 13.6028 16.0001 13.2407 16.0001H0.775423C0.413336 16.0001 0.119141 15.737 0.119141 15.4133V11.4478C0.133542 11.4588 0.147943 11.4699 0.164401 11.4809C0.248751 11.5416 0.337216 11.5968 0.427737 11.6464C0.839199 11.8727 1.31444 11.9941 1.79996 11.9941C2.44802 11.9941 3.05904 11.7844 3.53428 11.4092C4.00952 11.7844 4.62054 11.9941 5.26859 11.9941C5.91664 11.9941 6.52766 11.7844 7.0029 11.4092C7.47814 11.7844 8.08916 11.9941 8.73722 11.9941C9.38527 11.9941 9.99629 11.7844 10.4715 11.4092C10.9468 11.7844 11.5578 11.9941 12.2058 11.9941C12.6975 11.9941 13.1789 11.869 13.5925 11.6391C13.6789 11.5913 13.7632 11.5379 13.8414 11.4809C13.8579 11.4699 13.8764 11.4552 13.897 11.4404Z" fill="white"/>
<path d="M13.897 11.4404V15.4133C13.897 15.737 13.6028 16.0001 13.2407 16.0001H0.775423C0.413336 16.0001 0.119141 15.737 0.119141 15.4133V11.4478C0.133542 11.4588 0.147943 11.4699 0.164401 11.4809C0.248751 11.5416 0.337216 11.5968 0.427737 11.6464C0.839199 11.8727 1.31444 11.9941 1.79996 11.9941C2.44802 11.9941 3.05904 11.7844 3.53428 11.4092C4.00952 11.7844 4.62054 11.9941 5.26859 11.9941C5.91664 11.9941 6.52766 11.7844 7.0029 11.4092C7.47814 11.7844 8.08916 11.9941 8.73722 11.9941C9.38527 11.9941 9.99629 11.7844 10.4715 11.4092C10.9468 11.7844 11.5578 11.9941 12.2058 11.9941C12.6975 11.9941 13.1789 11.869 13.5925 11.6391C13.6789 11.5913 13.7632 11.5379 13.8414 11.4809C13.8579 11.4699 13.8764 11.4552 13.897 11.4404Z" fill="#4E5D78"/>
<path d="M5.27246 2.45178V2.4481C5.29303 1.25624 6.74344 0.189447 6.80721 0.143465L7.00677 0L7.20222 0.147143C7.21868 0.160018 7.60957 0.457984 7.99223 0.879181C8.52713 1.47143 8.77606 2.00299 8.7308 2.46465C8.72257 3.31073 7.95108 3.99678 7.00266 3.99678C6.04807 3.99678 5.27246 3.30337 5.27246 2.45178Z" fill="white"/>
<path d="M5.27246 2.45178V2.4481C5.29303 1.25624 6.74344 0.189447 6.80721 0.143465L7.00677 0L7.20222 0.147143C7.21868 0.160018 7.60957 0.457984 7.99223 0.879181C8.52713 1.47143 8.77606 2.00299 8.7308 2.46465C8.72257 3.31073 7.95108 3.99678 7.00266 3.99678C6.04807 3.99678 5.27246 3.30337 5.27246 2.45178Z" fill="#4E5D78"/>
</svg>
