<svg width="16" height="16" viewBox="0 0 16 16" fill="none" xmlns="http://www.w3.org/2000/svg">
<path d="M8 0C3.584 0 0 3.584 0 8C0 12.416 3.584 16 8 16C12.416 16 16 12.416 16 8C16 3.584 12.416 0 8 0ZM1.6 8C1.6 4.464 4.464 1.6 8 1.6C9.48 1.6 10.84 2.104 11.92 2.952L2.952 11.92C2.104 10.84 1.6 9.48 1.6 8ZM8 14.4C6.52 14.4 5.16 13.896 4.08 13.048L13.048 4.08C13.896 5.16 14.4 6.52 14.4 8C14.4 11.536 11.536 14.4 8 14.4Z" fill="white"/>
<path d="M8 0C3.584 0 0 3.584 0 8C0 12.416 3.584 16 8 16C12.416 16 16 12.416 16 8C16 3.584 12.416 0 8 0ZM1.6 8C1.6 4.464 4.464 1.6 8 1.6C9.48 1.6 10.84 2.104 11.92 2.952L2.952 11.92C2.104 10.84 1.6 9.48 1.6 8ZM8 14.4C6.52 14.4 5.16 13.896 4.08 13.048L13.048 4.08C13.896 5.16 14.4 6.52 14.4 8C14.4 11.536 11.536 14.4 8 14.4Z" fill="#4E5D78"/>
</svg>
