<svg width="16" height="10" viewBox="0 0 16 10" fill="none" xmlns="http://www.w3.org/2000/svg">
<path fill-rule="evenodd" clip-rule="evenodd" d="M8.79982 9.44238C8.79982 9.79838 9.16322 10.0467 9.50158 9.93601C10.5378 9.59698 12.6682 9.00669 15.5336 8.76608C15.7956 8.74408 15.9998 8.53062 15.9998 8.26773C15.9998 6.7657 15.9998 2.03884 15.9998 0.491261C15.9998 0.215118 15.7769 -0.0024061 15.5011 0.0116152C14.4332 0.0659113 11.8027 0.301936 9.11371 1.32793C8.92333 1.40057 8.79982 1.58032 8.79982 1.78408C8.79982 3.05689 8.79982 7.63281 8.79982 9.44238Z" fill="white"/>
<path fill-rule="evenodd" clip-rule="evenodd" d="M8.79982 9.44238C8.79982 9.79838 9.16322 10.0467 9.50158 9.93601C10.5378 9.59698 12.6682 9.00669 15.5336 8.76608C15.7956 8.74408 15.9998 8.53062 15.9998 8.26773C15.9998 6.7657 15.9998 2.03884 15.9998 0.491261C15.9998 0.215118 15.7769 -0.0024061 15.5011 0.0116152C14.4332 0.0659113 11.8027 0.301936 9.11371 1.32793C8.92333 1.40057 8.79982 1.58032 8.79982 1.78408C8.79982 3.05689 8.79982 7.63281 8.79982 9.44238Z" fill="#4E5D78"/>
<g opacity="0.3">
<path fill-rule="evenodd" clip-rule="evenodd" d="M7.20018 9.44238C7.20018 9.79838 6.83678 10.0467 6.49842 9.93601C5.46219 9.59698 3.3318 9.00669 0.466362 8.76608C0.204396 8.74408 0.000199854 8.53062 0.000199854 8.26773C0.000199854 6.7657 0.000199854 2.03884 0.000199854 0.491261C0.000199854 0.215118 0.223088 -0.0024061 0.498875 0.0116152C1.56683 0.0659113 4.19731 0.301936 6.88629 1.32793C7.07667 1.40057 7.20018 1.58032 7.20018 1.78408C7.20018 3.05689 7.20018 7.63281 7.20018 9.44238Z" fill="white"/>
<path fill-rule="evenodd" clip-rule="evenodd" d="M7.20018 9.44238C7.20018 9.79838 6.83678 10.0467 6.49842 9.93601C5.46219 9.59698 3.3318 9.00669 0.466362 8.76608C0.204396 8.74408 0.000199854 8.53062 0.000199854 8.26773C0.000199854 6.7657 0.000199854 2.03884 0.000199854 0.491261C0.000199854 0.215118 0.223088 -0.0024061 0.498875 0.0116152C1.56683 0.0659113 4.19731 0.301936 6.88629 1.32793C7.07667 1.40057 7.20018 1.58032 7.20018 1.78408C7.20018 3.05689 7.20018 7.63281 7.20018 9.44238Z" fill="#4E5D78"/>
</g>
</svg>
