<svg width="16" height="14" viewBox="0 0 16 14" fill="none" xmlns="http://www.w3.org/2000/svg">
<path fill-rule="evenodd" clip-rule="evenodd" d="M5.3226 0.413115C5.48769 0.154906 5.76442 0 6.06061 0H9.93939C10.2356 0 10.5123 0.154906 10.6774 0.413115L11.7062 2.02222H13.8182C14.3948 2.02222 14.9491 2.26102 15.3588 2.68816C15.7686 3.11551 16 3.69651 16 4.3037V11.7185C16 12.3257 15.7686 12.9067 15.3588 13.3341C14.9491 13.7612 14.3948 14 13.8182 14H2.18182C1.60515 14 1.05087 13.7612 0.641234 13.3341C0.231386 12.9067 0 12.3257 0 11.7185V4.3037C0 3.69651 0.231385 3.11551 0.641234 2.68816C1.05087 2.26102 1.60516 2.02222 2.18182 2.02222H4.2938L5.3226 0.413115ZM6.53449 1.86667L5.50569 3.47577C5.3406 3.73398 5.06387 3.88889 4.76768 3.88889H2.18182C2.07267 3.88889 1.96923 3.93416 1.89392 4.01268C1.81883 4.09098 1.77778 4.19579 1.77778 4.3037V11.7185C1.77778 11.8264 1.81883 11.9312 1.89392 12.0095C1.96923 12.0881 2.07267 12.1333 2.18182 12.1333H13.8182C13.9273 12.1333 14.0308 12.0881 14.1061 12.0095C14.1812 11.9312 14.2222 11.8264 14.2222 11.7185V4.3037C14.2222 4.1958 14.1812 4.09098 14.1061 4.01268C14.0308 3.93416 13.9273 3.88889 13.8182 3.88889H11.2323C10.9361 3.88889 10.6594 3.73398 10.4943 3.47577L9.46552 1.86667H6.53449Z" fill="white"/>
<path fill-rule="evenodd" clip-rule="evenodd" d="M5.3226 0.413115C5.48769 0.154906 5.76442 0 6.06061 0H9.93939C10.2356 0 10.5123 0.154906 10.6774 0.413115L11.7062 2.02222H13.8182C14.3948 2.02222 14.9491 2.26102 15.3588 2.68816C15.7686 3.11551 16 3.69651 16 4.3037V11.7185C16 12.3257 15.7686 12.9067 15.3588 13.3341C14.9491 13.7612 14.3948 14 13.8182 14H2.18182C1.60515 14 1.05087 13.7612 0.641234 13.3341C0.231386 12.9067 0 12.3257 0 11.7185V4.3037C0 3.69651 0.231385 3.11551 0.641234 2.68816C1.05087 2.26102 1.60516 2.02222 2.18182 2.02222H4.2938L5.3226 0.413115ZM6.53449 1.86667L5.50569 3.47577C5.3406 3.73398 5.06387 3.88889 4.76768 3.88889H2.18182C2.07267 3.88889 1.96923 3.93416 1.89392 4.01268C1.81883 4.09098 1.77778 4.19579 1.77778 4.3037V11.7185C1.77778 11.8264 1.81883 11.9312 1.89392 12.0095C1.96923 12.0881 2.07267 12.1333 2.18182 12.1333H13.8182C13.9273 12.1333 14.0308 12.0881 14.1061 12.0095C14.1812 11.9312 14.2222 11.8264 14.2222 11.7185V4.3037C14.2222 4.1958 14.1812 4.09098 14.1061 4.01268C14.0308 3.93416 13.9273 3.88889 13.8182 3.88889H11.2323C10.9361 3.88889 10.6594 3.73398 10.4943 3.47577L9.46552 1.86667H6.53449Z" fill="#4E5D78"/>
<path fill-rule="evenodd" clip-rule="evenodd" d="M8.00014 5.9111C7.05708 5.9111 6.30317 6.70653 6.30317 7.67406C6.30317 8.6416 7.05708 9.43703 8.00014 9.43703C8.9432 9.43703 9.69711 8.6416 9.69711 7.67406C9.69711 6.70653 8.9432 5.9111 8.00014 5.9111ZM4.52539 7.67406C4.52539 5.66335 6.08694 4.04443 8.00014 4.04443C9.91334 4.04443 11.4749 5.66335 11.4749 7.67406C11.4749 9.68477 9.91334 11.3037 8.00014 11.3037C6.08694 11.3037 4.52539 9.68477 4.52539 7.67406Z" fill="white"/>
<path fill-rule="evenodd" clip-rule="evenodd" d="M8.00014 5.9111C7.05708 5.9111 6.30317 6.70653 6.30317 7.67406C6.30317 8.6416 7.05708 9.43703 8.00014 9.43703C8.9432 9.43703 9.69711 8.6416 9.69711 7.67406C9.69711 6.70653 8.9432 5.9111 8.00014 5.9111ZM4.52539 7.67406C4.52539 5.66335 6.08694 4.04443 8.00014 4.04443C9.91334 4.04443 11.4749 5.66335 11.4749 7.67406C11.4749 9.68477 9.91334 11.3037 8.00014 11.3037C6.08694 11.3037 4.52539 9.68477 4.52539 7.67406Z" fill="#4E5D78"/>
</svg>
