<svg width="16" height="13" viewBox="0 0 16 13" fill="none" xmlns="http://www.w3.org/2000/svg">
<path fill-rule="evenodd" clip-rule="evenodd" d="M2 2.59961C0.895431 2.59961 0 3.49504 0 4.59961V10.9997C0 12.1043 0.895431 12.9997 2 12.9997H14C15.1046 12.9997 16 12.1043 16 10.9997V4.59961C16 3.49504 15.1046 2.59961 14 2.59961H2ZM4.44434 7.79989C4.44434 9.7145 6.03621 11.2666 7.99989 11.2666C9.96357 11.2666 11.5554 9.7145 11.5554 7.79989C11.5554 5.88528 9.96357 4.33318 7.99989 4.33318C6.03621 4.33318 4.44434 5.88528 4.44434 7.79989Z" fill="white"/>
<path fill-rule="evenodd" clip-rule="evenodd" d="M2 2.59961C0.895431 2.59961 0 3.49504 0 4.59961V10.9997C0 12.1043 0.895431 12.9997 2 12.9997H14C15.1046 12.9997 16 12.1043 16 10.9997V4.59961C16 3.49504 15.1046 2.59961 14 2.59961H2ZM4.44434 7.79989C4.44434 9.7145 6.03621 11.2666 7.99989 11.2666C9.96357 11.2666 11.5554 9.7145 11.5554 7.79989C11.5554 5.88528 9.96357 4.33318 7.99989 4.33318C6.03621 4.33318 4.44434 5.88528 4.44434 7.79989Z" fill="#4E5D78"/>
<rect x="5.33301" width="5.33333" height="1.73335" rx="0.866677" fill="white"/>
<rect x="5.33301" width="5.33333" height="1.73335" rx="0.866677" fill="#4E5D78"/>
<g opacity="0.3">
<path fill-rule="evenodd" clip-rule="evenodd" d="M8.00043 9.5336C8.98227 9.5336 9.77821 8.75755 9.77821 7.80025C9.77821 6.84294 8.98227 6.06689 8.00043 6.06689C7.01859 6.06689 6.22266 6.84294 6.22266 7.80025C6.22266 8.75755 7.01859 9.5336 8.00043 9.5336Z" fill="white"/>
<path fill-rule="evenodd" clip-rule="evenodd" d="M8.00043 9.5336C8.98227 9.5336 9.77821 8.75755 9.77821 7.80025C9.77821 6.84294 8.98227 6.06689 8.00043 6.06689C7.01859 6.06689 6.22266 6.84294 6.22266 7.80025C6.22266 8.75755 7.01859 9.5336 8.00043 9.5336Z" fill="#4E5D78"/>
</g>
</svg>
