<svg width="16" height="12" viewBox="0 0 16 12" fill="none" xmlns="http://www.w3.org/2000/svg">
<path d="M14.1206 0.352371C14.5021 -0.0684348 15.1753 -0.119605 15.6241 0.23808C16.073 0.595766 16.1276 1.22686 15.746 1.64766L6.6794 11.6476C6.29188 12.075 5.60523 12.1201 5.15801 11.7474L0.358023 7.74741C-0.0822778 7.38049 -0.121938 6.74842 0.269441 6.33564C0.660819 5.92286 1.33503 5.88568 1.77533 6.25259L5.76023 9.57334L14.1206 0.352371Z" fill="white"/>
<path d="M14.1206 0.352371C14.5021 -0.0684348 15.1753 -0.119605 15.6241 0.23808C16.073 0.595766 16.1276 1.22686 15.746 1.64766L6.6794 11.6476C6.29188 12.075 5.60523 12.1201 5.15801 11.7474L0.358023 7.74741C-0.0822778 7.38049 -0.121938 6.74842 0.269441 6.33564C0.660819 5.92286 1.33503 5.88568 1.77533 6.25259L5.76023 9.57334L14.1206 0.352371Z" fill="#4E5D78"/>
</svg>
