<svg width="16" height="16" viewBox="0 0 16 16" fill="none" xmlns="http://www.w3.org/2000/svg">
<path d="M8 0C12.4184 0 16 3.5816 16 8C16 12.4184 12.4184 16 8 16C3.5816 16 0 12.4184 0 8H1.6C1.6 11.5344 4.4656 14.4 8 14.4C11.5344 14.4 14.4 11.5344 14.4 8C14.4 4.4656 11.5344 1.6 8 1.6C5.8 1.6 3.8592 2.7096 2.708 4.4H4.8V6H0V1.2H1.6V3.2C3.0592 1.256 5.3832 0 8 0ZM8.8 4V7.668L11.3944 10.2624L10.2624 11.3944L7.2 8.3304V4H8.8Z" fill="white"/>
<path d="M8 0C12.4184 0 16 3.5816 16 8C16 12.4184 12.4184 16 8 16C3.5816 16 0 12.4184 0 8H1.6C1.6 11.5344 4.4656 14.4 8 14.4C11.5344 14.4 14.4 11.5344 14.4 8C14.4 4.4656 11.5344 1.6 8 1.6C5.8 1.6 3.8592 2.7096 2.708 4.4H4.8V6H0V1.2H1.6V3.2C3.0592 1.256 5.3832 0 8 0ZM8.8 4V7.668L11.3944 10.2624L10.2624 11.3944L7.2 8.3304V4H8.8Z" fill="#4E5D78"/>
</svg>
