<svg width="16" height="16" viewBox="0 0 16 16" fill="none" xmlns="http://www.w3.org/2000/svg">
<path fill-rule="evenodd" clip-rule="evenodd" d="M1.01772 10.2445C1.66935 9.57647 2.55316 9.20117 3.47471 9.20117H8.64638C9.56793 9.20117 10.4517 9.57647 11.1034 10.2445C11.755 10.9125 12.1211 11.8186 12.1211 12.7633V14.0887C12.1211 14.592 11.8 15 11.3091 15C10.8181 15 10.497 14.592 10.497 14.0887V12.5C10.497 12.0386 10.3182 11.5961 10 11.2699C9.68176 10.9436 9.25013 10.7604 8.80007 10.7604H3.19993C2.74987 10.7604 2.31824 10.9436 2 11.2699C1.68176 11.5961 1.50297 12.0386 1.50297 12.5V14.0887C1.50297 14.592 1.2424 15 0.751487 15C0.260572 15 0 14.592 0 14.0887V12.7633C0 11.8186 0.366085 10.9125 1.01772 10.2445Z" fill="white"/>
<path fill-rule="evenodd" clip-rule="evenodd" d="M1.01772 10.2445C1.66935 9.57647 2.55316 9.20117 3.47471 9.20117H8.64638C9.56793 9.20117 10.4517 9.57647 11.1034 10.2445C11.755 10.9125 12.1211 11.8186 12.1211 12.7633V14.0887C12.1211 14.592 11.8 15 11.3091 15C10.8181 15 10.497 14.592 10.497 14.0887V12.5C10.497 12.0386 10.3182 11.5961 10 11.2699C9.68176 10.9436 9.25013 10.7604 8.80007 10.7604H3.19993C2.74987 10.7604 2.31824 10.9436 2 11.2699C1.68176 11.5961 1.50297 12.0386 1.50297 12.5V14.0887C1.50297 14.592 1.2424 15 0.751487 15C0.260572 15 0 14.592 0 14.0887V12.7633C0 11.8186 0.366085 10.9125 1.01772 10.2445Z" fill="#4E5D78"/>
<path fill-rule="evenodd" clip-rule="evenodd" d="M6.06065 2.5C5 2.5 4 3 4 4.56213C4 6 5 6.5 6.06065 6.5C6.99785 6.5 8 6 8 4.56213C8 3 6.99785 2.5 6.06065 2.5ZM2.58594 4.56213C2.58594 2.59482 4.14162 1 6.06065 1C7.97968 1 9.53536 2.59482 9.53536 4.56213C9.53536 6.52944 7.97968 8.12426 6.06065 8.12426C4.14162 8.12426 2.58594 6.52944 2.58594 4.56213Z" fill="white"/>
<path fill-rule="evenodd" clip-rule="evenodd" d="M6.06065 2.5C5 2.5 4 3 4 4.56213C4 6 5 6.5 6.06065 6.5C6.99785 6.5 8 6 8 4.56213C8 3 6.99785 2.5 6.06065 2.5ZM2.58594 4.56213C2.58594 2.59482 4.14162 1 6.06065 1C7.97968 1 9.53536 2.59482 9.53536 4.56213C9.53536 6.52944 7.97968 8.12426 6.06065 8.12426C4.14162 8.12426 2.58594 6.52944 2.58594 4.56213Z" fill="#4E5D78"/>
<path fill-rule="evenodd" clip-rule="evenodd" d="M12.3115 10.1127C12.3115 9.5 12.9191 9.10456 13.3944 9.23037C14.1398 9.42769 14.8002 9.87321 15.2719 10.497C15.7436 11.1208 15.9999 11.8875 16.0004 12.6767V14.0029C16.0004 14.5061 15.7409 14.9141 15.25 14.9141C14.7591 14.9141 14.4995 14.5061 14.4995 14.0029L14.4999 12.6778C14.4995 12.2925 14.3744 11.9181 14.1441 11.6136C13.9137 11.3089 13.5912 11.0913 13.2271 10.995C12.7518 10.8692 12.312 10.5 12.3115 10.1127Z" fill="white"/>
<path fill-rule="evenodd" clip-rule="evenodd" d="M12.3115 10.1127C12.3115 9.5 12.9191 9.10456 13.3944 9.23037C14.1398 9.42769 14.8002 9.87321 15.2719 10.497C15.7436 11.1208 15.9999 11.8875 16.0004 12.6767V14.0029C16.0004 14.5061 15.7409 14.9141 15.25 14.9141C14.7591 14.9141 14.4995 14.5061 14.4995 14.0029L14.4999 12.6778C14.4995 12.2925 14.3744 11.9181 14.1441 11.6136C13.9137 11.3089 13.5912 11.0913 13.2271 10.995C12.7518 10.8692 12.312 10.5 12.3115 10.1127Z" fill="#4E5D78"/>
<path fill-rule="evenodd" clip-rule="evenodd" d="M9.72554 1.77138C9.8473 1.28384 10.3315 0.989804 10.8071 1.11463C11.5545 1.31082 12.217 1.75644 12.6901 2.38125C13.1632 3.00605 13.42 3.7745 13.42 4.56545C13.42 5.35639 13.1632 6.12484 12.6901 6.74965C12.217 7.37445 11.5545 7.82007 10.8071 8.01626C10.3315 8.14109 9.8473 7.84706 9.72554 7.35952C9.60377 6.87198 10.1048 6.37556 10.5804 6.25073C10.9454 6.15492 11.269 5.93729 11.5 5.63215C11.731 5.32701 11.8564 4.95172 11.8564 4.56545C11.8564 4.17917 11.731 3.80388 11.5 3.49874C11.269 3.19361 10.9454 2.97598 10.5804 2.88017C10.1048 2.75534 9.60377 2.25891 9.72554 1.77138Z" fill="white"/>
<path fill-rule="evenodd" clip-rule="evenodd" d="M9.72554 1.77138C9.8473 1.28384 10.3315 0.989804 10.8071 1.11463C11.5545 1.31082 12.217 1.75644 12.6901 2.38125C13.1632 3.00605 13.42 3.7745 13.42 4.56545C13.42 5.35639 13.1632 6.12484 12.6901 6.74965C12.217 7.37445 11.5545 7.82007 10.8071 8.01626C10.3315 8.14109 9.8473 7.84706 9.72554 7.35952C9.60377 6.87198 10.1048 6.37556 10.5804 6.25073C10.9454 6.15492 11.269 5.93729 11.5 5.63215C11.731 5.32701 11.8564 4.95172 11.8564 4.56545C11.8564 4.17917 11.731 3.80388 11.5 3.49874C11.269 3.19361 10.9454 2.97598 10.5804 2.88017C10.1048 2.75534 9.60377 2.25891 9.72554 1.77138Z" fill="#4E5D78"/>
</svg>
