<svg width="16" height="16" viewBox="0 0 16 16" fill="none" xmlns="http://www.w3.org/2000/svg">
<path d="M4 1.6V0H12V1.6H16V3.2H14.4V15.2C14.4 15.4122 14.3157 15.6157 14.1657 15.7657C14.0157 15.9157 13.8122 16 13.6 16H2.4C2.18783 16 1.98434 15.9157 1.83431 15.7657C1.68429 15.6157 1.6 15.4122 1.6 15.2V3.2H0V1.6H4ZM3.2 3.2V14.4H12.8V3.2H3.2ZM5.6 5.6H7.2V12H5.6V5.6ZM8.8 5.6H10.4V12H8.8V5.6Z" fill="white"/>
<path d="M4 1.6V0H12V1.6H16V3.2H14.4V15.2C14.4 15.4122 14.3157 15.6157 14.1657 15.7657C14.0157 15.9157 13.8122 16 13.6 16H2.4C2.18783 16 1.98434 15.9157 1.83431 15.7657C1.68429 15.6157 1.6 15.4122 1.6 15.2V3.2H0V1.6H4ZM3.2 3.2V14.4H12.8V3.2H3.2ZM5.6 5.6H7.2V12H5.6V5.6ZM8.8 5.6H10.4V12H8.8V5.6Z" fill="#4E5D78"/>
</svg>
