<svg width="16" height="16" viewBox="0 0 16 16" fill="none" xmlns="http://www.w3.org/2000/svg">
<path fill-rule="evenodd" clip-rule="evenodd" d="M2.22272 0.672055C2.68326 0.240196 3.30485 0 3.95 0H10.0167C10.2617 0 10.4969 0.0917689 10.6715 0.255496L14.2215 3.52216C14.3997 3.68924 14.5 3.91742 14.5 4.15556V13.6889C14.5 14.3063 14.2383 14.8956 13.7773 15.3279C13.3167 15.7598 12.6952 16 12.05 16H3.95C3.30485 16 2.68326 15.7598 2.22272 15.3279C1.7617 14.8956 1.5 14.3063 1.5 13.6889V2.31111C1.5 1.69368 1.7617 1.10437 2.22272 0.672055ZM3.58333 1.5C3.42399 1.5 3.27404 1.55948 3.16572 1.66106C3.05789 1.76218 3 1.89637 3 2.03333V13.9667C3 14.1036 3.05789 14.2378 3.16572 14.3389C3.27404 14.4405 3.42399 14.5 3.58333 14.5H12.4167C12.576 14.5 12.726 14.4405 12.8343 14.3389C12.9421 14.2378 13 14.1036 13 13.9667V4.15556L10 1.5H3.58333Z" fill="white"/>
<path fill-rule="evenodd" clip-rule="evenodd" d="M2.22272 0.672055C2.68326 0.240196 3.30485 0 3.95 0H10.0167C10.2617 0 10.4969 0.0917689 10.6715 0.255496L14.2215 3.52216C14.3997 3.68924 14.5 3.91742 14.5 4.15556V13.6889C14.5 14.3063 14.2383 14.8956 13.7773 15.3279C13.3167 15.7598 12.6952 16 12.05 16H3.95C3.30485 16 2.68326 15.7598 2.22272 15.3279C1.7617 14.8956 1.5 14.3063 1.5 13.6889V2.31111C1.5 1.69368 1.7617 1.10437 2.22272 0.672055ZM3.58333 1.5C3.42399 1.5 3.27404 1.55948 3.16572 1.66106C3.05789 1.76218 3 1.89637 3 2.03333V13.9667C3 14.1036 3.05789 14.2378 3.16572 14.3389C3.27404 14.4405 3.42399 14.5 3.58333 14.5H12.4167C12.576 14.5 12.726 14.4405 12.8343 14.3389C12.9421 14.2378 13 14.1036 13 13.9667V4.15556L10 1.5H3.58333Z" fill="#4E5D78"/>
<path fill-rule="evenodd" clip-rule="evenodd" d="M4.5 7C4.5 6.44772 4.89175 6 5.375 6L10.625 6C11.1082 6 11.5 6.44771 11.5 7C11.5 7.55228 11.1082 8 10.625 8L5.375 8C4.89175 8 4.5 7.55229 4.5 7Z" fill="white"/>
<path fill-rule="evenodd" clip-rule="evenodd" d="M4.5 7C4.5 6.44772 4.89175 6 5.375 6L10.625 6C11.1082 6 11.5 6.44771 11.5 7C11.5 7.55228 11.1082 8 10.625 8L5.375 8C4.89175 8 4.5 7.55229 4.5 7Z" fill="#4E5D78"/>
<path fill-rule="evenodd" clip-rule="evenodd" d="M4.5 11C4.5 10.4477 4.94772 10 5.5 10L8.5 10C9.05228 10 9.5 10.4477 9.5 11C9.5 11.5523 9.05228 12 8.5 12L5.5 12C4.94772 12 4.5 11.5523 4.5 11Z" fill="white"/>
<path fill-rule="evenodd" clip-rule="evenodd" d="M4.5 11C4.5 10.4477 4.94772 10 5.5 10L8.5 10C9.05228 10 9.5 10.4477 9.5 11C9.5 11.5523 9.05228 12 8.5 12L5.5 12C4.94772 12 4.5 11.5523 4.5 11Z" fill="#4E5D78"/>
</svg>
