<svg width="16" height="16" viewBox="0 0 16 16" fill="none" xmlns="http://www.w3.org/2000/svg">
<path fill-rule="evenodd" clip-rule="evenodd" d="M0.674402 2.17343C1.10621 1.74161 1.69188 1.49902 2.30255 1.49902H7.25037C7.74129 1.49902 8.13926 1.89699 8.13926 2.38791C8.13926 2.87883 7.74129 3.2768 7.25037 3.2768H2.30255C2.16337 3.2768 2.02989 3.33209 1.93148 3.4305C1.83307 3.52892 1.77778 3.6624 1.77778 3.80157V13.6972C1.77778 13.8364 1.83307 13.9699 1.93148 14.0683C2.02989 14.1667 2.16337 14.222 2.30255 14.222H12.1982C12.3374 14.222 12.4708 14.1667 12.5693 14.0683C12.6677 13.9699 12.723 13.8364 12.723 13.6972V8.7494C12.723 8.25848 13.1209 7.86051 13.6119 7.86051C14.1028 7.86051 14.5007 8.25848 14.5007 8.7494V13.6972C14.5007 14.3079 14.2582 14.8936 13.8263 15.3254C13.3945 15.7572 12.8089 15.9998 12.1982 15.9998H2.30255C1.69188 15.9998 1.10621 15.7572 0.674402 15.3254C0.24259 14.8936 0 14.3079 0 13.6972V3.80157C0 3.1909 0.242589 2.60524 0.674402 2.17343Z" fill="white"/>
<path fill-rule="evenodd" clip-rule="evenodd" d="M0.674402 2.17343C1.10621 1.74161 1.69188 1.49902 2.30255 1.49902H7.25037C7.74129 1.49902 8.13926 1.89699 8.13926 2.38791C8.13926 2.87883 7.74129 3.2768 7.25037 3.2768H2.30255C2.16337 3.2768 2.02989 3.33209 1.93148 3.4305C1.83307 3.52892 1.77778 3.6624 1.77778 3.80157V13.6972C1.77778 13.8364 1.83307 13.9699 1.93148 14.0683C2.02989 14.1667 2.16337 14.222 2.30255 14.222H12.1982C12.3374 14.222 12.4708 14.1667 12.5693 14.0683C12.6677 13.9699 12.723 13.8364 12.723 13.6972V8.7494C12.723 8.25848 13.1209 7.86051 13.6119 7.86051C14.1028 7.86051 14.5007 8.25848 14.5007 8.7494V13.6972C14.5007 14.3079 14.2582 14.8936 13.8263 15.3254C13.3945 15.7572 12.8089 15.9998 12.1982 15.9998H2.30255C1.69188 15.9998 1.10621 15.7572 0.674402 15.3254C0.24259 14.8936 0 14.3079 0 13.6972V3.80157C0 3.1909 0.242589 2.60524 0.674402 2.17343Z" fill="#4E5D78"/>
<path fill-rule="evenodd" clip-rule="evenodd" d="M13.6121 1.77778C13.4502 1.77778 13.2949 1.8421 13.1804 1.9566L6.63958 8.4974L6.35178 9.64862L7.503 9.36082L14.0438 2.82001C14.1583 2.70552 14.2226 2.55023 14.2226 2.3883C14.2226 2.22638 14.1583 2.07109 14.0438 1.9566C13.9293 1.8421 13.774 1.77778 13.6121 1.77778ZM11.9233 0.699518C12.3712 0.251624 12.9787 0 13.6121 0C14.2455 0 14.853 0.251624 15.3009 0.699518C15.7488 1.14741 16.0004 1.75489 16.0004 2.3883C16.0004 3.02172 15.7488 3.6292 15.3009 4.07709L8.58598 10.792C8.47206 10.9059 8.32933 10.9867 8.17303 11.0258L5.34571 11.7326C5.04279 11.8084 4.72236 11.7196 4.50158 11.4988C4.2808 11.278 4.19204 10.9576 4.26777 10.6547L4.9746 7.82737C5.01368 7.67107 5.09449 7.52834 5.20841 7.41442L11.9233 0.699518Z" fill="white"/>
<path fill-rule="evenodd" clip-rule="evenodd" d="M13.6121 1.77778C13.4502 1.77778 13.2949 1.8421 13.1804 1.9566L6.63958 8.4974L6.35178 9.64862L7.503 9.36082L14.0438 2.82001C14.1583 2.70552 14.2226 2.55023 14.2226 2.3883C14.2226 2.22638 14.1583 2.07109 14.0438 1.9566C13.9293 1.8421 13.774 1.77778 13.6121 1.77778ZM11.9233 0.699518C12.3712 0.251624 12.9787 0 13.6121 0C14.2455 0 14.853 0.251624 15.3009 0.699518C15.7488 1.14741 16.0004 1.75489 16.0004 2.3883C16.0004 3.02172 15.7488 3.6292 15.3009 4.07709L8.58598 10.792C8.47206 10.9059 8.32933 10.9867 8.17303 11.0258L5.34571 11.7326C5.04279 11.8084 4.72236 11.7196 4.50158 11.4988C4.2808 11.278 4.19204 10.9576 4.26777 10.6547L4.9746 7.82737C5.01368 7.67107 5.09449 7.52834 5.20841 7.41442L11.9233 0.699518Z" fill="#4E5D78"/>
</svg>
