<svg width="16" height="16" viewBox="0 0 16 16" fill="none" xmlns="http://www.w3.org/2000/svg">
<path d="M11.2951 5.96178L14.1147 3.14222L16 5.02756V0H10.9724L12.8578 1.88533L10.0382 4.70489L11.2951 5.96178ZM12.8578 14.1147L10.9724 16H16V10.9724L14.1147 12.8578L11.2951 10.0382L10.0382 11.2951L12.8578 14.1147ZM4.70489 10.0382L1.88533 12.8578L0 10.9724V16H5.02756L3.14222 14.1147L5.96178 11.2951L4.70489 10.0382ZM3.14222 1.88533L5.02756 0H0V5.02756L1.88533 3.14222L4.70489 5.96178L5.96178 4.70489L3.14222 1.88533Z" fill="white"/>
<path d="M11.2951 5.96178L14.1147 3.14222L16 5.02756V0H10.9724L12.8578 1.88533L10.0382 4.70489L11.2951 5.96178ZM12.8578 14.1147L10.9724 16H16V10.9724L14.1147 12.8578L11.2951 10.0382L10.0382 11.2951L12.8578 14.1147ZM4.70489 10.0382L1.88533 12.8578L0 10.9724V16H5.02756L3.14222 14.1147L5.96178 11.2951L4.70489 10.0382ZM3.14222 1.88533L5.02756 0H0V5.02756L1.88533 3.14222L4.70489 5.96178L5.96178 4.70489L3.14222 1.88533Z" fill="#4E5D78"/>
</svg>
