<svg width="16" height="16" viewBox="0 0 16 16" fill="none" xmlns="http://www.w3.org/2000/svg">
<path d="M12.3494 13.5035C11.0489 14.3449 9.54006 14.7905 8 14.788C4.01294 14.788 0.695813 11.8616 0 8C0.317981 6.24321 1.18431 4.63837 2.46973 3.42491L0.156022 1.06722L1.20233 0L15.8425 14.9335L14.7962 16L12.3486 13.5035H12.3494ZM3.5153 4.49288C2.5104 5.42479 1.81038 6.64903 1.50994 8C1.74086 9.03061 2.20446 9.992 2.86385 10.8077C3.52324 11.6233 4.3602 12.2707 5.30811 12.6983C6.25602 13.1258 7.28869 13.3218 8.32394 13.2706C9.35919 13.2193 10.3684 12.9223 11.2713 12.4031L9.7717 10.8736C9.13333 11.2837 8.37726 11.4604 7.6275 11.3747C6.87773 11.289 6.17879 10.9459 5.64531 10.4018C5.11182 9.85761 4.77547 9.1447 4.69142 8.37995C4.60737 7.6152 4.78061 6.84402 5.18273 6.19289L3.5153 4.49288ZM8.67585 9.75582L6.27858 7.31064C6.14701 7.65226 6.11605 8.02561 6.18949 8.38491C6.26292 8.74421 6.43758 9.07384 6.69202 9.33337C6.94646 9.5929 7.26963 9.77104 7.62189 9.84595C7.97415 9.92085 8.34019 9.88927 8.67511 9.75507L8.67585 9.75582ZM14.5122 11.4634L13.4541 10.3848C13.9484 9.6663 14.3003 8.85618 14.4901 8C14.2891 7.10227 13.9113 6.2556 13.3795 5.51145C12.8478 4.7673 12.1732 4.14121 11.3969 3.67124C10.6205 3.20127 9.7586 2.89723 8.86347 2.77761C7.96833 2.65799 7.0587 2.72528 6.18985 2.97539L5.02302 1.78524C5.9451 1.41567 6.95 1.21203 8 1.21203C11.9871 1.21203 15.3042 4.1384 16 8C15.7734 9.2563 15.2642 10.4418 14.5122 11.4634V11.4634ZM7.79517 4.61205C8.26584 4.58238 8.7373 4.65509 9.17833 4.82535C9.61935 4.99562 10.0199 5.25955 10.3533 5.59966C10.6867 5.93977 10.9455 6.34828 11.1124 6.79812C11.2794 7.24796 11.3507 7.72885 11.3216 8.20892L7.79444 4.61205H7.79517Z" fill="white"/>
<path d="M12.3494 13.5035C11.0489 14.3449 9.54006 14.7905 8 14.788C4.01294 14.788 0.695813 11.8616 0 8C0.317981 6.24321 1.18431 4.63837 2.46973 3.42491L0.156022 1.06722L1.20233 0L15.8425 14.9335L14.7962 16L12.3486 13.5035H12.3494ZM3.5153 4.49288C2.5104 5.42479 1.81038 6.64903 1.50994 8C1.74086 9.03061 2.20446 9.992 2.86385 10.8077C3.52324 11.6233 4.3602 12.2707 5.30811 12.6983C6.25602 13.1258 7.28869 13.3218 8.32394 13.2706C9.35919 13.2193 10.3684 12.9223 11.2713 12.4031L9.7717 10.8736C9.13333 11.2837 8.37726 11.4604 7.6275 11.3747C6.87773 11.289 6.17879 10.9459 5.64531 10.4018C5.11182 9.85761 4.77547 9.1447 4.69142 8.37995C4.60737 7.6152 4.78061 6.84402 5.18273 6.19289L3.5153 4.49288ZM8.67585 9.75582L6.27858 7.31064C6.14701 7.65226 6.11605 8.02561 6.18949 8.38491C6.26292 8.74421 6.43758 9.07384 6.69202 9.33337C6.94646 9.5929 7.26963 9.77104 7.62189 9.84595C7.97415 9.92085 8.34019 9.88927 8.67511 9.75507L8.67585 9.75582ZM14.5122 11.4634L13.4541 10.3848C13.9484 9.6663 14.3003 8.85618 14.4901 8C14.2891 7.10227 13.9113 6.2556 13.3795 5.51145C12.8478 4.7673 12.1732 4.14121 11.3969 3.67124C10.6205 3.20127 9.7586 2.89723 8.86347 2.77761C7.96833 2.65799 7.0587 2.72528 6.18985 2.97539L5.02302 1.78524C5.9451 1.41567 6.95 1.21203 8 1.21203C11.9871 1.21203 15.3042 4.1384 16 8C15.7734 9.2563 15.2642 10.4418 14.5122 11.4634V11.4634ZM7.79517 4.61205C8.26584 4.58238 8.7373 4.65509 9.17833 4.82535C9.61935 4.99562 10.0199 5.25955 10.3533 5.59966C10.6867 5.93977 10.9455 6.34828 11.1124 6.79812C11.2794 7.24796 11.3507 7.72885 11.3216 8.20892L7.79444 4.61205H7.79517Z" fill="#4E5D78"/>
</svg>
