<svg width="16" height="16" viewBox="0 0 16 16" fill="none" xmlns="http://www.w3.org/2000/svg">
<path d="M8 1C11.9871 1 15.3042 4.01778 16 8C15.3049 11.9822 11.9871 15 8 15C4.01294 15 0.695813 11.9822 0 8C0.695073 4.01778 4.01294 1 8 1ZM8 13.4444C9.50806 13.4441 10.9714 12.9053 12.1504 11.9162C13.3294 10.9272 14.1543 9.54643 14.4901 8C14.1531 6.45479 13.3276 5.07556 12.1487 4.0878C10.9698 3.10004 9.5072 2.56219 8 2.56219C6.4928 2.56219 5.03018 3.10004 3.85128 4.0878C2.67238 5.07556 1.84695 6.45479 1.50994 8C1.84571 9.54643 2.67062 10.9272 3.84963 11.9162C5.02865 12.9053 6.49194 13.4441 8 13.4444V13.4444ZM8 11.5C7.1175 11.5 6.27114 11.1313 5.64712 10.4749C5.02309 9.8185 4.67252 8.92826 4.67252 8C4.67252 7.07174 5.02309 6.1815 5.64712 5.52513C6.27114 4.86875 7.1175 4.5 8 4.5C8.8825 4.5 9.72886 4.86875 10.3529 5.52513C10.9769 6.1815 11.3275 7.07174 11.3275 8C11.3275 8.92826 10.9769 9.8185 10.3529 10.4749C9.72886 11.1313 8.8825 11.5 8 11.5ZM8 9.94444C8.49028 9.94444 8.96048 9.73958 9.30716 9.37493C9.65384 9.01028 9.8486 8.5157 9.8486 8C9.8486 7.4843 9.65384 6.98972 9.30716 6.62507C8.96048 6.26042 8.49028 6.05556 8 6.05556C7.50972 6.05556 7.03952 6.26042 6.69284 6.62507C6.34616 6.98972 6.1514 7.4843 6.1514 8C6.1514 8.5157 6.34616 9.01028 6.69284 9.37493C7.03952 9.73958 7.50972 9.94444 8 9.94444Z" fill="white"/>
<path d="M8 1C11.9871 1 15.3042 4.01778 16 8C15.3049 11.9822 11.9871 15 8 15C4.01294 15 0.695813 11.9822 0 8C0.695073 4.01778 4.01294 1 8 1ZM8 13.4444C9.50806 13.4441 10.9714 12.9053 12.1504 11.9162C13.3294 10.9272 14.1543 9.54643 14.4901 8C14.1531 6.45479 13.3276 5.07556 12.1487 4.0878C10.9698 3.10004 9.5072 2.56219 8 2.56219C6.4928 2.56219 5.03018 3.10004 3.85128 4.0878C2.67238 5.07556 1.84695 6.45479 1.50994 8C1.84571 9.54643 2.67062 10.9272 3.84963 11.9162C5.02865 12.9053 6.49194 13.4441 8 13.4444V13.4444ZM8 11.5C7.1175 11.5 6.27114 11.1313 5.64712 10.4749C5.02309 9.8185 4.67252 8.92826 4.67252 8C4.67252 7.07174 5.02309 6.1815 5.64712 5.52513C6.27114 4.86875 7.1175 4.5 8 4.5C8.8825 4.5 9.72886 4.86875 10.3529 5.52513C10.9769 6.1815 11.3275 7.07174 11.3275 8C11.3275 8.92826 10.9769 9.8185 10.3529 10.4749C9.72886 11.1313 8.8825 11.5 8 11.5ZM8 9.94444C8.49028 9.94444 8.96048 9.73958 9.30716 9.37493C9.65384 9.01028 9.8486 8.5157 9.8486 8C9.8486 7.4843 9.65384 6.98972 9.30716 6.62507C8.96048 6.26042 8.49028 6.05556 8 6.05556C7.50972 6.05556 7.03952 6.26042 6.69284 6.62507C6.34616 6.98972 6.1514 7.4843 6.1514 8C6.1514 8.5157 6.34616 9.01028 6.69284 9.37493C7.03952 9.73958 7.50972 9.94444 8 9.94444Z" fill="#4E5D78"/>
</svg>
