<svg width="16" height="16" viewBox="0 0 16 16" fill="none" xmlns="http://www.w3.org/2000/svg">
<path d="M9.77778 14.2222H14.2222V1.77778H1.77778V14.2222H8V9.77778H6.22222V8H8V6.52978C8 5.34133 8.12444 4.91022 8.35556 4.47556C8.58321 4.0455 8.93508 3.69395 9.36533 3.46667C9.70489 3.28444 10.1271 3.17511 10.8649 3.128C11.1573 3.10933 11.536 3.13244 12.0009 3.19911V4.888H11.5556C10.7404 4.888 10.4036 4.92622 10.2027 5.03378C10.0828 5.09543 9.98521 5.19302 9.92356 5.31289C9.81689 5.51378 9.77778 5.71289 9.77778 6.52889V8H12L11.5556 9.77778H9.77778V14.2222ZM0.888889 0H15.1111C15.3469 0 15.573 0.0936505 15.7397 0.260349C15.9064 0.427048 16 0.653141 16 0.888889V15.1111C16 15.3469 15.9064 15.573 15.7397 15.7397C15.573 15.9064 15.3469 16 15.1111 16H0.888889C0.653141 16 0.427048 15.9064 0.260349 15.7397C0.0936505 15.573 0 15.3469 0 15.1111V0.888889C0 0.653141 0.0936505 0.427048 0.260349 0.260349C0.427048 0.0936505 0.653141 0 0.888889 0V0Z" fill="white"/>
<path d="M9.77778 14.2222H14.2222V1.77778H1.77778V14.2222H8V9.77778H6.22222V8H8V6.52978C8 5.34133 8.12444 4.91022 8.35556 4.47556C8.58321 4.0455 8.93508 3.69395 9.36533 3.46667C9.70489 3.28444 10.1271 3.17511 10.8649 3.128C11.1573 3.10933 11.536 3.13244 12.0009 3.19911V4.888H11.5556C10.7404 4.888 10.4036 4.92622 10.2027 5.03378C10.0828 5.09543 9.98521 5.19302 9.92356 5.31289C9.81689 5.51378 9.77778 5.71289 9.77778 6.52889V8H12L11.5556 9.77778H9.77778V14.2222ZM0.888889 0H15.1111C15.3469 0 15.573 0.0936505 15.7397 0.260349C15.9064 0.427048 16 0.653141 16 0.888889V15.1111C16 15.3469 15.9064 15.573 15.7397 15.7397C15.573 15.9064 15.3469 16 15.1111 16H0.888889C0.653141 16 0.427048 15.9064 0.260349 15.7397C0.0936505 15.573 0 15.3469 0 15.1111V0.888889C0 0.653141 0.0936505 0.427048 0.260349 0.260349C0.427048 0.0936505 0.653141 0 0.888889 0V0Z" fill="#4E5D78"/>
</svg>
