<svg width="16" height="16" viewBox="0 0 16 16" fill="none" xmlns="http://www.w3.org/2000/svg">
<path d="M4.66667 0H2.66667C1.95942 0 1.28115 0.280952 0.781049 0.781049C0.280952 1.28115 0 1.95942 0 2.66667L0 4.66667C0 5.37391 0.280952 6.05219 0.781049 6.55228C1.28115 7.05238 1.95942 7.33333 2.66667 7.33333H4.66667C5.37391 7.33333 6.05219 7.05238 6.55228 6.55228C7.05238 6.05219 7.33333 5.37391 7.33333 4.66667V2.66667C7.33333 1.95942 7.05238 1.28115 6.55228 0.781049C6.05219 0.280952 5.37391 0 4.66667 0ZM6 4.66667C6 5.02029 5.85952 5.35943 5.60948 5.60948C5.35943 5.85952 5.02029 6 4.66667 6H2.66667C2.31304 6 1.97391 5.85952 1.72386 5.60948C1.47381 5.35943 1.33333 5.02029 1.33333 4.66667V2.66667C1.33333 2.31304 1.47381 1.97391 1.72386 1.72386C1.97391 1.47381 2.31304 1.33333 2.66667 1.33333H4.66667C5.02029 1.33333 5.35943 1.47381 5.60948 1.72386C5.85952 1.97391 6 2.31304 6 2.66667V4.66667Z" fill="white"/>
<path d="M4.66667 0H2.66667C1.95942 0 1.28115 0.280952 0.781049 0.781049C0.280952 1.28115 0 1.95942 0 2.66667L0 4.66667C0 5.37391 0.280952 6.05219 0.781049 6.55228C1.28115 7.05238 1.95942 7.33333 2.66667 7.33333H4.66667C5.37391 7.33333 6.05219 7.05238 6.55228 6.55228C7.05238 6.05219 7.33333 5.37391 7.33333 4.66667V2.66667C7.33333 1.95942 7.05238 1.28115 6.55228 0.781049C6.05219 0.280952 5.37391 0 4.66667 0ZM6 4.66667C6 5.02029 5.85952 5.35943 5.60948 5.60948C5.35943 5.85952 5.02029 6 4.66667 6H2.66667C2.31304 6 1.97391 5.85952 1.72386 5.60948C1.47381 5.35943 1.33333 5.02029 1.33333 4.66667V2.66667C1.33333 2.31304 1.47381 1.97391 1.72386 1.72386C1.97391 1.47381 2.31304 1.33333 2.66667 1.33333H4.66667C5.02029 1.33333 5.35943 1.47381 5.60948 1.72386C5.85952 1.97391 6 2.31304 6 2.66667V4.66667Z" fill="#4E5D78"/>
<path d="M13.3337 0H11.3337C10.6264 0 9.94814 0.280952 9.44804 0.781049C8.94794 1.28115 8.66699 1.95942 8.66699 2.66667V4.66667C8.66699 5.37391 8.94794 6.05219 9.44804 6.55229C9.94814 7.05238 10.6264 7.33333 11.3337 7.33333H13.3337C14.0409 7.33333 14.7192 7.05238 15.2193 6.55229C15.7194 6.05219 16.0003 5.37391 16.0003 4.66667V2.66667C16.0003 1.95942 15.7194 1.28115 15.2193 0.781049C14.7192 0.280952 14.0409 0 13.3337 0V0ZM14.667 4.66667C14.667 5.02029 14.5265 5.35943 14.2765 5.60948C14.0264 5.85952 13.6873 6 13.3337 6H11.3337C10.98 6 10.6409 5.85952 10.3908 5.60948C10.1408 5.35943 10.0003 5.02029 10.0003 4.66667V2.66667C10.0003 2.31304 10.1408 1.97391 10.3908 1.72386C10.6409 1.47381 10.98 1.33333 11.3337 1.33333H13.3337C13.6873 1.33333 14.0264 1.47381 14.2765 1.72386C14.5265 1.97391 14.667 2.31304 14.667 2.66667V4.66667Z" fill="white"/>
<path d="M13.3337 0H11.3337C10.6264 0 9.94814 0.280952 9.44804 0.781049C8.94794 1.28115 8.66699 1.95942 8.66699 2.66667V4.66667C8.66699 5.37391 8.94794 6.05219 9.44804 6.55229C9.94814 7.05238 10.6264 7.33333 11.3337 7.33333H13.3337C14.0409 7.33333 14.7192 7.05238 15.2193 6.55229C15.7194 6.05219 16.0003 5.37391 16.0003 4.66667V2.66667C16.0003 1.95942 15.7194 1.28115 15.2193 0.781049C14.7192 0.280952 14.0409 0 13.3337 0V0ZM14.667 4.66667C14.667 5.02029 14.5265 5.35943 14.2765 5.60948C14.0264 5.85952 13.6873 6 13.3337 6H11.3337C10.98 6 10.6409 5.85952 10.3908 5.60948C10.1408 5.35943 10.0003 5.02029 10.0003 4.66667V2.66667C10.0003 2.31304 10.1408 1.97391 10.3908 1.72386C10.6409 1.47381 10.98 1.33333 11.3337 1.33333H13.3337C13.6873 1.33333 14.0264 1.47381 14.2765 1.72386C14.5265 1.97391 14.667 2.31304 14.667 2.66667V4.66667Z" fill="#4E5D78"/>
<path d="M4.66667 8.6665H2.66667C1.95942 8.6665 1.28115 8.94746 0.781049 9.44755C0.280952 9.94765 0 10.6259 0 11.3332L0 13.3332C0 14.0404 0.280952 14.7187 0.781049 15.2188C1.28115 15.7189 1.95942 15.9998 2.66667 15.9998H4.66667C5.37391 15.9998 6.05219 15.7189 6.55229 15.2188C7.05238 14.7187 7.33333 14.0404 7.33333 13.3332V11.3332C7.33333 10.6259 7.05238 9.94765 6.55229 9.44755C6.05219 8.94746 5.37391 8.6665 4.66667 8.6665V8.6665ZM6 13.3332C6 13.6868 5.85952 14.0259 5.60948 14.276C5.35943 14.526 5.02029 14.6665 4.66667 14.6665H2.66667C2.31304 14.6665 1.97391 14.526 1.72386 14.276C1.47381 14.0259 1.33333 13.6868 1.33333 13.3332V11.3332C1.33333 10.9795 1.47381 10.6404 1.72386 10.3904C1.97391 10.1403 2.31304 9.99984 2.66667 9.99984H4.66667C5.02029 9.99984 5.35943 10.1403 5.60948 10.3904C5.85952 10.6404 6 10.9795 6 11.3332V13.3332Z" fill="white"/>
<path d="M4.66667 8.6665H2.66667C1.95942 8.6665 1.28115 8.94746 0.781049 9.44755C0.280952 9.94765 0 10.6259 0 11.3332L0 13.3332C0 14.0404 0.280952 14.7187 0.781049 15.2188C1.28115 15.7189 1.95942 15.9998 2.66667 15.9998H4.66667C5.37391 15.9998 6.05219 15.7189 6.55229 15.2188C7.05238 14.7187 7.33333 14.0404 7.33333 13.3332V11.3332C7.33333 10.6259 7.05238 9.94765 6.55229 9.44755C6.05219 8.94746 5.37391 8.6665 4.66667 8.6665V8.6665ZM6 13.3332C6 13.6868 5.85952 14.0259 5.60948 14.276C5.35943 14.526 5.02029 14.6665 4.66667 14.6665H2.66667C2.31304 14.6665 1.97391 14.526 1.72386 14.276C1.47381 14.0259 1.33333 13.6868 1.33333 13.3332V11.3332C1.33333 10.9795 1.47381 10.6404 1.72386 10.3904C1.97391 10.1403 2.31304 9.99984 2.66667 9.99984H4.66667C5.02029 9.99984 5.35943 10.1403 5.60948 10.3904C5.85952 10.6404 6 10.9795 6 11.3332V13.3332Z" fill="#4E5D78"/>
<path d="M13.3337 8.6665H11.3337C10.6264 8.6665 9.94814 8.94746 9.44804 9.44755C8.94794 9.94765 8.66699 10.6259 8.66699 11.3332V13.3332C8.66699 14.0404 8.94794 14.7187 9.44804 15.2188C9.94814 15.7189 10.6264 15.9998 11.3337 15.9998H13.3337C14.0409 15.9998 14.7192 15.7189 15.2193 15.2188C15.7194 14.7187 16.0003 14.0404 16.0003 13.3332V11.3332C16.0003 10.6259 15.7194 9.94765 15.2193 9.44755C14.7192 8.94746 14.0409 8.6665 13.3337 8.6665V8.6665ZM14.667 13.3332C14.667 13.6868 14.5265 14.0259 14.2765 14.276C14.0264 14.526 13.6873 14.6665 13.3337 14.6665H11.3337C10.98 14.6665 10.6409 14.526 10.3908 14.276C10.1408 14.0259 10.0003 13.6868 10.0003 13.3332V11.3332C10.0003 10.9795 10.1408 10.6404 10.3908 10.3904C10.6409 10.1403 10.98 9.99984 11.3337 9.99984H13.3337C13.6873 9.99984 14.0264 10.1403 14.2765 10.3904C14.5265 10.6404 14.667 10.9795 14.667 11.3332V13.3332Z" fill="white"/>
<path d="M13.3337 8.6665H11.3337C10.6264 8.6665 9.94814 8.94746 9.44804 9.44755C8.94794 9.94765 8.66699 10.6259 8.66699 11.3332V13.3332C8.66699 14.0404 8.94794 14.7187 9.44804 15.2188C9.94814 15.7189 10.6264 15.9998 11.3337 15.9998H13.3337C14.0409 15.9998 14.7192 15.7189 15.2193 15.2188C15.7194 14.7187 16.0003 14.0404 16.0003 13.3332V11.3332C16.0003 10.6259 15.7194 9.94765 15.2193 9.44755C14.7192 8.94746 14.0409 8.6665 13.3337 8.6665V8.6665ZM14.667 13.3332C14.667 13.6868 14.5265 14.0259 14.2765 14.276C14.0264 14.526 13.6873 14.6665 13.3337 14.6665H11.3337C10.98 14.6665 10.6409 14.526 10.3908 14.276C10.1408 14.0259 10.0003 13.6868 10.0003 13.3332V11.3332C10.0003 10.9795 10.1408 10.6404 10.3908 10.3904C10.6409 10.1403 10.98 9.99984 11.3337 9.99984H13.3337C13.6873 9.99984 14.0264 10.1403 14.2765 10.3904C14.5265 10.6404 14.667 10.9795 14.667 11.3332V13.3332Z" fill="#4E5D78"/>
</svg>
