<svg width="16" height="16" viewBox="0 0 16 16" fill="none" xmlns="http://www.w3.org/2000/svg">
<path d="M4.22934 9.0296C4.30357 8.95524 4.39173 8.89625 4.48879 8.856C4.58584 8.81576 4.68987 8.79504 4.79494 8.79504C4.90001 8.79504 5.00404 8.81576 5.10109 8.856C5.19815 8.89625 5.28631 8.95524 5.36054 9.0296L6.63574 10.3048C7.22694 10.1288 8.33014 9.7288 9.02934 9.0296C9.72854 8.3304 10.1285 7.2272 10.3045 6.636L9.02934 5.3608C8.95498 5.28657 8.89599 5.19841 8.85574 5.10135C8.8155 5.0043 8.79478 4.90027 8.79478 4.7952C8.79478 4.69013 8.8155 4.5861 8.85574 4.48905C8.89599 4.39199 8.95498 4.30383 9.02934 4.2296L12.2293 1.0296C12.3036 0.955243 12.3917 0.896253 12.4888 0.856005C12.5858 0.815756 12.6899 0.795039 12.7949 0.795039C12.9 0.795039 13.004 0.815756 13.1011 0.856005C13.1981 0.896253 13.2863 0.955243 13.3605 1.0296L15.7605 3.4296C15.8998 3.56814 15.9828 3.75343 15.9933 3.9496C16.0053 4.1496 16.2349 8.8872 12.5605 12.5616C9.37014 15.7512 5.36854 16 4.21814 16C4.04294 16 3.94854 15.9936 3.94854 15.9936C3.75414 15.9816 3.56614 15.8992 3.42934 15.7608L1.02934 13.3608C0.954984 13.2866 0.895993 13.1984 0.855745 13.1014C0.815496 13.0043 0.79478 12.9003 0.79478 12.7952C0.79478 12.6901 0.815496 12.5861 0.855745 12.489C0.895993 12.392 0.954984 12.3038 1.02934 12.2296L4.22934 9.0296V9.0296ZM4.33014 14.3992C5.45094 14.3824 8.76854 14.0896 11.4293 11.4296C14.1029 8.7552 14.3773 5.332 14.3973 4.3288L12.7949 2.7264L10.7261 4.7952L11.7605 5.8296C11.8546 5.92356 11.9237 6.03947 11.9617 6.16685C11.9997 6.29424 12.0053 6.42908 11.9781 6.5592C11.9589 6.6512 11.4893 8.8328 10.1613 10.1608C8.83334 11.4888 6.65174 11.9584 6.55974 11.9776C6.4297 12.0053 6.29479 11.9999 6.16735 11.9621C6.0399 11.9242 5.92397 11.855 5.83014 11.7608L4.79574 10.7264L2.72694 12.7952L4.33014 14.3992V14.3992ZM1.59974 7.1992H-0.000259638C-0.000259638 3.0952 3.09814 0 7.20774 0V1.6C3.95814 1.6 1.59974 3.9544 1.59974 7.1992V7.1992Z" fill="white"/>
<path d="M4.22934 9.0296C4.30357 8.95524 4.39173 8.89625 4.48879 8.856C4.58584 8.81576 4.68987 8.79504 4.79494 8.79504C4.90001 8.79504 5.00404 8.81576 5.10109 8.856C5.19815 8.89625 5.28631 8.95524 5.36054 9.0296L6.63574 10.3048C7.22694 10.1288 8.33014 9.7288 9.02934 9.0296C9.72854 8.3304 10.1285 7.2272 10.3045 6.636L9.02934 5.3608C8.95498 5.28657 8.89599 5.19841 8.85574 5.10135C8.8155 5.0043 8.79478 4.90027 8.79478 4.7952C8.79478 4.69013 8.8155 4.5861 8.85574 4.48905C8.89599 4.39199 8.95498 4.30383 9.02934 4.2296L12.2293 1.0296C12.3036 0.955243 12.3917 0.896253 12.4888 0.856005C12.5858 0.815756 12.6899 0.795039 12.7949 0.795039C12.9 0.795039 13.004 0.815756 13.1011 0.856005C13.1981 0.896253 13.2863 0.955243 13.3605 1.0296L15.7605 3.4296C15.8998 3.56814 15.9828 3.75343 15.9933 3.9496C16.0053 4.1496 16.2349 8.8872 12.5605 12.5616C9.37014 15.7512 5.36854 16 4.21814 16C4.04294 16 3.94854 15.9936 3.94854 15.9936C3.75414 15.9816 3.56614 15.8992 3.42934 15.7608L1.02934 13.3608C0.954984 13.2866 0.895993 13.1984 0.855745 13.1014C0.815496 13.0043 0.79478 12.9003 0.79478 12.7952C0.79478 12.6901 0.815496 12.5861 0.855745 12.489C0.895993 12.392 0.954984 12.3038 1.02934 12.2296L4.22934 9.0296V9.0296ZM4.33014 14.3992C5.45094 14.3824 8.76854 14.0896 11.4293 11.4296C14.1029 8.7552 14.3773 5.332 14.3973 4.3288L12.7949 2.7264L10.7261 4.7952L11.7605 5.8296C11.8546 5.92356 11.9237 6.03947 11.9617 6.16685C11.9997 6.29424 12.0053 6.42908 11.9781 6.5592C11.9589 6.6512 11.4893 8.8328 10.1613 10.1608C8.83334 11.4888 6.65174 11.9584 6.55974 11.9776C6.4297 12.0053 6.29479 11.9999 6.16735 11.9621C6.0399 11.9242 5.92397 11.855 5.83014 11.7608L4.79574 10.7264L2.72694 12.7952L4.33014 14.3992V14.3992ZM1.59974 7.1992H-0.000259638C-0.000259638 3.0952 3.09814 0 7.20774 0V1.6C3.95814 1.6 1.59974 3.9544 1.59974 7.1992V7.1992Z" fill="#4E5D78"/>
<path d="M7.2002 4.8002C5.5178 4.8002 4.8002 5.5178 4.8002 7.2002H3.2002C3.2002 4.6202 4.6202 3.2002 7.2002 3.2002V4.8002Z" fill="white"/>
<path d="M7.2002 4.8002C5.5178 4.8002 4.8002 5.5178 4.8002 7.2002H3.2002C3.2002 4.6202 4.6202 3.2002 7.2002 3.2002V4.8002Z" fill="#4E5D78"/>
</svg>
