<svg width="17" height="18" viewBox="0 0 17 18" fill="none" xmlns="http://www.w3.org/2000/svg">
<path fill-rule="evenodd" clip-rule="evenodd" d="M5.83496 0.75C6.24917 0.75 6.58496 1.08579 6.58496 1.5V3.61538C6.58496 4.0296 6.24917 4.36538 5.83496 4.36538C5.42075 4.36538 5.08496 4.0296 5.08496 3.61538V1.5C5.08496 1.08579 5.42075 0.75 5.83496 0.75Z" fill="white"/>
<path fill-rule="evenodd" clip-rule="evenodd" d="M5.83496 0.75C6.24917 0.75 6.58496 1.08579 6.58496 1.5V3.61538C6.58496 4.0296 6.24917 4.36538 5.83496 4.36538C5.42075 4.36538 5.08496 4.0296 5.08496 3.61538V1.5C5.08496 1.08579 5.42075 0.75 5.83496 0.75Z" fill="#4E5D78"/>
<path fill-rule="evenodd" clip-rule="evenodd" d="M11.6706 4.36572H0V2.86572H11.6706V4.36572Z" fill="white"/>
<path fill-rule="evenodd" clip-rule="evenodd" d="M11.6706 4.36572H0V2.86572H11.6706V4.36572Z" fill="#4E5D78"/>
<path fill-rule="evenodd" clip-rule="evenodd" d="M5.27311 7.47253L8.4303 3.17188L9.63945 4.05954L6.20158 8.74253C7.07052 9.88179 8.08581 11.0772 9.17458 12.1101C9.47509 12.3951 9.48759 12.8698 9.20252 13.1703C8.91744 13.4709 8.44273 13.4834 8.14222 13.1983C7.09991 12.2095 6.12744 11.0881 5.27794 10.0007L1.73357 14.8288L0.524414 13.9411L4.33799 8.74633C3.43822 7.49568 2.74836 6.38976 2.36212 5.72199C2.15473 5.36343 2.27728 4.90464 2.63583 4.69725C2.99439 4.48986 3.45318 4.61241 3.66057 4.97096C3.99025 5.54096 4.54987 6.44113 5.27311 7.47253Z" fill="white"/>
<path fill-rule="evenodd" clip-rule="evenodd" d="M5.27311 7.47253L8.4303 3.17188L9.63945 4.05954L6.20158 8.74253C7.07052 9.88179 8.08581 11.0772 9.17458 12.1101C9.47509 12.3951 9.48759 12.8698 9.20252 13.1703C8.91744 13.4709 8.44273 13.4834 8.14222 13.1983C7.09991 12.2095 6.12744 11.0881 5.27794 10.0007L1.73357 14.8288L0.524414 13.9411L4.33799 8.74633C3.43822 7.49568 2.74836 6.38976 2.36212 5.72199C2.15473 5.36343 2.27728 4.90464 2.63583 4.69725C2.99439 4.48986 3.45318 4.61241 3.66057 4.97096C3.99025 5.54096 4.54987 6.44113 5.27311 7.47253Z" fill="#4E5D78"/>
<path fill-rule="evenodd" clip-rule="evenodd" d="M12.2356 7.28857C12.5319 7.28857 12.8004 7.463 12.9208 7.7337L16.6855 16.1952C16.8539 16.5737 16.6836 17.017 16.3052 17.1854C15.9267 17.3537 15.4834 17.1834 15.3151 16.805L14.3837 14.7117H10.0875L9.15613 16.805C8.98775 17.1834 8.54446 17.3537 8.16601 17.1854C7.78757 17.017 7.61727 16.5737 7.78565 16.1952L11.5504 7.7337C11.6708 7.463 11.9393 7.28857 12.2356 7.28857ZM10.7549 13.2117H13.7163L12.2356 9.88359L10.7549 13.2117Z" fill="white"/>
<path fill-rule="evenodd" clip-rule="evenodd" d="M12.2356 7.28857C12.5319 7.28857 12.8004 7.463 12.9208 7.7337L16.6855 16.1952C16.8539 16.5737 16.6836 17.017 16.3052 17.1854C15.9267 17.3537 15.4834 17.1834 15.3151 16.805L14.3837 14.7117H10.0875L9.15613 16.805C8.98775 17.1834 8.54446 17.3537 8.16601 17.1854C7.78757 17.017 7.61727 16.5737 7.78565 16.1952L11.5504 7.7337C11.6708 7.463 11.9393 7.28857 12.2356 7.28857ZM10.7549 13.2117H13.7163L12.2356 9.88359L10.7549 13.2117Z" fill="#4E5D78"/>
</svg>
