<svg width="16" height="16" viewBox="0 0 16 16" fill="none" xmlns="http://www.w3.org/2000/svg">
<path d="M15.2 5.05263H9.9104L11.1592 1.10821C11.1996 0.981686 11.2107 0.846838 11.1917 0.714873C11.1726 0.582908 11.1239 0.457637 11.0496 0.349474C10.9753 0.241334 10.8776 0.153281 10.7647 0.0925339C10.6518 0.0317868 10.5268 7.54634e-05 10.4 0H8C7.7624 0 7.5376 0.111158 7.3848 0.303158L3.6248 5.05263H0.8C0.587827 5.05263 0.384344 5.14135 0.234315 5.29928C0.0842854 5.4572 0 5.6714 0 5.89474V15.1579C0 15.3812 0.0842854 15.5954 0.234315 15.7534C0.384344 15.9113 0.587827 16 0.8 16H12.8C13.1336 16 13.432 15.7819 13.5496 15.4535L15.9496 8.71663C15.9831 8.62208 16.0002 8.52196 16 8.42105V5.89474C16 5.6714 15.9157 5.4572 15.7657 5.29928C15.6157 5.14135 15.4122 5.05263 15.2 5.05263ZM1.6 6.73684H3.2V14.3158H1.6V6.73684ZM14.4 8.26863L12.2456 14.3158H4.8V6.19958L8.3752 1.68421H9.2904L8.0416 5.62863C8.00156 5.75516 7.99065 5.88989 8.00976 6.02173C8.02886 6.15356 8.07744 6.27874 8.15149 6.38695C8.22554 6.49516 8.32295 6.58331 8.4357 6.64414C8.54845 6.70497 8.67331 6.73674 8.8 6.73684H14.4V8.26863Z" fill="white"/>
<path d="M15.2 5.05263H9.9104L11.1592 1.10821C11.1996 0.981686 11.2107 0.846838 11.1917 0.714873C11.1726 0.582908 11.1239 0.457637 11.0496 0.349474C10.9753 0.241334 10.8776 0.153281 10.7647 0.0925339C10.6518 0.0317868 10.5268 7.54634e-05 10.4 0H8C7.7624 0 7.5376 0.111158 7.3848 0.303158L3.6248 5.05263H0.8C0.587827 5.05263 0.384344 5.14135 0.234315 5.29928C0.0842854 5.4572 0 5.6714 0 5.89474V15.1579C0 15.3812 0.0842854 15.5954 0.234315 15.7534C0.384344 15.9113 0.587827 16 0.8 16H12.8C13.1336 16 13.432 15.7819 13.5496 15.4535L15.9496 8.71663C15.9831 8.62208 16.0002 8.52196 16 8.42105V5.89474C16 5.6714 15.9157 5.4572 15.7657 5.29928C15.6157 5.14135 15.4122 5.05263 15.2 5.05263ZM1.6 6.73684H3.2V14.3158H1.6V6.73684ZM14.4 8.26863L12.2456 14.3158H4.8V6.19958L8.3752 1.68421H9.2904L8.0416 5.62863C8.00156 5.75516 7.99065 5.88989 8.00976 6.02173C8.02886 6.15356 8.07744 6.27874 8.15149 6.38695C8.22554 6.49516 8.32295 6.58331 8.4357 6.64414C8.54845 6.70497 8.67331 6.73674 8.8 6.73684H14.4V8.26863Z" fill="#4E5D78"/>
</svg>
