<svg width="16" height="16" viewBox="0 0 16 16" fill="none" xmlns="http://www.w3.org/2000/svg">
<path fill-rule="evenodd" clip-rule="evenodd" d="M8.38364 1.25881C9.23129 0.44195 10.3666 -0.0100477 11.545 0.00016952C12.7234 0.0103867 13.8506 0.482001 14.6839 1.31344C15.5172 2.14487 15.9899 3.2696 16.0001 4.44539C16.0104 5.62117 15.5574 6.75393 14.7387 7.59969L14.7296 7.60895L12.4825 9.85103C12.0268 10.3058 11.4785 10.6575 10.8747 10.8822C10.2709 11.107 9.62566 11.1995 8.98283 11.1536C8.34001 11.1076 7.7146 10.9243 7.14904 10.616C6.58347 10.3077 6.09097 9.88164 5.70495 9.36672C5.45715 9.03618 5.52483 8.5678 5.8561 8.32056C6.18737 8.07332 6.6568 8.14084 6.9046 8.47138C7.16195 8.81465 7.49028 9.0987 7.86732 9.30423C8.24437 9.50977 8.6613 9.632 9.08985 9.66262C9.5184 9.69324 9.94854 9.63155 10.3511 9.48172C10.7536 9.33189 11.1192 9.09743 11.4229 8.79425L11.423 8.79415L13.6654 6.55682C14.2085 5.99346 14.5089 5.24019 14.5021 4.45837C14.4952 3.67452 14.1801 2.9247 13.6246 2.37041C13.0691 1.81612 12.3176 1.50171 11.532 1.4949C10.7481 1.4881 9.9928 1.78811 9.42809 2.33044L8.14375 3.60447C7.85037 3.89549 7.3761 3.89411 7.08442 3.60138C6.79275 3.30866 6.79413 2.83544 7.08751 2.54442L8.3759 1.26638L8.38364 1.25881Z" fill="white"/>
<path fill-rule="evenodd" clip-rule="evenodd" d="M8.38364 1.25881C9.23129 0.44195 10.3666 -0.0100477 11.545 0.00016952C12.7234 0.0103867 13.8506 0.482001 14.6839 1.31344C15.5172 2.14487 15.9899 3.2696 16.0001 4.44539C16.0104 5.62117 15.5574 6.75393 14.7387 7.59969L14.7296 7.60895L12.4825 9.85103C12.0268 10.3058 11.4785 10.6575 10.8747 10.8822C10.2709 11.107 9.62566 11.1995 8.98283 11.1536C8.34001 11.1076 7.7146 10.9243 7.14904 10.616C6.58347 10.3077 6.09097 9.88164 5.70495 9.36672C5.45715 9.03618 5.52483 8.5678 5.8561 8.32056C6.18737 8.07332 6.6568 8.14084 6.9046 8.47138C7.16195 8.81465 7.49028 9.0987 7.86732 9.30423C8.24437 9.50977 8.6613 9.632 9.08985 9.66262C9.5184 9.69324 9.94854 9.63155 10.3511 9.48172C10.7536 9.33189 11.1192 9.09743 11.4229 8.79425L11.423 8.79415L13.6654 6.55682C14.2085 5.99346 14.5089 5.24019 14.5021 4.45837C14.4952 3.67452 14.1801 2.9247 13.6246 2.37041C13.0691 1.81612 12.3176 1.50171 11.532 1.4949C10.7481 1.4881 9.9928 1.78811 9.42809 2.33044L8.14375 3.60447C7.85037 3.89549 7.3761 3.89411 7.08442 3.60138C6.79275 3.30866 6.79413 2.83544 7.08751 2.54442L8.3759 1.26638L8.38364 1.25881Z" fill="#4E5D78"/>
<path fill-rule="evenodd" clip-rule="evenodd" d="M5.12562 5.11777C5.72945 4.89303 6.37466 4.80048 7.01748 4.84642C7.66031 4.89235 8.28571 5.07569 8.85128 5.384C9.41684 5.6923 9.90934 6.11836 10.2954 6.63328C10.5432 6.96382 10.4755 7.4322 10.1442 7.67944C9.81294 7.92668 9.34351 7.85916 9.09572 7.52863C8.83837 7.18535 8.51004 6.90131 8.13299 6.69577C7.75595 6.49023 7.33901 6.36801 6.91046 6.33738C6.48191 6.30676 6.05177 6.36845 5.64922 6.51828C5.24667 6.66811 4.88112 6.90257 4.57737 7.20575L2.33494 9.44318C1.79184 10.0065 1.49143 10.7598 1.49824 11.5416C1.50507 12.3255 1.82018 13.0753 2.37571 13.6296C2.93124 14.1839 3.68274 14.4983 4.46834 14.5051C5.2519 14.5119 6.00685 14.2122 6.57147 13.6703L7.84752 12.3971C8.14005 12.1052 8.61433 12.1052 8.90686 12.3971C9.19939 12.6889 9.19939 13.1622 8.90686 13.454L7.62596 14.7321L7.61668 14.7412C6.76903 15.5581 5.63374 16.0101 4.45533 15.9998C3.27691 15.9896 2.14967 15.518 1.31637 14.6866C0.483079 13.8551 0.01041 12.7304 0.000169899 11.5546C-0.0100702 10.3788 0.442938 9.24608 1.26163 8.40032L1.27075 8.39105L3.51784 6.14897C3.51788 6.14894 3.51781 6.149 3.51784 6.14897C3.97345 5.69424 4.52184 5.34249 5.12562 5.11777Z" fill="white"/>
<path fill-rule="evenodd" clip-rule="evenodd" d="M5.12562 5.11777C5.72945 4.89303 6.37466 4.80048 7.01748 4.84642C7.66031 4.89235 8.28571 5.07569 8.85128 5.384C9.41684 5.6923 9.90934 6.11836 10.2954 6.63328C10.5432 6.96382 10.4755 7.4322 10.1442 7.67944C9.81294 7.92668 9.34351 7.85916 9.09572 7.52863C8.83837 7.18535 8.51004 6.90131 8.13299 6.69577C7.75595 6.49023 7.33901 6.36801 6.91046 6.33738C6.48191 6.30676 6.05177 6.36845 5.64922 6.51828C5.24667 6.66811 4.88112 6.90257 4.57737 7.20575L2.33494 9.44318C1.79184 10.0065 1.49143 10.7598 1.49824 11.5416C1.50507 12.3255 1.82018 13.0753 2.37571 13.6296C2.93124 14.1839 3.68274 14.4983 4.46834 14.5051C5.2519 14.5119 6.00685 14.2122 6.57147 13.6703L7.84752 12.3971C8.14005 12.1052 8.61433 12.1052 8.90686 12.3971C9.19939 12.6889 9.19939 13.1622 8.90686 13.454L7.62596 14.7321L7.61668 14.7412C6.76903 15.5581 5.63374 16.0101 4.45533 15.9998C3.27691 15.9896 2.14967 15.518 1.31637 14.6866C0.483079 13.8551 0.01041 12.7304 0.000169899 11.5546C-0.0100702 10.3788 0.442938 9.24608 1.26163 8.40032L1.27075 8.39105L3.51784 6.14897C3.51788 6.14894 3.51781 6.149 3.51784 6.14897C3.97345 5.69424 4.52184 5.34249 5.12562 5.11777Z" fill="#4E5D78"/>
</svg>
