<svg width="16" height="16" viewBox="0 0 16 16" fill="none" xmlns="http://www.w3.org/2000/svg">
<rect x="12.5762" y="2.22949" width="2.35108" height="16.4576" rx="1" transform="rotate(45 12.5762 2.22949)" fill="white"/>
<rect x="12.5762" y="2.22949" width="2.35108" height="16.4576" rx="1" transform="rotate(45 12.5762 2.22949)" fill="#4E5D78"/>
<path d="M3.69939 4.36879C3.03698 4.36879 2.5 3.83852 2.5 3.1844C2.5 2.53027 3.03698 2 3.69939 2H13.8765C14.5187 2 15.0469 2.49943 15.0748 3.13295V12.867C15.0748 13.5287 14.5 14 13.75 14C13 14 12.5 13.5 12.5 12.867V4.36879H3.69939Z" fill="white"/>
<path d="M3.69939 4.36879C3.03698 4.36879 2.5 3.83852 2.5 3.1844C2.5 2.53027 3.03698 2 3.69939 2H13.8765C14.5187 2 15.0469 2.49943 15.0748 3.13295V12.867C15.0748 13.5287 14.5 14 13.75 14C13 14 12.5 13.5 12.5 12.867V4.36879H3.69939Z" fill="#4E5D78"/>
</svg>
