<svg width="16" height="16" viewBox="0 0 16 16" fill="none" xmlns="http://www.w3.org/2000/svg">
<path d="M7.7777 9.04348V10.4348C6.62844 10.4348 5.52626 10.8745 4.71361 11.6573C3.90096 12.4401 3.44442 13.5017 3.44442 14.6087H2C2 13.1327 2.60872 11.7172 3.69225 10.6735C4.77578 9.62981 6.24536 9.04348 7.7777 9.04348V9.04348ZM7.7777 8.34783C5.38356 8.34783 3.44442 6.48 3.44442 4.17391C3.44442 1.86783 5.38356 0 7.7777 0C10.1718 0 12.111 1.86783 12.111 4.17391C12.111 6.48 10.1718 8.34783 7.7777 8.34783ZM7.7777 6.95652C9.37379 6.95652 10.6665 5.7113 10.6665 4.17391C10.6665 2.63652 9.37379 1.3913 7.7777 1.3913C6.18161 1.3913 4.88885 2.63652 4.88885 4.17391C4.88885 5.7113 6.18161 6.95652 7.7777 6.95652ZM14.1534 13.9624L12.111 16L10.0686 13.9624C8.93974 12.8369 8.93974 11.0129 10.0686 9.8873C10.3319 9.62076 10.6488 9.40854 10.9998 9.26354C11.3509 9.11853 11.729 9.04376 12.111 9.04376C12.493 9.04376 12.871 9.11853 13.2221 9.26354C13.5732 9.40854 13.89 9.62076 14.1534 9.8873C15.2822 11.0129 15.2822 12.8369 14.1534 13.9624V13.9624ZM13.1148 12.9955C13.702 12.4097 13.702 11.44 13.1148 10.8543C12.9862 10.7219 12.8308 10.6164 12.6581 10.5443C12.4854 10.4721 12.2992 10.4349 12.111 10.4349C11.9228 10.4349 11.7365 10.4721 11.5639 10.5443C11.3912 10.6164 11.2357 10.7219 11.1071 10.8543C10.5199 11.44 10.5199 12.4097 11.1071 12.9962L12.111 13.9965L13.1148 12.9948V12.9955Z" fill="white"/>
<path d="M7.7777 9.04348V10.4348C6.62844 10.4348 5.52626 10.8745 4.71361 11.6573C3.90096 12.4401 3.44442 13.5017 3.44442 14.6087H2C2 13.1327 2.60872 11.7172 3.69225 10.6735C4.77578 9.62981 6.24536 9.04348 7.7777 9.04348V9.04348ZM7.7777 8.34783C5.38356 8.34783 3.44442 6.48 3.44442 4.17391C3.44442 1.86783 5.38356 0 7.7777 0C10.1718 0 12.111 1.86783 12.111 4.17391C12.111 6.48 10.1718 8.34783 7.7777 8.34783ZM7.7777 6.95652C9.37379 6.95652 10.6665 5.7113 10.6665 4.17391C10.6665 2.63652 9.37379 1.3913 7.7777 1.3913C6.18161 1.3913 4.88885 2.63652 4.88885 4.17391C4.88885 5.7113 6.18161 6.95652 7.7777 6.95652ZM14.1534 13.9624L12.111 16L10.0686 13.9624C8.93974 12.8369 8.93974 11.0129 10.0686 9.8873C10.3319 9.62076 10.6488 9.40854 10.9998 9.26354C11.3509 9.11853 11.729 9.04376 12.111 9.04376C12.493 9.04376 12.871 9.11853 13.2221 9.26354C13.5732 9.40854 13.89 9.62076 14.1534 9.8873C15.2822 11.0129 15.2822 12.8369 14.1534 13.9624V13.9624ZM13.1148 12.9955C13.702 12.4097 13.702 11.44 13.1148 10.8543C12.9862 10.7219 12.8308 10.6164 12.6581 10.5443C12.4854 10.4721 12.2992 10.4349 12.111 10.4349C11.9228 10.4349 11.7365 10.4721 11.5639 10.5443C11.3912 10.6164 11.2357 10.7219 11.1071 10.8543C10.5199 11.44 10.5199 12.4097 11.1071 12.9962L12.111 13.9965L13.1148 12.9948V12.9955Z" fill="#4E5D78"/>
</svg>
