<svg width="16" height="16" viewBox="0 0 16 16" fill="none" xmlns="http://www.w3.org/2000/svg">
<path fill-rule="evenodd" clip-rule="evenodd" d="M3.1 7.99996C2.7134 7.99996 2.4 8.32557 2.4 8.72723V13.8181C2.4 14.2198 2.7134 14.5454 3.1 14.5454H12.9C13.2866 14.5454 13.6 14.2198 13.6 13.8181V8.72723C13.6 8.32557 13.2866 7.99996 12.9 7.99996H3.1ZM1 8.72723C1 7.52224 1.9402 6.54541 3.1 6.54541H12.9C14.0598 6.54541 15 7.52224 15 8.72723V13.8181C15 15.0231 14.0598 16 12.9 16H3.1C1.9402 16 1 15.0231 1 13.8181V8.72723Z" fill="white"/>
<path fill-rule="evenodd" clip-rule="evenodd" d="M3.1 7.99996C2.7134 7.99996 2.4 8.32557 2.4 8.72723V13.8181C2.4 14.2198 2.7134 14.5454 3.1 14.5454H12.9C13.2866 14.5454 13.6 14.2198 13.6 13.8181V8.72723C13.6 8.32557 13.2866 7.99996 12.9 7.99996H3.1ZM1 8.72723C1 7.52224 1.9402 6.54541 3.1 6.54541H12.9C14.0598 6.54541 15 7.52224 15 8.72723V13.8181C15 15.0231 14.0598 16 12.9 16H3.1C1.9402 16 1 15.0231 1 13.8181V8.72723Z" fill="#4E5D78"/>
<path fill-rule="evenodd" clip-rule="evenodd" d="M7.9998 1.45455C7.2572 1.45455 6.54501 1.76104 6.01991 2.3066C5.4948 2.85216 5.1998 3.5921 5.1998 4.36364V7.27273C5.1998 7.67439 4.8864 8 4.4998 8C4.11321 8 3.7998 7.67439 3.7998 7.27273V4.36364C3.7998 3.20633 4.2423 2.09642 5.02996 1.27808C5.81761 0.459739 6.8859 0 7.9998 0C9.11371 0 10.182 0.459739 10.9697 1.27808C11.7573 2.09642 12.1998 3.20633 12.1998 4.36364V7.27273C12.1998 7.67439 11.8864 8 11.4998 8C11.1132 8 10.7998 7.67439 10.7998 7.27273V4.36364C10.7998 3.5921 10.5048 2.85216 9.9797 2.3066C9.4546 1.76104 8.74241 1.45455 7.9998 1.45455Z" fill="white"/>
<path fill-rule="evenodd" clip-rule="evenodd" d="M7.9998 1.45455C7.2572 1.45455 6.54501 1.76104 6.01991 2.3066C5.4948 2.85216 5.1998 3.5921 5.1998 4.36364V7.27273C5.1998 7.67439 4.8864 8 4.4998 8C4.11321 8 3.7998 7.67439 3.7998 7.27273V4.36364C3.7998 3.20633 4.2423 2.09642 5.02996 1.27808C5.81761 0.459739 6.8859 0 7.9998 0C9.11371 0 10.182 0.459739 10.9697 1.27808C11.7573 2.09642 12.1998 3.20633 12.1998 4.36364V7.27273C12.1998 7.67439 11.8864 8 11.4998 8C11.1132 8 10.7998 7.67439 10.7998 7.27273V4.36364C10.7998 3.5921 10.5048 2.85216 9.9797 2.3066C9.4546 1.76104 8.74241 1.45455 7.9998 1.45455Z" fill="#4E5D78"/>
</svg>
