<svg width="118" height="28" viewBox="0 0 118 28" fill="none" xmlns="http://www.w3.org/2000/svg">
<path d="M40.5879 7.20312L43.875 16.4844L47.1445 7.20312H50.6074V20H47.9619V16.502L48.2256 10.4639L44.7715 20H42.9609L39.5156 10.4727L39.7793 16.502V20H37.1426V7.20312H40.5879ZM57.1201 20.1758C55.7256 20.1758 54.5889 19.748 53.71 18.8926C52.8369 18.0371 52.4004 16.8975 52.4004 15.4736V15.2275C52.4004 14.2725 52.585 13.4199 52.9541 12.6699C53.3232 11.9141 53.8447 11.334 54.5186 10.9297C55.1982 10.5195 55.9717 10.3145 56.8389 10.3145C58.1396 10.3145 59.1621 10.7246 59.9062 11.5449C60.6562 12.3652 61.0312 13.5283 61.0312 15.0342V16.0713H54.9756C55.0576 16.6924 55.3037 17.1904 55.7139 17.5654C56.1299 17.9404 56.6543 18.1279 57.2871 18.1279C58.2656 18.1279 59.0303 17.7734 59.5811 17.0645L60.8291 18.4619C60.4482 19.001 59.9326 19.4229 59.2822 19.7275C58.6318 20.0264 57.9111 20.1758 57.1201 20.1758ZM56.8301 12.3711C56.3262 12.3711 55.916 12.541 55.5996 12.8809C55.2891 13.2207 55.0898 13.707 55.002 14.3398H58.5352V14.1377C58.5234 13.5752 58.3711 13.1416 58.0781 12.8369C57.7852 12.5264 57.3691 12.3711 56.8301 12.3711ZM66.8584 20.1758C65.4639 20.1758 64.3271 19.748 63.4482 18.8926C62.5752 18.0371 62.1387 16.8975 62.1387 15.4736V15.2275C62.1387 14.2725 62.3232 13.4199 62.6924 12.6699C63.0615 11.9141 63.583 11.334 64.2568 10.9297C64.9365 10.5195 65.71 10.3145 66.5771 10.3145C67.8779 10.3145 68.9004 10.7246 69.6445 11.5449C70.3945 12.3652 70.7695 13.5283 70.7695 15.0342V16.0713H64.7139C64.7959 16.6924 65.042 17.1904 65.4521 17.5654C65.8682 17.9404 66.3926 18.1279 67.0254 18.1279C68.0039 18.1279 68.7686 17.7734 69.3193 17.0645L70.5674 18.4619C70.1865 19.001 69.6709 19.4229 69.0205 19.7275C68.3701 20.0264 67.6494 20.1758 66.8584 20.1758ZM66.5684 12.3711C66.0645 12.3711 65.6543 12.541 65.3379 12.8809C65.0273 13.2207 64.8281 13.707 64.7402 14.3398H68.2734V14.1377C68.2617 13.5752 68.1094 13.1416 67.8164 12.8369C67.5234 12.5264 67.1074 12.3711 66.5684 12.3711ZM75.2607 8.15234V10.4902H76.8867V12.3535H75.2607V17.0996C75.2607 17.4512 75.3281 17.7031 75.4629 17.8555C75.5977 18.0078 75.8555 18.084 76.2363 18.084C76.5176 18.084 76.7666 18.0635 76.9834 18.0225V19.9473C76.4854 20.0996 75.9727 20.1758 75.4453 20.1758C73.6641 20.1758 72.7559 19.2764 72.7207 17.4775V12.3535H71.332V10.4902H72.7207V8.15234H75.2607ZM80.6836 10.4902L80.7627 11.5537C81.4365 10.7275 82.3477 10.3145 83.4961 10.3145C84.7207 10.3145 85.5615 10.7979 86.0186 11.7646C86.6865 10.7979 87.6387 10.3145 88.875 10.3145C89.9062 10.3145 90.6738 10.6162 91.1777 11.2197C91.6816 11.8174 91.9336 12.7197 91.9336 13.9268V20H89.3848V13.9355C89.3848 13.3965 89.2793 13.0039 89.0684 12.7578C88.8574 12.5059 88.4854 12.3799 87.9521 12.3799C87.1904 12.3799 86.6631 12.7432 86.3701 13.4697L86.3789 20H83.8389V13.9443C83.8389 13.3936 83.7305 12.9951 83.5137 12.749C83.2969 12.5029 82.9277 12.3799 82.4062 12.3799C81.6855 12.3799 81.1641 12.6787 80.8418 13.2764V20H78.3018V10.4902H80.6836ZM99.4043 20C99.2871 19.7715 99.2021 19.4873 99.1494 19.1475C98.5342 19.833 97.7344 20.1758 96.75 20.1758C95.8184 20.1758 95.0449 19.9062 94.4297 19.3672C93.8203 18.8281 93.5156 18.1484 93.5156 17.3281C93.5156 16.3203 93.8877 15.5469 94.6318 15.0078C95.3818 14.4688 96.4629 14.1963 97.875 14.1904H99.0439V13.6455C99.0439 13.2061 98.9297 12.8545 98.7012 12.5908C98.4785 12.3271 98.124 12.1953 97.6377 12.1953C97.21 12.1953 96.873 12.2979 96.627 12.5029C96.3867 12.708 96.2666 12.9893 96.2666 13.3467H93.7266C93.7266 12.7959 93.8965 12.2861 94.2363 11.8174C94.5762 11.3486 95.0566 10.9824 95.6777 10.7188C96.2988 10.4492 96.9961 10.3145 97.7695 10.3145C98.9414 10.3145 99.8701 10.6104 100.556 11.2021C101.247 11.7881 101.593 12.6143 101.593 13.6807V17.8027C101.599 18.7051 101.725 19.3877 101.971 19.8506V20H99.4043ZM97.3037 18.2334C97.6787 18.2334 98.0244 18.1514 98.3408 17.9873C98.6572 17.8174 98.8916 17.5918 99.0439 17.3105V15.6758H98.0947C96.8232 15.6758 96.1465 16.1152 96.0645 16.9941L96.0557 17.1436C96.0557 17.46 96.167 17.7207 96.3896 17.9258C96.6123 18.1309 96.917 18.2334 97.3037 18.2334ZM107.165 13.3291L108.765 10.4902H111.48L108.773 15.1484L111.595 20H108.87L107.174 17.0117L105.486 20H102.753L105.574 15.1484L102.876 10.4902H105.601L107.165 13.3291Z" fill="white"/>
<path d="M40.5879 7.20312L43.875 16.4844L47.1445 7.20312H50.6074V20H47.9619V16.502L48.2256 10.4639L44.7715 20H42.9609L39.5156 10.4727L39.7793 16.502V20H37.1426V7.20312H40.5879ZM57.1201 20.1758C55.7256 20.1758 54.5889 19.748 53.71 18.8926C52.8369 18.0371 52.4004 16.8975 52.4004 15.4736V15.2275C52.4004 14.2725 52.585 13.4199 52.9541 12.6699C53.3232 11.9141 53.8447 11.334 54.5186 10.9297C55.1982 10.5195 55.9717 10.3145 56.8389 10.3145C58.1396 10.3145 59.1621 10.7246 59.9062 11.5449C60.6562 12.3652 61.0312 13.5283 61.0312 15.0342V16.0713H54.9756C55.0576 16.6924 55.3037 17.1904 55.7139 17.5654C56.1299 17.9404 56.6543 18.1279 57.2871 18.1279C58.2656 18.1279 59.0303 17.7734 59.5811 17.0645L60.8291 18.4619C60.4482 19.001 59.9326 19.4229 59.2822 19.7275C58.6318 20.0264 57.9111 20.1758 57.1201 20.1758ZM56.8301 12.3711C56.3262 12.3711 55.916 12.541 55.5996 12.8809C55.2891 13.2207 55.0898 13.707 55.002 14.3398H58.5352V14.1377C58.5234 13.5752 58.3711 13.1416 58.0781 12.8369C57.7852 12.5264 57.3691 12.3711 56.8301 12.3711ZM66.8584 20.1758C65.4639 20.1758 64.3271 19.748 63.4482 18.8926C62.5752 18.0371 62.1387 16.8975 62.1387 15.4736V15.2275C62.1387 14.2725 62.3232 13.4199 62.6924 12.6699C63.0615 11.9141 63.583 11.334 64.2568 10.9297C64.9365 10.5195 65.71 10.3145 66.5771 10.3145C67.8779 10.3145 68.9004 10.7246 69.6445 11.5449C70.3945 12.3652 70.7695 13.5283 70.7695 15.0342V16.0713H64.7139C64.7959 16.6924 65.042 17.1904 65.4521 17.5654C65.8682 17.9404 66.3926 18.1279 67.0254 18.1279C68.0039 18.1279 68.7686 17.7734 69.3193 17.0645L70.5674 18.4619C70.1865 19.001 69.6709 19.4229 69.0205 19.7275C68.3701 20.0264 67.6494 20.1758 66.8584 20.1758ZM66.5684 12.3711C66.0645 12.3711 65.6543 12.541 65.3379 12.8809C65.0273 13.2207 64.8281 13.707 64.7402 14.3398H68.2734V14.1377C68.2617 13.5752 68.1094 13.1416 67.8164 12.8369C67.5234 12.5264 67.1074 12.3711 66.5684 12.3711ZM75.2607 8.15234V10.4902H76.8867V12.3535H75.2607V17.0996C75.2607 17.4512 75.3281 17.7031 75.4629 17.8555C75.5977 18.0078 75.8555 18.084 76.2363 18.084C76.5176 18.084 76.7666 18.0635 76.9834 18.0225V19.9473C76.4854 20.0996 75.9727 20.1758 75.4453 20.1758C73.6641 20.1758 72.7559 19.2764 72.7207 17.4775V12.3535H71.332V10.4902H72.7207V8.15234H75.2607ZM80.6836 10.4902L80.7627 11.5537C81.4365 10.7275 82.3477 10.3145 83.4961 10.3145C84.7207 10.3145 85.5615 10.7979 86.0186 11.7646C86.6865 10.7979 87.6387 10.3145 88.875 10.3145C89.9062 10.3145 90.6738 10.6162 91.1777 11.2197C91.6816 11.8174 91.9336 12.7197 91.9336 13.9268V20H89.3848V13.9355C89.3848 13.3965 89.2793 13.0039 89.0684 12.7578C88.8574 12.5059 88.4854 12.3799 87.9521 12.3799C87.1904 12.3799 86.6631 12.7432 86.3701 13.4697L86.3789 20H83.8389V13.9443C83.8389 13.3936 83.7305 12.9951 83.5137 12.749C83.2969 12.5029 82.9277 12.3799 82.4062 12.3799C81.6855 12.3799 81.1641 12.6787 80.8418 13.2764V20H78.3018V10.4902H80.6836ZM99.4043 20C99.2871 19.7715 99.2021 19.4873 99.1494 19.1475C98.5342 19.833 97.7344 20.1758 96.75 20.1758C95.8184 20.1758 95.0449 19.9062 94.4297 19.3672C93.8203 18.8281 93.5156 18.1484 93.5156 17.3281C93.5156 16.3203 93.8877 15.5469 94.6318 15.0078C95.3818 14.4688 96.4629 14.1963 97.875 14.1904H99.0439V13.6455C99.0439 13.2061 98.9297 12.8545 98.7012 12.5908C98.4785 12.3271 98.124 12.1953 97.6377 12.1953C97.21 12.1953 96.873 12.2979 96.627 12.5029C96.3867 12.708 96.2666 12.9893 96.2666 13.3467H93.7266C93.7266 12.7959 93.8965 12.2861 94.2363 11.8174C94.5762 11.3486 95.0566 10.9824 95.6777 10.7188C96.2988 10.4492 96.9961 10.3145 97.7695 10.3145C98.9414 10.3145 99.8701 10.6104 100.556 11.2021C101.247 11.7881 101.593 12.6143 101.593 13.6807V17.8027C101.599 18.7051 101.725 19.3877 101.971 19.8506V20H99.4043ZM97.3037 18.2334C97.6787 18.2334 98.0244 18.1514 98.3408 17.9873C98.6572 17.8174 98.8916 17.5918 99.0439 17.3105V15.6758H98.0947C96.8232 15.6758 96.1465 16.1152 96.0645 16.9941L96.0557 17.1436C96.0557 17.46 96.167 17.7207 96.3896 17.9258C96.6123 18.1309 96.917 18.2334 97.3037 18.2334ZM107.165 13.3291L108.765 10.4902H111.48L108.773 15.1484L111.595 20H108.87L107.174 17.0117L105.486 20H102.753L105.574 15.1484L102.876 10.4902H105.601L107.165 13.3291Z" fill="#4E5D78"/>
<path d="M10.4 1H15.6C18.3583 1 21.0035 2.12381 22.9539 4.12419C24.9043 6.12458 26 8.83769 26 11.6667C26 14.4956 24.9043 17.2088 22.9539 19.2091C21.0035 21.2095 18.3583 22.3333 15.6 22.3333V27C9.1 24.3333 0 20.3333 0 11.6667C0 8.83769 1.09571 6.12458 3.04609 4.12419C4.99647 2.12381 7.64175 1 10.4 1V1Z" fill="#377DFF"/>
<path d="M19 10C19 11.5913 18.3679 13.1174 17.2426 14.2426C16.1174 15.3679 14.5913 16 13 16C11.4087 16 9.88258 15.3679 8.75736 14.2426C7.63214 13.1174 7 11.5913 7 10L9.4 10C9.4 10.9548 9.77928 11.8705 10.4544 12.5456C11.1295 13.2207 12.0452 13.6 13 13.6C13.9548 13.6 14.8705 13.2207 15.5456 12.5456C16.2207 11.8705 16.6 10.9548 16.6 10H19Z" fill="white"/>
</svg>
