<svg width="128" height="20" viewBox="0 0 128 20" fill="none" xmlns="http://www.w3.org/2000/svg">
<path d="M28.7188 4.625L32 13.3438L35.2734 4.625H37.8281V16H35.8594V12.25L36.0547 7.23438L32.6953 16H31.2812L27.9297 7.24219L28.125 12.25V16H26.1562V4.625H28.7188ZM43.7109 16.1562C42.5078 16.1562 41.5312 15.7786 40.7812 15.0234C40.0365 14.263 39.6641 13.2526 39.6641 11.9922V11.7578C39.6641 10.9141 39.8255 10.1615 40.1484 9.5C40.4766 8.83333 40.9349 8.3151 41.5234 7.94531C42.112 7.57552 42.7682 7.39062 43.4922 7.39062C44.6432 7.39062 45.5312 7.75781 46.1562 8.49219C46.7865 9.22656 47.1016 10.2656 47.1016 11.6094V12.375H41.5781C41.6354 13.0729 41.8672 13.625 42.2734 14.0312C42.6849 14.4375 43.2005 14.6406 43.8203 14.6406C44.6901 14.6406 45.3984 14.2891 45.9453 13.5859L46.9688 14.5625C46.6302 15.0677 46.1771 15.4609 45.6094 15.7422C45.0469 16.0182 44.4141 16.1562 43.7109 16.1562ZM43.4844 8.91406C42.9635 8.91406 42.5417 9.09635 42.2188 9.46094C41.901 9.82552 41.6979 10.3333 41.6094 10.9844H45.2266V10.8438C45.1849 10.2083 45.0156 9.72917 44.7188 9.40625C44.4219 9.07812 44.0104 8.91406 43.4844 8.91406ZM52.3047 16.1562C51.1016 16.1562 50.125 15.7786 49.375 15.0234C48.6302 14.263 48.2578 13.2526 48.2578 11.9922V11.7578C48.2578 10.9141 48.4193 10.1615 48.7422 9.5C49.0703 8.83333 49.5286 8.3151 50.1172 7.94531C50.7057 7.57552 51.362 7.39062 52.0859 7.39062C53.237 7.39062 54.125 7.75781 54.75 8.49219C55.3802 9.22656 55.6953 10.2656 55.6953 11.6094V12.375H50.1719C50.2292 13.0729 50.4609 13.625 50.8672 14.0312C51.2786 14.4375 51.7943 14.6406 52.4141 14.6406C53.2839 14.6406 53.9922 14.2891 54.5391 13.5859L55.5625 14.5625C55.224 15.0677 54.7708 15.4609 54.2031 15.7422C53.6406 16.0182 53.0078 16.1562 52.3047 16.1562ZM52.0781 8.91406C51.5573 8.91406 51.1354 9.09635 50.8125 9.46094C50.4948 9.82552 50.2917 10.3333 50.2031 10.9844H53.8203V10.8438C53.7786 10.2083 53.6094 9.72917 53.3125 9.40625C53.0156 9.07812 52.6042 8.91406 52.0781 8.91406ZM59.5547 5.49219V7.54688H61.0469V8.95312H59.5547V13.6719C59.5547 13.9948 59.6172 14.2292 59.7422 14.375C59.8724 14.5156 60.1016 14.5859 60.4297 14.5859C60.6484 14.5859 60.8698 14.5599 61.0938 14.5078V15.9766C60.6615 16.0964 60.2448 16.1562 59.8438 16.1562C58.3854 16.1562 57.6562 15.3516 57.6562 13.7422V8.95312H56.2656V7.54688H57.6562V5.49219H59.5547ZM64.2891 7.54688L64.3438 8.42969C64.9375 7.73698 65.75 7.39062 66.7812 7.39062C67.9115 7.39062 68.6849 7.82292 69.1016 8.6875C69.7161 7.82292 70.5807 7.39062 71.6953 7.39062C72.6276 7.39062 73.3203 7.64844 73.7734 8.16406C74.2318 8.67969 74.4661 9.4401 74.4766 10.4453V16H72.5781V10.5C72.5781 9.96354 72.4609 9.57031 72.2266 9.32031C71.9922 9.07031 71.6042 8.94531 71.0625 8.94531C70.6302 8.94531 70.276 9.0625 70 9.29688C69.7292 9.52604 69.5391 9.82812 69.4297 10.2031L69.4375 16H67.5391V10.4375C67.513 9.44271 67.0052 8.94531 66.0156 8.94531C65.2552 8.94531 64.7161 9.25521 64.3984 9.875V16H62.5V7.54688H64.2891ZM81.4766 16C81.3932 15.8385 81.3203 15.5755 81.2578 15.2109C80.6536 15.8411 79.9141 16.1562 79.0391 16.1562C78.1901 16.1562 77.4974 15.9141 76.9609 15.4297C76.4245 14.9453 76.1562 14.3464 76.1562 13.6328C76.1562 12.7318 76.4896 12.0417 77.1562 11.5625C77.8281 11.0781 78.7865 10.8359 80.0312 10.8359H81.1953V10.2812C81.1953 9.84375 81.0729 9.49479 80.8281 9.23438C80.5833 8.96875 80.2109 8.83594 79.7109 8.83594C79.2786 8.83594 78.9245 8.94531 78.6484 9.16406C78.3724 9.3776 78.2344 9.65104 78.2344 9.98438H76.3359C76.3359 9.52083 76.4896 9.08854 76.7969 8.6875C77.1042 8.28125 77.5208 7.96354 78.0469 7.73438C78.5781 7.50521 79.1693 7.39062 79.8203 7.39062C80.8099 7.39062 81.599 7.64062 82.1875 8.14062C82.776 8.63542 83.0781 9.33333 83.0938 10.2344V14.0469C83.0938 14.8073 83.2005 15.4141 83.4141 15.8672V16H81.4766ZM79.3906 14.6328C79.7656 14.6328 80.1172 14.5417 80.4453 14.3594C80.7786 14.1771 81.0286 13.9323 81.1953 13.625V12.0312H80.1719C79.4688 12.0312 78.9401 12.1536 78.5859 12.3984C78.2318 12.6432 78.0547 12.9896 78.0547 13.4375C78.0547 13.8021 78.1745 14.0938 78.4141 14.3125C78.6589 14.526 78.9844 14.6328 79.3906 14.6328ZM88.1172 10.3281L89.7266 7.54688H91.8359L89.25 11.7109L91.9219 16H89.8281L88.1406 13.1094L86.4609 16H84.3516L87.0234 11.7109L84.4453 7.54688H86.5391L88.1172 10.3281ZM105.977 12.2969C105.862 13.5104 105.414 14.4583 104.633 15.1406C103.852 15.8177 102.812 16.1562 101.516 16.1562C100.609 16.1562 99.8099 15.9427 99.1172 15.5156C98.4297 15.0833 97.8984 14.4714 97.5234 13.6797C97.1484 12.888 96.9531 11.9688 96.9375 10.9219V9.85938C96.9375 8.78646 97.1276 7.84115 97.5078 7.02344C97.888 6.20573 98.4323 5.57552 99.1406 5.13281C99.8542 4.6901 100.677 4.46875 101.609 4.46875C102.865 4.46875 103.875 4.8099 104.641 5.49219C105.406 6.17448 105.852 7.13802 105.977 8.38281H104.008C103.914 7.5651 103.674 6.97656 103.289 6.61719C102.909 6.2526 102.349 6.07031 101.609 6.07031C100.75 6.07031 100.089 6.38542 99.625 7.01562C99.1667 7.64062 98.9323 8.5599 98.9219 9.77344V10.7812C98.9219 12.0104 99.1406 12.9479 99.5781 13.5938C100.021 14.2396 100.667 14.5625 101.516 14.5625C102.292 14.5625 102.875 14.388 103.266 14.0391C103.656 13.6901 103.904 13.1094 104.008 12.2969H105.977ZM112.617 16C112.534 15.8385 112.461 15.5755 112.398 15.2109C111.794 15.8411 111.055 16.1562 110.18 16.1562C109.331 16.1562 108.638 15.9141 108.102 15.4297C107.565 14.9453 107.297 14.3464 107.297 13.6328C107.297 12.7318 107.63 12.0417 108.297 11.5625C108.969 11.0781 109.927 10.8359 111.172 10.8359H112.336V10.2812C112.336 9.84375 112.214 9.49479 111.969 9.23438C111.724 8.96875 111.352 8.83594 110.852 8.83594C110.419 8.83594 110.065 8.94531 109.789 9.16406C109.513 9.3776 109.375 9.65104 109.375 9.98438H107.477C107.477 9.52083 107.63 9.08854 107.938 8.6875C108.245 8.28125 108.661 7.96354 109.188 7.73438C109.719 7.50521 110.31 7.39062 110.961 7.39062C111.951 7.39062 112.74 7.64062 113.328 8.14062C113.917 8.63542 114.219 9.33333 114.234 10.2344V14.0469C114.234 14.8073 114.341 15.4141 114.555 15.8672V16H112.617ZM110.531 14.6328C110.906 14.6328 111.258 14.5417 111.586 14.3594C111.919 14.1771 112.169 13.9323 112.336 13.625V12.0312H111.312C110.609 12.0312 110.081 12.1536 109.727 12.3984C109.372 12.6432 109.195 12.9896 109.195 13.4375C109.195 13.8021 109.315 14.0938 109.555 14.3125C109.799 14.526 110.125 14.6328 110.531 14.6328ZM118.242 16H116.344V4H118.242V16ZM122.336 16H120.438V4H122.336V16Z" fill="white"/>
<path d="M28.7188 4.625L32 13.3438L35.2734 4.625H37.8281V16H35.8594V12.25L36.0547 7.23438L32.6953 16H31.2812L27.9297 7.24219L28.125 12.25V16H26.1562V4.625H28.7188ZM43.7109 16.1562C42.5078 16.1562 41.5312 15.7786 40.7812 15.0234C40.0365 14.263 39.6641 13.2526 39.6641 11.9922V11.7578C39.6641 10.9141 39.8255 10.1615 40.1484 9.5C40.4766 8.83333 40.9349 8.3151 41.5234 7.94531C42.112 7.57552 42.7682 7.39062 43.4922 7.39062C44.6432 7.39062 45.5312 7.75781 46.1562 8.49219C46.7865 9.22656 47.1016 10.2656 47.1016 11.6094V12.375H41.5781C41.6354 13.0729 41.8672 13.625 42.2734 14.0312C42.6849 14.4375 43.2005 14.6406 43.8203 14.6406C44.6901 14.6406 45.3984 14.2891 45.9453 13.5859L46.9688 14.5625C46.6302 15.0677 46.1771 15.4609 45.6094 15.7422C45.0469 16.0182 44.4141 16.1562 43.7109 16.1562ZM43.4844 8.91406C42.9635 8.91406 42.5417 9.09635 42.2188 9.46094C41.901 9.82552 41.6979 10.3333 41.6094 10.9844H45.2266V10.8438C45.1849 10.2083 45.0156 9.72917 44.7188 9.40625C44.4219 9.07812 44.0104 8.91406 43.4844 8.91406ZM52.3047 16.1562C51.1016 16.1562 50.125 15.7786 49.375 15.0234C48.6302 14.263 48.2578 13.2526 48.2578 11.9922V11.7578C48.2578 10.9141 48.4193 10.1615 48.7422 9.5C49.0703 8.83333 49.5286 8.3151 50.1172 7.94531C50.7057 7.57552 51.362 7.39062 52.0859 7.39062C53.237 7.39062 54.125 7.75781 54.75 8.49219C55.3802 9.22656 55.6953 10.2656 55.6953 11.6094V12.375H50.1719C50.2292 13.0729 50.4609 13.625 50.8672 14.0312C51.2786 14.4375 51.7943 14.6406 52.4141 14.6406C53.2839 14.6406 53.9922 14.2891 54.5391 13.5859L55.5625 14.5625C55.224 15.0677 54.7708 15.4609 54.2031 15.7422C53.6406 16.0182 53.0078 16.1562 52.3047 16.1562ZM52.0781 8.91406C51.5573 8.91406 51.1354 9.09635 50.8125 9.46094C50.4948 9.82552 50.2917 10.3333 50.2031 10.9844H53.8203V10.8438C53.7786 10.2083 53.6094 9.72917 53.3125 9.40625C53.0156 9.07812 52.6042 8.91406 52.0781 8.91406ZM59.5547 5.49219V7.54688H61.0469V8.95312H59.5547V13.6719C59.5547 13.9948 59.6172 14.2292 59.7422 14.375C59.8724 14.5156 60.1016 14.5859 60.4297 14.5859C60.6484 14.5859 60.8698 14.5599 61.0938 14.5078V15.9766C60.6615 16.0964 60.2448 16.1562 59.8438 16.1562C58.3854 16.1562 57.6562 15.3516 57.6562 13.7422V8.95312H56.2656V7.54688H57.6562V5.49219H59.5547ZM64.2891 7.54688L64.3438 8.42969C64.9375 7.73698 65.75 7.39062 66.7812 7.39062C67.9115 7.39062 68.6849 7.82292 69.1016 8.6875C69.7161 7.82292 70.5807 7.39062 71.6953 7.39062C72.6276 7.39062 73.3203 7.64844 73.7734 8.16406C74.2318 8.67969 74.4661 9.4401 74.4766 10.4453V16H72.5781V10.5C72.5781 9.96354 72.4609 9.57031 72.2266 9.32031C71.9922 9.07031 71.6042 8.94531 71.0625 8.94531C70.6302 8.94531 70.276 9.0625 70 9.29688C69.7292 9.52604 69.5391 9.82812 69.4297 10.2031L69.4375 16H67.5391V10.4375C67.513 9.44271 67.0052 8.94531 66.0156 8.94531C65.2552 8.94531 64.7161 9.25521 64.3984 9.875V16H62.5V7.54688H64.2891ZM81.4766 16C81.3932 15.8385 81.3203 15.5755 81.2578 15.2109C80.6536 15.8411 79.9141 16.1562 79.0391 16.1562C78.1901 16.1562 77.4974 15.9141 76.9609 15.4297C76.4245 14.9453 76.1562 14.3464 76.1562 13.6328C76.1562 12.7318 76.4896 12.0417 77.1562 11.5625C77.8281 11.0781 78.7865 10.8359 80.0312 10.8359H81.1953V10.2812C81.1953 9.84375 81.0729 9.49479 80.8281 9.23438C80.5833 8.96875 80.2109 8.83594 79.7109 8.83594C79.2786 8.83594 78.9245 8.94531 78.6484 9.16406C78.3724 9.3776 78.2344 9.65104 78.2344 9.98438H76.3359C76.3359 9.52083 76.4896 9.08854 76.7969 8.6875C77.1042 8.28125 77.5208 7.96354 78.0469 7.73438C78.5781 7.50521 79.1693 7.39062 79.8203 7.39062C80.8099 7.39062 81.599 7.64062 82.1875 8.14062C82.776 8.63542 83.0781 9.33333 83.0938 10.2344V14.0469C83.0938 14.8073 83.2005 15.4141 83.4141 15.8672V16H81.4766ZM79.3906 14.6328C79.7656 14.6328 80.1172 14.5417 80.4453 14.3594C80.7786 14.1771 81.0286 13.9323 81.1953 13.625V12.0312H80.1719C79.4688 12.0312 78.9401 12.1536 78.5859 12.3984C78.2318 12.6432 78.0547 12.9896 78.0547 13.4375C78.0547 13.8021 78.1745 14.0938 78.4141 14.3125C78.6589 14.526 78.9844 14.6328 79.3906 14.6328ZM88.1172 10.3281L89.7266 7.54688H91.8359L89.25 11.7109L91.9219 16H89.8281L88.1406 13.1094L86.4609 16H84.3516L87.0234 11.7109L84.4453 7.54688H86.5391L88.1172 10.3281ZM105.977 12.2969C105.862 13.5104 105.414 14.4583 104.633 15.1406C103.852 15.8177 102.812 16.1562 101.516 16.1562C100.609 16.1562 99.8099 15.9427 99.1172 15.5156C98.4297 15.0833 97.8984 14.4714 97.5234 13.6797C97.1484 12.888 96.9531 11.9688 96.9375 10.9219V9.85938C96.9375 8.78646 97.1276 7.84115 97.5078 7.02344C97.888 6.20573 98.4323 5.57552 99.1406 5.13281C99.8542 4.6901 100.677 4.46875 101.609 4.46875C102.865 4.46875 103.875 4.8099 104.641 5.49219C105.406 6.17448 105.852 7.13802 105.977 8.38281H104.008C103.914 7.5651 103.674 6.97656 103.289 6.61719C102.909 6.2526 102.349 6.07031 101.609 6.07031C100.75 6.07031 100.089 6.38542 99.625 7.01562C99.1667 7.64062 98.9323 8.5599 98.9219 9.77344V10.7812C98.9219 12.0104 99.1406 12.9479 99.5781 13.5938C100.021 14.2396 100.667 14.5625 101.516 14.5625C102.292 14.5625 102.875 14.388 103.266 14.0391C103.656 13.6901 103.904 13.1094 104.008 12.2969H105.977ZM112.617 16C112.534 15.8385 112.461 15.5755 112.398 15.2109C111.794 15.8411 111.055 16.1562 110.18 16.1562C109.331 16.1562 108.638 15.9141 108.102 15.4297C107.565 14.9453 107.297 14.3464 107.297 13.6328C107.297 12.7318 107.63 12.0417 108.297 11.5625C108.969 11.0781 109.927 10.8359 111.172 10.8359H112.336V10.2812C112.336 9.84375 112.214 9.49479 111.969 9.23438C111.724 8.96875 111.352 8.83594 110.852 8.83594C110.419 8.83594 110.065 8.94531 109.789 9.16406C109.513 9.3776 109.375 9.65104 109.375 9.98438H107.477C107.477 9.52083 107.63 9.08854 107.938 8.6875C108.245 8.28125 108.661 7.96354 109.188 7.73438C109.719 7.50521 110.31 7.39062 110.961 7.39062C111.951 7.39062 112.74 7.64062 113.328 8.14062C113.917 8.63542 114.219 9.33333 114.234 10.2344V14.0469C114.234 14.8073 114.341 15.4141 114.555 15.8672V16H112.617ZM110.531 14.6328C110.906 14.6328 111.258 14.5417 111.586 14.3594C111.919 14.1771 112.169 13.9323 112.336 13.625V12.0312H111.312C110.609 12.0312 110.081 12.1536 109.727 12.3984C109.372 12.6432 109.195 12.9896 109.195 13.4375C109.195 13.8021 109.315 14.0938 109.555 14.3125C109.799 14.526 110.125 14.6328 110.531 14.6328ZM118.242 16H116.344V4H118.242V16ZM122.336 16H120.438V4H122.336V16Z" fill="#4E5D78"/>
<path d="M8 0H12C14.1217 0 16.1566 0.864467 17.6569 2.40323C19.1571 3.94199 20 6.02899 20 8.20513C20 10.3813 19.1571 12.4683 17.6569 14.007C16.1566 15.5458 14.1217 16.4103 12 16.4103V20C7 17.9487 0 14.8718 0 8.20513C0 6.02899 0.842855 3.94199 2.34315 2.40323C3.84344 0.864467 5.87827 0 8 0V0Z" fill="#377DFF"/>
<path d="M15 7C15 8.32608 14.4732 9.59785 13.5355 10.5355C12.5979 11.4732 11.3261 12 10 12C8.67392 12 7.40215 11.4732 6.46447 10.5355C5.52678 9.59785 5 8.32608 5 7L7 7C7 7.79565 7.31607 8.55871 7.87868 9.12132C8.44129 9.68393 9.20435 10 10 10C10.7956 10 11.5587 9.68393 12.1213 9.12132C12.6839 8.55871 13 7.79565 13 7H15Z" fill="white"/>
</svg>
