<svg width="16" height="16" viewBox="0 0 16 16" fill="none" xmlns="http://www.w3.org/2000/svg">
<path fill-rule="evenodd" clip-rule="evenodd" d="M7.99993 6.04438C6.91991 6.04438 6.04438 6.91991 6.04438 7.99993C6.04438 9.07996 6.91991 9.95549 7.99993 9.95549C9.07996 9.95549 9.95549 9.07996 9.95549 7.99993C9.95549 6.91991 9.07996 6.04438 7.99993 6.04438ZM4.2666 7.99993C4.2666 5.93807 5.93807 4.2666 7.99993 4.2666C10.0618 4.2666 11.7333 5.93807 11.7333 7.99993C11.7333 10.0618 10.0618 11.7333 7.99993 11.7333C5.93807 11.7333 4.2666 10.0618 4.2666 7.99993Z" fill="white"/>
<path fill-rule="evenodd" clip-rule="evenodd" d="M7.99993 6.04438C6.91991 6.04438 6.04438 6.91991 6.04438 7.99993C6.04438 9.07996 6.91991 9.95549 7.99993 9.95549C9.07996 9.95549 9.95549 9.07996 9.95549 7.99993C9.95549 6.91991 9.07996 6.04438 7.99993 6.04438ZM4.2666 7.99993C4.2666 5.93807 5.93807 4.2666 7.99993 4.2666C10.0618 4.2666 11.7333 5.93807 11.7333 7.99993C11.7333 10.0618 10.0618 11.7333 7.99993 11.7333C5.93807 11.7333 4.2666 10.0618 4.2666 7.99993Z" fill="#4E5D78"/>
<path fill-rule="evenodd" clip-rule="evenodd" d="M4.58188 0.766997C6.21435 -0.00446314 8.05979 -0.201001 9.81812 0.209341C11.5764 0.619683 13.1443 1.61277 14.2666 3.02713C15.389 4.44148 15.9999 6.19392 16 7.9995V8.71067C16 9.51221 15.6816 10.2809 15.1148 10.8477C14.548 11.4145 13.7793 11.7329 12.9778 11.7329C12.1762 11.7329 11.4075 11.4145 10.8407 10.8477C10.274 10.2809 9.95556 9.51221 9.95556 8.71067V5.15511C9.95556 4.66419 10.3535 4.26622 10.8444 4.26622C11.3354 4.26622 11.7333 4.66419 11.7333 5.15511V8.71067C11.7333 9.04071 11.8644 9.35724 12.0978 9.59062C12.3312 9.824 12.6477 9.95511 12.9778 9.95511C13.3078 9.95511 13.6244 9.824 13.8577 9.59062C14.0911 9.35724 14.2222 9.04071 14.2222 8.71067V7.99961C14.2222 7.99959 14.2222 7.99963 14.2222 7.99961C14.2221 6.5953 13.747 5.23225 12.874 4.13221C12.0011 3.03216 10.7817 2.25976 9.41409 1.9406C8.0465 1.62145 6.61116 1.77431 5.34147 2.37433C4.07177 2.97436 3.04239 3.98625 2.4207 5.24549C1.79901 6.50472 1.62159 7.93723 1.91727 9.31008C2.21295 10.6829 2.96435 11.9154 4.04929 12.8071C5.13423 13.6987 6.4889 14.1972 7.89303 14.2213C9.29715 14.2454 10.6682 13.7939 11.7831 12.9401C12.1729 12.6416 12.7308 12.7156 13.0293 13.1053C13.3278 13.4951 13.2538 14.053 12.864 14.3515C11.4305 15.4493 9.66777 16.0299 7.86246 15.9988C6.05715 15.9678 4.31543 15.3269 2.92051 14.1805C1.52559 13.0341 0.559503 11.4495 0.179342 9.68439C-0.20082 7.91929 0.0273018 6.07749 0.826613 4.45848C1.62592 2.83947 2.94942 1.53846 4.58188 0.766997Z" fill="white"/>
<path fill-rule="evenodd" clip-rule="evenodd" d="M4.58188 0.766997C6.21435 -0.00446314 8.05979 -0.201001 9.81812 0.209341C11.5764 0.619683 13.1443 1.61277 14.2666 3.02713C15.389 4.44148 15.9999 6.19392 16 7.9995V8.71067C16 9.51221 15.6816 10.2809 15.1148 10.8477C14.548 11.4145 13.7793 11.7329 12.9778 11.7329C12.1762 11.7329 11.4075 11.4145 10.8407 10.8477C10.274 10.2809 9.95556 9.51221 9.95556 8.71067V5.15511C9.95556 4.66419 10.3535 4.26622 10.8444 4.26622C11.3354 4.26622 11.7333 4.66419 11.7333 5.15511V8.71067C11.7333 9.04071 11.8644 9.35724 12.0978 9.59062C12.3312 9.824 12.6477 9.95511 12.9778 9.95511C13.3078 9.95511 13.6244 9.824 13.8577 9.59062C14.0911 9.35724 14.2222 9.04071 14.2222 8.71067V7.99961C14.2222 7.99959 14.2222 7.99963 14.2222 7.99961C14.2221 6.5953 13.747 5.23225 12.874 4.13221C12.0011 3.03216 10.7817 2.25976 9.41409 1.9406C8.0465 1.62145 6.61116 1.77431 5.34147 2.37433C4.07177 2.97436 3.04239 3.98625 2.4207 5.24549C1.79901 6.50472 1.62159 7.93723 1.91727 9.31008C2.21295 10.6829 2.96435 11.9154 4.04929 12.8071C5.13423 13.6987 6.4889 14.1972 7.89303 14.2213C9.29715 14.2454 10.6682 13.7939 11.7831 12.9401C12.1729 12.6416 12.7308 12.7156 13.0293 13.1053C13.3278 13.4951 13.2538 14.053 12.864 14.3515C11.4305 15.4493 9.66777 16.0299 7.86246 15.9988C6.05715 15.9678 4.31543 15.3269 2.92051 14.1805C1.52559 13.0341 0.559503 11.4495 0.179342 9.68439C-0.20082 7.91929 0.0273018 6.07749 0.826613 4.45848C1.62592 2.83947 2.94942 1.53846 4.58188 0.766997Z" fill="#4E5D78"/>
</svg>
