<svg width="16" height="16" viewBox="0 0 16 16" fill="none" xmlns="http://www.w3.org/2000/svg">
<path d="M8.00036 1.45455C7.42216 1.45455 6.86764 1.68442 6.45879 2.09359C6.04994 2.50276 5.82025 3.05771 5.82025 3.63636V6.54545C5.82025 7.12411 6.04994 7.67906 6.45879 8.08823C6.86764 8.4974 7.42216 8.72727 8.00036 8.72727C8.57856 8.72727 9.13308 8.4974 9.54193 8.08823C9.95078 7.67906 10.1805 7.12411 10.1805 6.54545V3.63636C10.1805 3.05771 9.95078 2.50276 9.54193 2.09359C9.13308 1.68442 8.57856 1.45455 8.00036 1.45455ZM8.00036 0C8.47752 0 8.95001 0.0940573 9.39085 0.276802C9.83169 0.459546 10.2322 0.727399 10.5696 1.06507C10.9071 1.40273 11.1747 1.8036 11.3573 2.24479C11.5399 2.68597 11.6339 3.15883 11.6339 3.63636V6.54545C11.6339 7.50988 11.2511 8.4348 10.5696 9.11675C9.88823 9.7987 8.96403 10.1818 8.00036 10.1818C7.03669 10.1818 6.11249 9.7987 5.43108 9.11675C4.74966 8.4348 4.36685 7.50988 4.36685 6.54545V3.63636C4.36685 2.67194 4.74966 1.74702 5.43108 1.06507C6.11249 0.383116 7.03669 0 8.00036 0V0ZM1.5 7.27273H2.96431C3.14038 8.48348 3.74615 9.59031 4.67078 10.3907C5.59541 11.1912 6.77709 11.6317 7.99964 11.6317C9.22218 11.6317 10.4039 11.1912 11.3285 10.3907C12.2531 9.59031 12.8589 8.48348 13.035 7.27273H14.5C14.3348 8.74816 13.6735 10.1236 12.6245 11.1735C11.5756 12.2234 10.2013 12.8854 8.72707 13.0509V16H7.27366V13.0509C5.79928 12.8855 4.42482 12.2236 3.37575 11.1737C2.32667 10.1238 1.66526 8.74827 1.5 7.27273V7.27273Z" fill="white"/>
<path d="M8.00036 1.45455C7.42216 1.45455 6.86764 1.68442 6.45879 2.09359C6.04994 2.50276 5.82025 3.05771 5.82025 3.63636V6.54545C5.82025 7.12411 6.04994 7.67906 6.45879 8.08823C6.86764 8.4974 7.42216 8.72727 8.00036 8.72727C8.57856 8.72727 9.13308 8.4974 9.54193 8.08823C9.95078 7.67906 10.1805 7.12411 10.1805 6.54545V3.63636C10.1805 3.05771 9.95078 2.50276 9.54193 2.09359C9.13308 1.68442 8.57856 1.45455 8.00036 1.45455ZM8.00036 0C8.47752 0 8.95001 0.0940573 9.39085 0.276802C9.83169 0.459546 10.2322 0.727399 10.5696 1.06507C10.9071 1.40273 11.1747 1.8036 11.3573 2.24479C11.5399 2.68597 11.6339 3.15883 11.6339 3.63636V6.54545C11.6339 7.50988 11.2511 8.4348 10.5696 9.11675C9.88823 9.7987 8.96403 10.1818 8.00036 10.1818C7.03669 10.1818 6.11249 9.7987 5.43108 9.11675C4.74966 8.4348 4.36685 7.50988 4.36685 6.54545V3.63636C4.36685 2.67194 4.74966 1.74702 5.43108 1.06507C6.11249 0.383116 7.03669 0 8.00036 0V0ZM1.5 7.27273H2.96431C3.14038 8.48348 3.74615 9.59031 4.67078 10.3907C5.59541 11.1912 6.77709 11.6317 7.99964 11.6317C9.22218 11.6317 10.4039 11.1912 11.3285 10.3907C12.2531 9.59031 12.8589 8.48348 13.035 7.27273H14.5C14.3348 8.74816 13.6735 10.1236 12.6245 11.1735C11.5756 12.2234 10.2013 12.8854 8.72707 13.0509V16H7.27366V13.0509C5.79928 12.8855 4.42482 12.2236 3.37575 11.1737C2.32667 10.1238 1.66526 8.74827 1.5 7.27273V7.27273Z" fill="#4E5D78"/>
</svg>
