<svg width="16" height="16" viewBox="0 0 16 16" fill="none" xmlns="http://www.w3.org/2000/svg">
<path d="M0 1.77233C0 1.34611 0.356 1 0.7944 1H15.2056C15.644 1 16 1.34611 16 1.77233V14.2277C15.9998 14.4324 15.916 14.6288 15.7671 14.7736C15.6182 14.9184 15.4162 14.9998 15.2056 15H0.7944C0.583777 14.9998 0.381841 14.9184 0.232908 14.7736C0.0839752 14.6288 0.000211788 14.4324 0 14.2277V1.77233ZM1.6 2.55556V13.4444H14.4V2.55556H1.6ZM6.4976 5.21167L10.4008 7.741C10.4447 7.7694 10.4807 7.8079 10.5056 7.85309C10.5305 7.89827 10.5435 7.94874 10.5435 8C10.5435 8.05126 10.5305 8.10173 10.5056 8.14691C10.4807 8.1921 10.4447 8.2306 10.4008 8.259L6.4968 10.7883C6.44866 10.8194 6.39279 10.8371 6.3351 10.8398C6.27741 10.8424 6.22006 10.8299 6.16913 10.8034C6.1182 10.7769 6.07558 10.7375 6.04581 10.6894C6.01603 10.6413 6.0002 10.5863 6 10.5301V5.46989C6.00011 5.41362 6.01591 5.35843 6.04573 5.3102C6.07554 5.26197 6.11826 5.2225 6.16932 5.196C6.22038 5.16951 6.27787 5.15697 6.33568 5.15973C6.39349 5.16249 6.44945 5.18044 6.4976 5.21167Z" fill="white"/>
<path d="M0 1.77233C0 1.34611 0.356 1 0.7944 1H15.2056C15.644 1 16 1.34611 16 1.77233V14.2277C15.9998 14.4324 15.916 14.6288 15.7671 14.7736C15.6182 14.9184 15.4162 14.9998 15.2056 15H0.7944C0.583777 14.9998 0.381841 14.9184 0.232908 14.7736C0.0839752 14.6288 0.000211788 14.4324 0 14.2277V1.77233ZM1.6 2.55556V13.4444H14.4V2.55556H1.6ZM6.4976 5.21167L10.4008 7.741C10.4447 7.7694 10.4807 7.8079 10.5056 7.85309C10.5305 7.89827 10.5435 7.94874 10.5435 8C10.5435 8.05126 10.5305 8.10173 10.5056 8.14691C10.4807 8.1921 10.4447 8.2306 10.4008 8.259L6.4968 10.7883C6.44866 10.8194 6.39279 10.8371 6.3351 10.8398C6.27741 10.8424 6.22006 10.8299 6.16913 10.8034C6.1182 10.7769 6.07558 10.7375 6.04581 10.6894C6.01603 10.6413 6.0002 10.5863 6 10.5301V5.46989C6.00011 5.41362 6.01591 5.35843 6.04573 5.3102C6.07554 5.26197 6.11826 5.2225 6.16932 5.196C6.22038 5.16951 6.27787 5.15697 6.33568 5.15973C6.39349 5.16249 6.44945 5.18044 6.4976 5.21167Z" fill="#4E5D78"/>
</svg>
