<svg width="16" height="18" viewBox="0 0 16 18" fill="none" xmlns="http://www.w3.org/2000/svg">
<path d="M11.3374 13.2453C10.5418 13.6795 9.66293 13.9531 8.75422 14.0496V16.9985H7.24578V14.0496C5.71557 13.8842 4.28908 13.2223 3.20028 12.1725C2.11149 11.1227 1.42503 9.74722 1.25351 8.27177H2.77326C2.89085 9.05675 3.19697 9.8044 3.66725 10.4551C4.13753 11.1058 4.75895 11.6416 5.48198 12.0198C6.20501 12.398 7.00967 12.6081 7.83181 12.6334C8.65396 12.6586 9.47086 12.4984 10.2174 12.1654L9.04761 11.0382C8.48586 11.1948 7.89403 11.2233 7.31888 11.1215C6.74373 11.0196 6.20103 10.7902 5.73365 10.4514C5.26626 10.1125 4.88701 9.67349 4.62586 9.169C4.36471 8.66452 4.22881 8.10838 4.22891 7.54454V6.39115L0 2.3143L1.06722 1.28526L16 15.6844L14.9328 16.7127L11.3374 13.2453V13.2453ZM5.76223 7.86961L7.66286 9.70223C7.18459 9.63258 6.74202 9.41707 6.4 9.08729C6.05797 8.7575 5.83447 8.33077 5.76223 7.86961V7.86961ZM13.5624 11.297L12.474 10.2484C12.8579 9.65932 13.1196 8.99027 13.226 8.27177H14.7465C14.622 9.36018 14.2147 10.4007 13.5624 11.297ZM11.3676 9.18153L10.2001 8.05578C10.2408 7.89143 10.2627 7.72125 10.2627 7.54454V4.63562C10.2632 4.1227 10.0763 3.62601 9.73476 3.23276C9.39325 2.83952 8.91895 2.57487 8.39518 2.48528C7.87141 2.3957 7.33165 2.48692 6.8707 2.74291C6.40975 2.99891 6.05707 3.40332 5.87461 3.88511L4.7463 2.79645C5.16497 2.10748 5.80721 1.57056 6.57387 1.26858C7.34052 0.966596 8.18895 0.916349 8.98817 1.12559C9.78739 1.33484 10.493 1.79194 10.9959 2.42632C11.4989 3.0607 11.7713 3.83709 11.7711 4.63562V7.54454C11.772 8.11312 11.634 8.67392 11.3683 9.18153H11.3676Z" fill="white"/>
<path d="M11.3374 13.2453C10.5418 13.6795 9.66293 13.9531 8.75422 14.0496V16.9985H7.24578V14.0496C5.71557 13.8842 4.28908 13.2223 3.20028 12.1725C2.11149 11.1227 1.42503 9.74722 1.25351 8.27177H2.77326C2.89085 9.05675 3.19697 9.8044 3.66725 10.4551C4.13753 11.1058 4.75895 11.6416 5.48198 12.0198C6.20501 12.398 7.00967 12.6081 7.83181 12.6334C8.65396 12.6586 9.47086 12.4984 10.2174 12.1654L9.04761 11.0382C8.48586 11.1948 7.89403 11.2233 7.31888 11.1215C6.74373 11.0196 6.20103 10.7902 5.73365 10.4514C5.26626 10.1125 4.88701 9.67349 4.62586 9.169C4.36471 8.66452 4.22881 8.10838 4.22891 7.54454V6.39115L0 2.3143L1.06722 1.28526L16 15.6844L14.9328 16.7127L11.3374 13.2453V13.2453ZM5.76223 7.86961L7.66286 9.70223C7.18459 9.63258 6.74202 9.41707 6.4 9.08729C6.05797 8.7575 5.83447 8.33077 5.76223 7.86961V7.86961ZM13.5624 11.297L12.474 10.2484C12.8579 9.65932 13.1196 8.99027 13.226 8.27177H14.7465C14.622 9.36018 14.2147 10.4007 13.5624 11.297ZM11.3676 9.18153L10.2001 8.05578C10.2408 7.89143 10.2627 7.72125 10.2627 7.54454V4.63562C10.2632 4.1227 10.0763 3.62601 9.73476 3.23276C9.39325 2.83952 8.91895 2.57487 8.39518 2.48528C7.87141 2.3957 7.33165 2.48692 6.8707 2.74291C6.40975 2.99891 6.05707 3.40332 5.87461 3.88511L4.7463 2.79645C5.16497 2.10748 5.80721 1.57056 6.57387 1.26858C7.34052 0.966596 8.18895 0.916349 8.98817 1.12559C9.78739 1.33484 10.493 1.79194 10.9959 2.42632C11.4989 3.0607 11.7713 3.83709 11.7711 4.63562V7.54454C11.772 8.11312 11.634 8.67392 11.3683 9.18153H11.3676Z" fill="#4E5D78"/>
</svg>
