<svg width="16" height="16" viewBox="0 0 16 16" fill="none" xmlns="http://www.w3.org/2000/svg">
<path d="M6.60566 4.32105L3.90623 6.46069H1.39434V9.53931H3.90623L6.60566 11.679V4.32105ZM3.40845 11.0786H0.697168C0.512267 11.0786 0.33494 10.9975 0.204196 10.8532C0.0734514 10.7089 0 10.5131 0 10.309V5.69103C0 5.48691 0.0734514 5.29114 0.204196 5.1468C0.33494 5.00247 0.512267 4.92138 0.697168 4.92138H3.40845L7.43041 1.58723C7.48148 1.54101 7.54339 1.51175 7.60894 1.50287C7.67448 1.49398 7.74096 1.50584 7.80064 1.53704C7.86032 1.56825 7.91074 1.61753 7.94604 1.67915C7.98133 1.74077 8.00004 1.81218 8 1.88508V14.1149C8.00004 14.1878 7.98133 14.2592 7.94604 14.3208C7.91074 14.3825 7.86032 14.4317 7.80064 14.463C7.74096 14.4942 7.67448 14.506 7.60894 14.4971C7.54339 14.4882 7.48148 14.459 7.43041 14.4128L3.40845 11.0786ZM13.5348 8L16 10.7215L15.0142 11.8098L12.549 9.08829L10.0838 11.8098L9.09804 10.7215L11.5632 8L9.09804 5.2785L10.0838 4.1902L12.549 6.91171L15.0142 4.1902L16 5.2785L13.5348 8Z" fill="white"/>
<path d="M6.60566 4.32105L3.90623 6.46069H1.39434V9.53931H3.90623L6.60566 11.679V4.32105ZM3.40845 11.0786H0.697168C0.512267 11.0786 0.33494 10.9975 0.204196 10.8532C0.0734514 10.7089 0 10.5131 0 10.309V5.69103C0 5.48691 0.0734514 5.29114 0.204196 5.1468C0.33494 5.00247 0.512267 4.92138 0.697168 4.92138H3.40845L7.43041 1.58723C7.48148 1.54101 7.54339 1.51175 7.60894 1.50287C7.67448 1.49398 7.74096 1.50584 7.80064 1.53704C7.86032 1.56825 7.91074 1.61753 7.94604 1.67915C7.98133 1.74077 8.00004 1.81218 8 1.88508V14.1149C8.00004 14.1878 7.98133 14.2592 7.94604 14.3208C7.91074 14.3825 7.86032 14.4317 7.80064 14.463C7.74096 14.4942 7.67448 14.506 7.60894 14.4971C7.54339 14.4882 7.48148 14.459 7.43041 14.4128L3.40845 11.0786ZM13.5348 8L16 10.7215L15.0142 11.8098L12.549 9.08829L10.0838 11.8098L9.09804 10.7215L11.5632 8L9.09804 5.2785L10.0838 4.1902L12.549 6.91171L15.0142 4.1902L16 5.2785L13.5348 8Z" fill="#4E5D78"/>
</svg>
