<svg width="16" height="16" viewBox="0 0 16 16" fill="none" xmlns="http://www.w3.org/2000/svg">
<path d="M8.29583 0.593338C8.62299 0.265714 9.15386 0.265527 9.48125 0.592919L15.4071 6.51875C15.7345 6.84618 15.7344 7.37707 15.4069 7.70438V7.70438C15.0795 8.03153 14.5489 8.03143 14.2217 7.70417V7.70417L10.6667 11.2592L10.1039 14.0739C10.0845 14.1708 10.0369 14.2598 9.967 14.3296L9.24193 15.0542C9.04663 15.2493 8.73011 15.2492 8.5349 15.054L5.33333 11.8517L1.7775 15.4075C1.45027 15.7347 0.919728 15.7347 0.5925 15.4075V15.4075C0.265271 15.0803 0.265271 14.5497 0.5925 14.2225L4.14833 10.6667L0.946011 7.4651C0.750758 7.26989 0.750684 6.95337 0.945845 6.75808L1.6704 6.03301C1.74023 5.96313 1.8292 5.9155 1.92607 5.89614L4.74167 5.33333L8.29667 1.77834V1.77834C7.9696 1.45127 7.969 0.920634 8.29583 0.593338V0.593338ZM9.48167 2.96334L5.56715 6.87702L3.20218 7.35051L8.64949 12.7978L9.12215 10.4329L13.0367 6.51917L9.48167 2.96334Z" fill="white"/>
<path d="M8.29583 0.593338C8.62299 0.265714 9.15386 0.265527 9.48125 0.592919L15.4071 6.51875C15.7345 6.84618 15.7344 7.37707 15.4069 7.70438V7.70438C15.0795 8.03153 14.5489 8.03143 14.2217 7.70417V7.70417L10.6667 11.2592L10.1039 14.0739C10.0845 14.1708 10.0369 14.2598 9.967 14.3296L9.24193 15.0542C9.04663 15.2493 8.73011 15.2492 8.5349 15.054L5.33333 11.8517L1.7775 15.4075C1.45027 15.7347 0.919728 15.7347 0.5925 15.4075V15.4075C0.265271 15.0803 0.265271 14.5497 0.5925 14.2225L4.14833 10.6667L0.946011 7.4651C0.750758 7.26989 0.750684 6.95337 0.945845 6.75808L1.6704 6.03301C1.74023 5.96313 1.8292 5.9155 1.92607 5.89614L4.74167 5.33333L8.29667 1.77834V1.77834C7.9696 1.45127 7.969 0.920634 8.29583 0.593338V0.593338ZM9.48167 2.96334L5.56715 6.87702L3.20218 7.35051L8.64949 12.7978L9.12215 10.4329L13.0367 6.51917L9.48167 2.96334Z" fill="#4E5D78"/>
</svg>
