<svg width="16" height="16" viewBox="0 0 16 16" fill="none" xmlns="http://www.w3.org/2000/svg">
<circle cx="8" cy="8" r="8" fill="#38CB89"/>
<circle cx="8" cy="8" r="8" fill="white" fill-opacity="0.6"/>
<path d="M4 4.72727C4 4.32561 4.25584 4 4.57143 4H11.4286C11.7442 4 12 4.32561 12 4.72727V11.2727C12 11.6744 11.7442 12 11.4286 12H4.57143C4.25584 12 4 11.6744 4 11.2727V4.72727Z" fill="white"/>
<rect x="8.66699" y="5.33325" width="2" height="0.666667" fill="#38CB89"/>
<rect x="8.66699" y="5.33325" width="2" height="0.666667" fill="black" fill-opacity="0.2"/>
<rect x="8.66699" y="6.6665" width="2" height="0.666667" fill="#38CB89"/>
<rect x="8.66699" y="6.6665" width="2" height="0.666667" fill="black" fill-opacity="0.2"/>
<rect x="5.33398" y="8.6665" width="5.33333" height="0.666667" fill="#38CB89"/>
<rect x="5.33398" y="8.6665" width="5.33333" height="0.666667" fill="black" fill-opacity="0.2"/>
<rect x="5.33398" y="10" width="5.33333" height="0.666667" fill="#38CB89"/>
<rect x="5.33398" y="10" width="5.33333" height="0.666667" fill="black" fill-opacity="0.2"/>
<rect x="5.33398" y="5.3335" width="2.66667" height="2.66667" fill="#38CB89"/>
<rect x="5.33398" y="5.3335" width="2.66667" height="2.66667" fill="black" fill-opacity="0.2"/>
</svg>
