<svg width="16" height="16" viewBox="0 0 16 16" fill="none" xmlns="http://www.w3.org/2000/svg">
<path d="M3.564 12.8077L0 15.5V1.26923C0 1.06522 0.0842854 0.869561 0.234315 0.725302C0.384344 0.581044 0.587827 0.5 0.8 0.5H15.2C15.4122 0.5 15.6157 0.581044 15.7657 0.725302C15.9157 0.869561 16 1.06522 16 1.26923V12.0385C16 12.2425 15.9157 12.4381 15.7657 12.5824C15.6157 12.7266 15.4122 12.8077 15.2 12.8077H3.564ZM1.6 12.3346L3.0104 11.2692H14.4V2.03846H1.6V12.3346V12.3346ZM7.2 8.19231H8.8V9.73077H7.2V8.19231ZM7.2 3.57692H8.8V7.42308H7.2V3.57692Z" fill="white"/>
<path d="M3.564 12.8077L0 15.5V1.26923C0 1.06522 0.0842854 0.869561 0.234315 0.725302C0.384344 0.581044 0.587827 0.5 0.8 0.5H15.2C15.4122 0.5 15.6157 0.581044 15.7657 0.725302C15.9157 0.869561 16 1.06522 16 1.26923V12.0385C16 12.2425 15.9157 12.4381 15.7657 12.5824C15.6157 12.7266 15.4122 12.8077 15.2 12.8077H3.564ZM1.6 12.3346L3.0104 11.2692H14.4V2.03846H1.6V12.3346V12.3346ZM7.2 8.19231H8.8V9.73077H7.2V8.19231ZM7.2 3.57692H8.8V7.42308H7.2V3.57692Z" fill="#4E5D78"/>
</svg>
