<svg width="16" height="16" viewBox="0 0 16 16" fill="none" xmlns="http://www.w3.org/2000/svg">
<path fill-rule="evenodd" clip-rule="evenodd" d="M0 7.99997C0 7.50905 0.397969 7.11108 0.888889 7.11108H15.1111C15.602 7.11108 16 7.50905 16 7.99997C16 8.49089 15.602 8.88886 15.1111 8.88886H0.888889C0.397969 8.88886 0 8.49089 0 7.99997Z" fill="white"/>
<path fill-rule="evenodd" clip-rule="evenodd" d="M0 7.99997C0 7.50905 0.397969 7.11108 0.888889 7.11108H15.1111C15.602 7.11108 16 7.50905 16 7.99997C16 8.49089 15.602 8.88886 15.1111 8.88886H0.888889C0.397969 8.88886 0 8.49089 0 7.99997Z" fill="#4E5D78"/>
<path fill-rule="evenodd" clip-rule="evenodd" d="M7.37168 0.26035C7.71881 -0.0867832 8.28162 -0.0867832 8.62876 0.26035L15.7399 7.37146C16.087 7.71859 16.087 8.28141 15.7399 8.62854L8.62876 15.7397C8.28162 16.0868 7.71881 16.0868 7.37168 15.7397C7.02454 15.3925 7.02454 14.8297 7.37168 14.4826L13.8542 8L7.37168 1.51743C7.02454 1.1703 7.02454 0.607482 7.37168 0.26035Z" fill="white"/>
<path fill-rule="evenodd" clip-rule="evenodd" d="M7.37168 0.26035C7.71881 -0.0867832 8.28162 -0.0867832 8.62876 0.26035L15.7399 7.37146C16.087 7.71859 16.087 8.28141 15.7399 8.62854L8.62876 15.7397C8.28162 16.0868 7.71881 16.0868 7.37168 15.7397C7.02454 15.3925 7.02454 14.8297 7.37168 14.4826L13.8542 8L7.37168 1.51743C7.02454 1.1703 7.02454 0.607482 7.37168 0.26035Z" fill="#4E5D78"/>
</svg>
