<svg width="16" height="16" viewBox="0 0 16 16" fill="none" xmlns="http://www.w3.org/2000/svg">
<path d="M14.9852 4.11125C14.9682 3.68666 14.9682 3.27839 14.9682 2.88645C14.9682 2.57617 14.713 2.33121 14.3898 2.33121C11.8893 2.31488 9.98418 1.62899 8.40224 0.159224C8.18111 -0.0530748 7.80688 -0.0530748 7.58575 0.159224C6.00381 1.62899 4.09867 2.31488 1.61518 2.31488C1.29199 2.31488 1.03684 2.55984 1.03684 2.87012C1.03684 3.26206 1.03684 3.67032 1.01983 4.11125C0.934778 8.14494 0.815708 13.6484 7.80688 15.9673C7.87492 15.9837 7.92595 16 7.99399 16C8.06204 16 8.13008 15.9837 8.18111 15.9673C15.1723 13.6484 15.0532 8.14494 14.9852 4.11125ZM7.99399 14.5C2.00642 12.4097 2.39794 8.2359 2.48299 4.20222C2.48299 3.95726 2.5 3.72863 2.5 3.5C4.83039 3.38569 6.39504 2.83912 7.99399 1.5C9.59295 2.83912 11.1526 3.41835 13.483 3.5C13.483 3.72863 13.483 3.88262 13.5 4.12758C13.5851 8.1776 13.9816 12.4097 7.99399 14.5Z" fill="white"/>
<path d="M14.9852 4.11125C14.9682 3.68666 14.9682 3.27839 14.9682 2.88645C14.9682 2.57617 14.713 2.33121 14.3898 2.33121C11.8893 2.31488 9.98418 1.62899 8.40224 0.159224C8.18111 -0.0530748 7.80688 -0.0530748 7.58575 0.159224C6.00381 1.62899 4.09867 2.31488 1.61518 2.31488C1.29199 2.31488 1.03684 2.55984 1.03684 2.87012C1.03684 3.26206 1.03684 3.67032 1.01983 4.11125C0.934778 8.14494 0.815708 13.6484 7.80688 15.9673C7.87492 15.9837 7.92595 16 7.99399 16C8.06204 16 8.13008 15.9837 8.18111 15.9673C15.1723 13.6484 15.0532 8.14494 14.9852 4.11125ZM7.99399 14.5C2.00642 12.4097 2.39794 8.2359 2.48299 4.20222C2.48299 3.95726 2.5 3.72863 2.5 3.5C4.83039 3.38569 6.39504 2.83912 7.99399 1.5C9.59295 2.83912 11.1526 3.41835 13.483 3.5C13.483 3.72863 13.483 3.88262 13.5 4.12758C13.5851 8.1776 13.9816 12.4097 7.99399 14.5Z" fill="#4E5D78"/>
<path d="M10.0137 6.16438L7.20707 8.71631L5.99935 7.6182C5.77821 7.41714 5.40399 7.41714 5.16585 7.6182C4.94472 7.81927 4.94472 8.15952 5.16585 8.37605L6.78181 9.84534C6.90089 9.9536 7.03697 10 7.19006 10C7.34315 10 7.49624 9.9536 7.5983 9.84534L10.8302 6.90676C11.0514 6.7057 11.0514 6.36544 10.8302 6.14892C10.6091 5.94786 10.2349 5.94786 10.0137 6.16438Z" fill="white"/>
<path d="M10.0137 6.16438L7.20707 8.71631L5.99935 7.6182C5.77821 7.41714 5.40399 7.41714 5.16585 7.6182C4.94472 7.81927 4.94472 8.15952 5.16585 8.37605L6.78181 9.84534C6.90089 9.9536 7.03697 10 7.19006 10C7.34315 10 7.49624 9.9536 7.5983 9.84534L10.8302 6.90676C11.0514 6.7057 11.0514 6.36544 10.8302 6.14892C10.6091 5.94786 10.2349 5.94786 10.0137 6.16438Z" fill="#4E5D78"/>
</svg>
