<svg width="16" height="16" viewBox="0 0 16 16" fill="none" xmlns="http://www.w3.org/2000/svg">
<circle cx="8" cy="8" r="8" fill="#FFAB00"/>
<circle cx="8" cy="8" r="8" fill="white" fill-opacity="0.8"/>
<path d="M12 8C12 10.2091 10.2091 12 8 12C5.79086 12 4 10.2091 4 8C4 5.79086 5.79086 4 8 4C10.2091 4 12 5.79086 12 8Z" fill="white"/>
<path d="M10.75 7.40342C10.75 6.98921 10.4142 6.65342 10 6.65342C9.58579 6.65342 9.25 6.98921 9.25 7.40342H10.75ZM10 8.66659V9.41659C10.4142 9.41659 10.75 9.0808 10.75 8.66659H10ZM8.8 7.91659C8.38579 7.91659 8.05 8.25237 8.05 8.66659C8.05 9.0808 8.38579 9.41659 8.8 9.41659V7.91659ZM5.30235 8.39131C5.15031 8.77661 5.33942 9.21221 5.72472 9.36424C6.11002 9.51627 6.54562 9.32717 6.69765 8.94186L5.30235 8.39131ZM9.38648 8.02704L8.82418 8.52335C8.83104 8.53113 8.83807 8.53876 8.84525 8.54625L9.38648 8.02704ZM9.25 7.40342V8.66659H10.75V7.40342H9.25ZM10 7.91659H8.8V9.41659H10V7.91659ZM6.69765 8.94186C6.81099 8.65463 7.00008 8.45022 7.29554 8.26486L6.49838 6.99422C6.00016 7.30679 5.55965 7.73921 5.30235 8.39131L6.69765 8.94186ZM7.29554 8.26486C7.54365 8.1092 7.81815 8.0549 8.08196 8.09702L8.31848 6.61579C7.68424 6.51452 7.04396 6.65193 6.49838 6.99422L7.29554 8.26486ZM8.08196 8.09702C8.34719 8.13937 8.61021 8.28092 8.82418 8.52335L9.94878 7.53073C9.52094 7.04601 8.9513 6.71683 8.31848 6.61579L8.08196 8.09702ZM8.84525 8.54625L9.45877 9.18579L10.5412 8.14738L9.9277 7.50784L8.84525 8.54625Z" fill="#FFAB00"/>
</svg>
