<svg width="16" height="16" viewBox="0 0 16 16" fill="none" xmlns="http://www.w3.org/2000/svg">
<path d="M6.22222 5.33333V0H4.44444V4.44444H0V6.22222H5.33333C5.56908 6.22222 5.79517 6.12857 5.96187 5.96187C6.12857 5.79517 6.22222 5.56908 6.22222 5.33333ZM4.44444 16H6.22222V10.6667C6.22222 10.4309 6.12857 10.2048 5.96187 10.0381C5.79517 9.87143 5.56908 9.77778 5.33333 9.77778H0V11.5556H4.44444V16ZM16 9.77778H10.6667C10.4309 9.77778 10.2048 9.87143 10.0381 10.0381C9.87143 10.2048 9.77778 10.4309 9.77778 10.6667V16H11.5556V11.5556H16V9.77778ZM16 4.44444H11.5556V0H9.77778V5.33333C9.77778 5.56908 9.87143 5.79517 10.0381 5.96187C10.2048 6.12857 10.4309 6.22222 10.6667 6.22222H16V4.44444Z" fill="white"/>
<path d="M6.22222 5.33333V0H4.44444V4.44444H0V6.22222H5.33333C5.56908 6.22222 5.79517 6.12857 5.96187 5.96187C6.12857 5.79517 6.22222 5.56908 6.22222 5.33333ZM4.44444 16H6.22222V10.6667C6.22222 10.4309 6.12857 10.2048 5.96187 10.0381C5.79517 9.87143 5.56908 9.77778 5.33333 9.77778H0V11.5556H4.44444V16ZM16 9.77778H10.6667C10.4309 9.77778 10.2048 9.87143 10.0381 10.0381C9.87143 10.2048 9.77778 10.4309 9.77778 10.6667V16H11.5556V11.5556H16V9.77778ZM16 4.44444H11.5556V0H9.77778V5.33333C9.77778 5.56908 9.87143 5.79517 10.0381 5.96187C10.2048 6.12857 10.4309 6.22222 10.6667 6.22222H16V4.44444Z" fill="#4E5D78"/>
</svg>
