<svg width="16" height="16" viewBox="0 0 16 16" fill="none" xmlns="http://www.w3.org/2000/svg">
<path d="M5.99693 8C6.78765 8 7.56061 7.76541 8.21807 7.32588C8.87553 6.88635 9.38796 6.26164 9.69056 5.53074C9.99315 4.79983 10.0723 3.99556 9.91806 3.21964C9.7638 2.44372 9.38303 1.73098 8.82391 1.17157C8.26478 0.612165 7.55242 0.231202 6.77689 0.0768607C6.00136 -0.0774802 5.19751 0.00173314 4.46698 0.304484C3.73645 0.607234 3.11205 1.11992 2.67275 1.77772C2.23345 2.43552 1.99898 3.20888 1.99898 4C2.00003 5.06054 2.42159 6.07734 3.17112 6.82726C3.92065 7.57718 4.93693 7.99894 5.99693 8ZM5.99693 1.33334C6.52408 1.33334 7.03938 1.48973 7.47769 1.78275C7.916 2.07577 8.25762 2.49224 8.45935 2.97951C8.66108 3.46678 8.71386 4.00296 8.61102 4.52024C8.50818 5.03753 8.25433 5.51268 7.88158 5.88562C7.50883 6.25856 7.03392 6.51254 6.5169 6.61543C5.99989 6.71832 5.46398 6.66551 4.97696 6.46368C4.48994 6.26185 4.07368 5.92005 3.78081 5.48152C3.48794 5.04299 3.33163 4.52742 3.33163 4C3.33163 3.29276 3.61243 2.61448 4.11228 2.11438C4.61212 1.61429 5.29005 1.33334 5.99693 1.33334V1.33334ZM11.9939 15.3333C11.9939 15.5101 11.9237 15.6797 11.7987 15.8047C11.6737 15.9298 11.5043 16 11.3275 16C11.1508 16 10.9813 15.9298 10.8564 15.8047C10.7314 15.6797 10.6612 15.5101 10.6612 15.3333C10.6612 14.0957 10.1698 12.9087 9.29507 12.0335C8.42035 11.1583 7.23397 10.6667 5.99693 10.6667C4.75989 10.6667 3.57351 11.1583 2.69879 12.0335C1.82406 12.9087 1.33265 14.0957 1.33265 15.3333C1.33265 15.5101 1.26245 15.6797 1.13749 15.8047C1.01253 15.9298 0.843046 16 0.666325 16C0.489605 16 0.320122 15.9298 0.195162 15.8047C0.070202 15.6797 0 15.5101 0 15.3333C0 13.742 0.631818 12.2159 1.75646 11.0907C2.8811 9.96548 4.40644 9.33333 5.99693 9.33333C7.58741 9.33333 9.11276 9.96548 10.2374 11.0907C11.362 12.2159 11.9939 13.742 11.9939 15.3333V15.3333ZM15.7966 9.52867C15.8602 9.59017 15.911 9.66373 15.9459 9.74507C15.9808 9.8264 15.9992 9.91388 16 10.0024C16.0007 10.0909 15.9839 10.1787 15.9504 10.2606C15.9169 10.3426 15.8674 10.417 15.8048 10.4796C15.7423 10.5422 15.6679 10.5917 15.586 10.6252C15.5041 10.6587 15.4164 10.6756 15.3279 10.6748C15.2394 10.6741 15.152 10.6557 15.0707 10.6207C14.9894 10.5858 14.9159 10.535 14.8544 10.4713L13.6597 9.276L12.465 10.4713C12.3393 10.5928 12.171 10.66 11.9963 10.6585C11.8215 10.6569 11.6544 10.5868 11.5309 10.4632C11.4073 10.3396 11.3373 10.1724 11.3357 9.9976C11.3342 9.8228 11.4014 9.6544 11.5228 9.52867L12.7175 8.33333L11.5228 7.138C11.4014 7.01227 11.3342 6.84387 11.3357 6.66907C11.3373 6.49427 11.4073 6.32706 11.5309 6.20346C11.6544 6.07985 11.8215 6.00974 11.9963 6.00822C12.171 6.0067 12.3393 6.0739 12.465 6.19534L13.6597 7.39067L14.8544 6.19534C14.9801 6.0739 15.1484 6.0067 15.3231 6.00822C15.4978 6.00974 15.6649 6.07985 15.7885 6.20346C15.912 6.32706 15.9821 6.49427 15.9836 6.66907C15.9851 6.84387 15.918 7.01227 15.7966 7.138L14.6019 8.33333L15.7966 9.52867Z" fill="white"/>
<path d="M5.99693 8C6.78765 8 7.56061 7.76541 8.21807 7.32588C8.87553 6.88635 9.38796 6.26164 9.69056 5.53074C9.99315 4.79983 10.0723 3.99556 9.91806 3.21964C9.7638 2.44372 9.38303 1.73098 8.82391 1.17157C8.26478 0.612165 7.55242 0.231202 6.77689 0.0768607C6.00136 -0.0774802 5.19751 0.00173314 4.46698 0.304484C3.73645 0.607234 3.11205 1.11992 2.67275 1.77772C2.23345 2.43552 1.99898 3.20888 1.99898 4C2.00003 5.06054 2.42159 6.07734 3.17112 6.82726C3.92065 7.57718 4.93693 7.99894 5.99693 8ZM5.99693 1.33334C6.52408 1.33334 7.03938 1.48973 7.47769 1.78275C7.916 2.07577 8.25762 2.49224 8.45935 2.97951C8.66108 3.46678 8.71386 4.00296 8.61102 4.52024C8.50818 5.03753 8.25433 5.51268 7.88158 5.88562C7.50883 6.25856 7.03392 6.51254 6.5169 6.61543C5.99989 6.71832 5.46398 6.66551 4.97696 6.46368C4.48994 6.26185 4.07368 5.92005 3.78081 5.48152C3.48794 5.04299 3.33163 4.52742 3.33163 4C3.33163 3.29276 3.61243 2.61448 4.11228 2.11438C4.61212 1.61429 5.29005 1.33334 5.99693 1.33334V1.33334ZM11.9939 15.3333C11.9939 15.5101 11.9237 15.6797 11.7987 15.8047C11.6737 15.9298 11.5043 16 11.3275 16C11.1508 16 10.9813 15.9298 10.8564 15.8047C10.7314 15.6797 10.6612 15.5101 10.6612 15.3333C10.6612 14.0957 10.1698 12.9087 9.29507 12.0335C8.42035 11.1583 7.23397 10.6667 5.99693 10.6667C4.75989 10.6667 3.57351 11.1583 2.69879 12.0335C1.82406 12.9087 1.33265 14.0957 1.33265 15.3333C1.33265 15.5101 1.26245 15.6797 1.13749 15.8047C1.01253 15.9298 0.843046 16 0.666325 16C0.489605 16 0.320122 15.9298 0.195162 15.8047C0.070202 15.6797 0 15.5101 0 15.3333C0 13.742 0.631818 12.2159 1.75646 11.0907C2.8811 9.96548 4.40644 9.33333 5.99693 9.33333C7.58741 9.33333 9.11276 9.96548 10.2374 11.0907C11.362 12.2159 11.9939 13.742 11.9939 15.3333V15.3333ZM15.7966 9.52867C15.8602 9.59017 15.911 9.66373 15.9459 9.74507C15.9808 9.8264 15.9992 9.91388 16 10.0024C16.0007 10.0909 15.9839 10.1787 15.9504 10.2606C15.9169 10.3426 15.8674 10.417 15.8048 10.4796C15.7423 10.5422 15.6679 10.5917 15.586 10.6252C15.5041 10.6587 15.4164 10.6756 15.3279 10.6748C15.2394 10.6741 15.152 10.6557 15.0707 10.6207C14.9894 10.5858 14.9159 10.535 14.8544 10.4713L13.6597 9.276L12.465 10.4713C12.3393 10.5928 12.171 10.66 11.9963 10.6585C11.8215 10.6569 11.6544 10.5868 11.5309 10.4632C11.4073 10.3396 11.3373 10.1724 11.3357 9.9976C11.3342 9.8228 11.4014 9.6544 11.5228 9.52867L12.7175 8.33333L11.5228 7.138C11.4014 7.01227 11.3342 6.84387 11.3357 6.66907C11.3373 6.49427 11.4073 6.32706 11.5309 6.20346C11.6544 6.07985 11.8215 6.00974 11.9963 6.00822C12.171 6.0067 12.3393 6.0739 12.465 6.19534L13.6597 7.39067L14.8544 6.19534C14.9801 6.0739 15.1484 6.0067 15.3231 6.00822C15.4978 6.00974 15.6649 6.07985 15.7885 6.20346C15.912 6.32706 15.9821 6.49427 15.9836 6.66907C15.9851 6.84387 15.918 7.01227 15.7966 7.138L14.6019 8.33333L15.7966 9.52867Z" fill="#4E5D78"/>
</svg>
