<svg width="16" height="16" viewBox="0 0 16 16" fill="none" xmlns="http://www.w3.org/2000/svg">
<path fill-rule="evenodd" clip-rule="evenodd" d="M2 8H0C0 12.4183 3.58172 16 8 16C12.4183 16 16 12.4183 16 8C16 3.58172 12.4183 0 8 0C6.02398 0 4.16546 0.721824 2.7291 1.98123L1.92264 1.41654C1.58607 1.18087 1.12468 1.42922 1.13604 1.83994L1.2344 5.3966C1.24365 5.73126 1.57278 5.96246 1.89073 5.85765L5.2775 4.7413C5.66838 4.61245 5.7449 4.09292 5.40776 3.85685L4.43296 3.17429C5.44767 2.42282 6.68853 2 8 2C11.3137 2 14 4.68629 14 8C14 11.3137 11.3137 14 8 14C4.68629 14 2 11.3137 2 8Z" fill="white"/>
<path fill-rule="evenodd" clip-rule="evenodd" d="M2 8H0C0 12.4183 3.58172 16 8 16C12.4183 16 16 12.4183 16 8C16 3.58172 12.4183 0 8 0C6.02398 0 4.16546 0.721824 2.7291 1.98123L1.92264 1.41654C1.58607 1.18087 1.12468 1.42922 1.13604 1.83994L1.2344 5.3966C1.24365 5.73126 1.57278 5.96246 1.89073 5.85765L5.2775 4.7413C5.66838 4.61245 5.7449 4.09292 5.40776 3.85685L4.43296 3.17429C5.44767 2.42282 6.68853 2 8 2C11.3137 2 14 4.68629 14 8C14 11.3137 11.3137 14 8 14C4.68629 14 2 11.3137 2 8Z" fill="#4E5D78"/>
</svg>
