<svg width="16" height="16" viewBox="0 0 16 16" fill="none" xmlns="http://www.w3.org/2000/svg">
<path d="M7.99991 8.4102L11.0838 11.3796L10.0554 12.3701L8.72673 11.0905V15H7.27309V11.0891L5.94446 12.3701L4.91601 11.3796L7.99991 8.4102ZM7.99991 1C9.24785 1.00006 10.4522 1.44178 11.3841 2.24118C12.316 3.04059 12.9104 4.14192 13.0542 5.3358C13.9586 5.57332 14.7475 6.10937 15.2831 6.85027C15.8187 7.59117 16.067 8.48978 15.9845 9.38907C15.902 10.2884 15.4939 11.1311 14.8317 11.7701C14.1695 12.409 13.2952 12.8035 12.3616 12.8846V11.4748C12.696 11.4288 13.0176 11.3191 13.3076 11.1521C13.5975 10.9851 13.85 10.7641 14.0504 10.5021C14.2507 10.2401 14.3948 9.94224 14.4743 9.62599C14.5538 9.30974 14.5671 8.9814 14.5135 8.66015C14.4598 8.33889 14.3402 8.03115 14.1617 7.75489C13.9832 7.47864 13.7493 7.23939 13.4737 7.05113C13.1982 6.86286 12.8864 6.72935 12.5567 6.65839C12.227 6.58742 11.8859 6.58042 11.5533 6.6378C11.6672 6.12742 11.661 5.59898 11.5353 5.09119C11.4096 4.58339 11.1676 4.10911 10.8269 3.70307C10.4863 3.29703 10.0556 2.96952 9.56655 2.74454C9.07745 2.51955 8.5423 2.40278 8.00027 2.40278C7.45825 2.40278 6.92309 2.51955 6.434 2.74454C5.9449 2.96952 5.51425 3.29703 5.1736 3.70307C4.83295 4.10911 4.59091 4.58339 4.46523 5.09119C4.33954 5.59898 4.33339 6.12742 4.44721 6.6378C3.7841 6.51787 3.09869 6.65655 2.54174 7.02333C1.9848 7.39012 1.60195 7.95496 1.47743 8.5936C1.3529 9.23224 1.4969 9.89237 1.87773 10.4288C2.25857 10.9652 2.84505 11.3339 3.50816 11.4538L3.63899 11.4748V12.8846C2.70535 12.8036 1.83096 12.4092 1.16863 11.7703C0.506297 11.1314 0.0981622 10.2887 0.015557 9.38938C-0.0670482 8.49007 0.18113 7.5914 0.716716 6.85044C1.2523 6.10948 2.04123 5.57337 2.94561 5.3358C3.0893 4.14186 3.68362 3.04044 4.61553 2.24101C5.54744 1.44157 6.75193 0.999904 7.99991 1V1Z" fill="white"/>
<path d="M7.99991 8.4102L11.0838 11.3796L10.0554 12.3701L8.72673 11.0905V15H7.27309V11.0891L5.94446 12.3701L4.91601 11.3796L7.99991 8.4102ZM7.99991 1C9.24785 1.00006 10.4522 1.44178 11.3841 2.24118C12.316 3.04059 12.9104 4.14192 13.0542 5.3358C13.9586 5.57332 14.7475 6.10937 15.2831 6.85027C15.8187 7.59117 16.067 8.48978 15.9845 9.38907C15.902 10.2884 15.4939 11.1311 14.8317 11.7701C14.1695 12.409 13.2952 12.8035 12.3616 12.8846V11.4748C12.696 11.4288 13.0176 11.3191 13.3076 11.1521C13.5975 10.9851 13.85 10.7641 14.0504 10.5021C14.2507 10.2401 14.3948 9.94224 14.4743 9.62599C14.5538 9.30974 14.5671 8.9814 14.5135 8.66015C14.4598 8.33889 14.3402 8.03115 14.1617 7.75489C13.9832 7.47864 13.7493 7.23939 13.4737 7.05113C13.1982 6.86286 12.8864 6.72935 12.5567 6.65839C12.227 6.58742 11.8859 6.58042 11.5533 6.6378C11.6672 6.12742 11.661 5.59898 11.5353 5.09119C11.4096 4.58339 11.1676 4.10911 10.8269 3.70307C10.4863 3.29703 10.0556 2.96952 9.56655 2.74454C9.07745 2.51955 8.5423 2.40278 8.00027 2.40278C7.45825 2.40278 6.92309 2.51955 6.434 2.74454C5.9449 2.96952 5.51425 3.29703 5.1736 3.70307C4.83295 4.10911 4.59091 4.58339 4.46523 5.09119C4.33954 5.59898 4.33339 6.12742 4.44721 6.6378C3.7841 6.51787 3.09869 6.65655 2.54174 7.02333C1.9848 7.39012 1.60195 7.95496 1.47743 8.5936C1.3529 9.23224 1.4969 9.89237 1.87773 10.4288C2.25857 10.9652 2.84505 11.3339 3.50816 11.4538L3.63899 11.4748V12.8846C2.70535 12.8036 1.83096 12.4092 1.16863 11.7703C0.506297 11.1314 0.0981622 10.2887 0.015557 9.38938C-0.0670482 8.49007 0.18113 7.5914 0.716716 6.85044C1.2523 6.10948 2.04123 5.57337 2.94561 5.3358C3.0893 4.14186 3.68362 3.04044 4.61553 2.24101C5.54744 1.44157 6.75193 0.999904 7.99991 1V1Z" fill="#4E5D78"/>
</svg>
