<svg width="16" height="16" viewBox="0 0 16 16" fill="none" xmlns="http://www.w3.org/2000/svg">
<path fill-rule="evenodd" clip-rule="evenodd" d="M1.30175 11.9683C2.13524 11.1348 3.2657 10.6665 4.44444 10.6665H11.5556C12.7343 10.6665 13.8648 11.1348 14.6983 11.9683C15.5317 12.8017 16 13.9322 16 15.1109C16 15.6019 15.602 15.9998 15.1111 15.9998C14.6202 15.9998 14.2222 15.6019 14.2222 15.1109C14.2222 14.4037 13.9413 13.7254 13.4412 13.2253C12.9411 12.7252 12.2628 12.4443 11.5556 12.4443H4.44444C3.7372 12.4443 3.05892 12.7252 2.55883 13.2253C2.05873 13.7254 1.77778 14.4037 1.77778 15.1109C1.77778 15.6019 1.37981 15.9998 0.888889 15.9998C0.397969 15.9998 0 15.6019 0 15.1109C0 13.9322 0.468253 12.8017 1.30175 11.9683Z" fill="white"/>
<path fill-rule="evenodd" clip-rule="evenodd" d="M1.30175 11.9683C2.13524 11.1348 3.2657 10.6665 4.44444 10.6665H11.5556C12.7343 10.6665 13.8648 11.1348 14.6983 11.9683C15.5317 12.8017 16 13.9322 16 15.1109C16 15.6019 15.602 15.9998 15.1111 15.9998C14.6202 15.9998 14.2222 15.6019 14.2222 15.1109C14.2222 14.4037 13.9413 13.7254 13.4412 13.2253C12.9411 12.7252 12.2628 12.4443 11.5556 12.4443H4.44444C3.7372 12.4443 3.05892 12.7252 2.55883 13.2253C2.05873 13.7254 1.77778 14.4037 1.77778 15.1109C1.77778 15.6019 1.37981 15.9998 0.888889 15.9998C0.397969 15.9998 0 15.6019 0 15.1109C0 13.9322 0.468253 12.8017 1.30175 11.9683Z" fill="#4E5D78"/>
<path fill-rule="evenodd" clip-rule="evenodd" d="M8.00011 1.77778C6.52735 1.77778 5.33344 2.97169 5.33344 4.44444C5.33344 5.9172 6.52735 7.11111 8.00011 7.11111C9.47287 7.11111 10.6668 5.9172 10.6668 4.44444C10.6668 2.97169 9.47287 1.77778 8.00011 1.77778ZM3.55566 4.44444C3.55566 1.98985 5.54551 0 8.00011 0C10.4547 0 12.4446 1.98985 12.4446 4.44444C12.4446 6.89904 10.4547 8.88889 8.00011 8.88889C5.54551 8.88889 3.55566 6.89904 3.55566 4.44444Z" fill="white"/>
<path fill-rule="evenodd" clip-rule="evenodd" d="M8.00011 1.77778C6.52735 1.77778 5.33344 2.97169 5.33344 4.44444C5.33344 5.9172 6.52735 7.11111 8.00011 7.11111C9.47287 7.11111 10.6668 5.9172 10.6668 4.44444C10.6668 2.97169 9.47287 1.77778 8.00011 1.77778ZM3.55566 4.44444C3.55566 1.98985 5.54551 0 8.00011 0C10.4547 0 12.4446 1.98985 12.4446 4.44444C12.4446 6.89904 10.4547 8.88889 8.00011 8.88889C5.54551 8.88889 3.55566 6.89904 3.55566 4.44444Z" fill="#4E5D78"/>
</svg>
