<svg width="16" height="17" viewBox="0 0 16 17" fill="none" xmlns="http://www.w3.org/2000/svg">
<path fill-rule="evenodd" clip-rule="evenodd" d="M2.16667 4.49976C1.98986 4.49976 1.82029 4.56561 1.69526 4.68282C1.57024 4.80003 1.5 4.959 1.5 5.12476V10.8748C1.5 11.0405 1.57024 11.1995 1.69526 11.3167C1.82029 11.4339 1.98986 11.4998 2.16667 11.4998H8.83333C9.01014 11.4998 9.17971 11.4339 9.30474 11.3167C9.42976 11.1995 9.5 11.0405 9.5 10.8748V10.5086L3.05719 4.49976H2.16667ZM0.585786 3.54894C0.960859 3.19731 1.46957 2.99976 2 2.99976H3.33333C3.51014 2.99976 3.67971 3.06561 3.80474 3.18282L11.1381 10.0578C11.2631 10.175 11.3333 10.334 11.3333 10.4998V11.1248C11.3333 11.622 11.1226 12.099 10.7475 12.4506C10.3725 12.8022 9.86377 12.9998 9.33333 12.9998H2C1.46957 12.9998 0.960859 12.8022 0.585786 12.4506C0.210714 12.099 0 11.622 0 11.1248V4.87476C0 4.37748 0.210714 3.90057 0.585786 3.54894ZM9.33333 4.49976H7.10667C6.73848 4.49976 6.44 4.09494 6.44 3.74976C6.44 3.40459 6.73848 2.99976 7.10667 2.99976L9.43036 2.90283C9.96079 2.90283 10.4695 3.10038 10.8446 3.45201C11.2196 3.80364 11.4304 4.28055 11.4304 4.77783V6.60645L11.5 6.67174L14.9426 4.36836C15.1455 4.23075 15.4136 4.21137 15.6366 4.31818C15.8596 4.42499 16 4.63998 16 4.87476V11.1248C16 11.4699 15.6182 11.7498 15.25 11.7498C14.8818 11.7498 14.5 11.4699 14.5 11.1248V6.09821L11.7241 8.09367C11.4588 8.27356 11.0934 8.24624 10.8619 8.02921L10.1953 7.40421C10.0702 7.287 10 7.12802 10 6.96226V5.12476C10 4.959 9.92976 4.80003 9.80474 4.68282C9.67971 4.56561 9.51015 4.49976 9.33333 4.49976Z" fill="white"/>
<path fill-rule="evenodd" clip-rule="evenodd" d="M2.16667 4.49976C1.98986 4.49976 1.82029 4.56561 1.69526 4.68282C1.57024 4.80003 1.5 4.959 1.5 5.12476V10.8748C1.5 11.0405 1.57024 11.1995 1.69526 11.3167C1.82029 11.4339 1.98986 11.4998 2.16667 11.4998H8.83333C9.01014 11.4998 9.17971 11.4339 9.30474 11.3167C9.42976 11.1995 9.5 11.0405 9.5 10.8748V10.5086L3.05719 4.49976H2.16667ZM0.585786 3.54894C0.960859 3.19731 1.46957 2.99976 2 2.99976H3.33333C3.51014 2.99976 3.67971 3.06561 3.80474 3.18282L11.1381 10.0578C11.2631 10.175 11.3333 10.334 11.3333 10.4998V11.1248C11.3333 11.622 11.1226 12.099 10.7475 12.4506C10.3725 12.8022 9.86377 12.9998 9.33333 12.9998H2C1.46957 12.9998 0.960859 12.8022 0.585786 12.4506C0.210714 12.099 0 11.622 0 11.1248V4.87476C0 4.37748 0.210714 3.90057 0.585786 3.54894ZM9.33333 4.49976H7.10667C6.73848 4.49976 6.44 4.09494 6.44 3.74976C6.44 3.40459 6.73848 2.99976 7.10667 2.99976L9.43036 2.90283C9.96079 2.90283 10.4695 3.10038 10.8446 3.45201C11.2196 3.80364 11.4304 4.28055 11.4304 4.77783V6.60645L11.5 6.67174L14.9426 4.36836C15.1455 4.23075 15.4136 4.21137 15.6366 4.31818C15.8596 4.42499 16 4.63998 16 4.87476V11.1248C16 11.4699 15.6182 11.7498 15.25 11.7498C14.8818 11.7498 14.5 11.4699 14.5 11.1248V6.09821L11.7241 8.09367C11.4588 8.27356 11.0934 8.24624 10.8619 8.02921L10.1953 7.40421C10.0702 7.287 10 7.12802 10 6.96226V5.12476C10 4.959 9.92976 4.80003 9.80474 4.68282C9.67971 4.56561 9.51015 4.49976 9.33333 4.49976Z" fill="#4E5D78"/>
<path fill-rule="evenodd" clip-rule="evenodd" d="M0.195262 0.195262C0.455612 -0.0650874 0.877722 -0.0650874 1.13807 0.195262L15.8047 14.8619C16.0651 15.1223 16.0651 15.5444 15.8047 15.8047C15.5444 16.0651 15.1223 16.0651 14.8619 15.8047L0.195262 1.13807C-0.0650874 0.877722 -0.0650874 0.455612 0.195262 0.195262Z" fill="white"/>
<path fill-rule="evenodd" clip-rule="evenodd" d="M0.195262 0.195262C0.455612 -0.0650874 0.877722 -0.0650874 1.13807 0.195262L15.8047 14.8619C16.0651 15.1223 16.0651 15.5444 15.8047 15.8047C15.5444 16.0651 15.1223 16.0651 14.8619 15.8047L0.195262 1.13807C-0.0650874 0.877722 -0.0650874 0.455612 0.195262 0.195262Z" fill="#4E5D78"/>
</svg>
