<svg width="16" height="16" viewBox="0 0 16 16" fill="none" xmlns="http://www.w3.org/2000/svg">
<path d="M6.54545 4.32105L4.07491 6.46069H1.45455V9.53931H4.07491L6.54545 11.679V4.32105ZM3.55564 11.0786H0.727273C0.534388 11.0786 0.349403 10.9975 0.213013 10.8532C0.0766231 10.7089 0 10.5131 0 10.309V5.69103C0 5.48691 0.0766231 5.29114 0.213013 5.1468C0.349403 5.00247 0.534388 4.92138 0.727273 4.92138H3.55564L7.40582 1.58723C7.45909 1.54101 7.52367 1.51175 7.59205 1.50287C7.66042 1.49398 7.72977 1.50584 7.79203 1.53704C7.85429 1.56825 7.90688 1.61753 7.9437 1.67915C7.98052 1.74077 8.00004 1.81218 8 1.88508V14.1149C8.00004 14.1878 7.98052 14.2592 7.9437 14.3208C7.90688 14.3825 7.85429 14.4317 7.79203 14.463C7.72977 14.4942 7.66042 14.506 7.59205 14.4971C7.52367 14.4882 7.45909 14.459 7.40582 14.4128L3.55636 11.0786H3.55564ZM13.3862 14.2604L12.3564 13.1705C13.0458 12.5214 13.5974 11.7249 13.9747 10.8336C14.352 9.94239 14.5466 8.97662 14.5455 8C14.5464 6.97335 14.3312 5.95937 13.9155 5.03172C13.4999 4.10407 12.8942 3.28604 12.1425 2.63704L13.1753 1.54413C14.0614 2.33806 14.7733 3.32702 15.2611 4.44203C15.749 5.55704 16.0011 6.77126 16 8C16 10.4806 14.992 12.7118 13.3862 14.2604ZM10.8095 11.5335L9.77527 10.439C10.1283 10.1517 10.4142 9.78232 10.6108 9.35939C10.8074 8.93646 10.9095 8.47134 10.9091 8C10.9091 6.89939 10.3636 5.93347 9.54182 5.38933L10.5884 4.28179C11.1392 4.71064 11.587 5.27069 11.8954 5.91663C12.2038 6.56258 12.3642 7.27628 12.3636 8C12.3636 9.41771 11.76 10.6861 10.8095 11.5335Z" fill="white"/>
<path d="M6.54545 4.32105L4.07491 6.46069H1.45455V9.53931H4.07491L6.54545 11.679V4.32105ZM3.55564 11.0786H0.727273C0.534388 11.0786 0.349403 10.9975 0.213013 10.8532C0.0766231 10.7089 0 10.5131 0 10.309V5.69103C0 5.48691 0.0766231 5.29114 0.213013 5.1468C0.349403 5.00247 0.534388 4.92138 0.727273 4.92138H3.55564L7.40582 1.58723C7.45909 1.54101 7.52367 1.51175 7.59205 1.50287C7.66042 1.49398 7.72977 1.50584 7.79203 1.53704C7.85429 1.56825 7.90688 1.61753 7.9437 1.67915C7.98052 1.74077 8.00004 1.81218 8 1.88508V14.1149C8.00004 14.1878 7.98052 14.2592 7.9437 14.3208C7.90688 14.3825 7.85429 14.4317 7.79203 14.463C7.72977 14.4942 7.66042 14.506 7.59205 14.4971C7.52367 14.4882 7.45909 14.459 7.40582 14.4128L3.55636 11.0786H3.55564ZM13.3862 14.2604L12.3564 13.1705C13.0458 12.5214 13.5974 11.7249 13.9747 10.8336C14.352 9.94239 14.5466 8.97662 14.5455 8C14.5464 6.97335 14.3312 5.95937 13.9155 5.03172C13.4999 4.10407 12.8942 3.28604 12.1425 2.63704L13.1753 1.54413C14.0614 2.33806 14.7733 3.32702 15.2611 4.44203C15.749 5.55704 16.0011 6.77126 16 8C16 10.4806 14.992 12.7118 13.3862 14.2604ZM10.8095 11.5335L9.77527 10.439C10.1283 10.1517 10.4142 9.78232 10.6108 9.35939C10.8074 8.93646 10.9095 8.47134 10.9091 8C10.9091 6.89939 10.3636 5.93347 9.54182 5.38933L10.5884 4.28179C11.1392 4.71064 11.587 5.27069 11.8954 5.91663C12.2038 6.56258 12.3642 7.27628 12.3636 8C12.3636 9.41771 11.76 10.6861 10.8095 11.5335Z" fill="#4E5D78"/>
</svg>
